<svg width="128" height="23" viewBox="0 0 128 23" fill="none" xmlns="http://www.w3.org/2000/svg">
<path d="M9.58643 19.1836V20H4.46777V19.2856L7.02979 16.4336C7.34489 16.0827 7.58838 15.7855 7.76025 15.542C7.93571 15.2949 8.05745 15.0747 8.12549 14.8813C8.1971 14.6844 8.23291 14.4839 8.23291 14.2798C8.23291 14.022 8.1792 13.7892 8.07178 13.5815C7.96794 13.3703 7.81396 13.202 7.60986 13.0767C7.40576 12.9513 7.15869 12.8887 6.86865 12.8887C6.52132 12.8887 6.23128 12.9567 5.99854 13.0928C5.76937 13.2253 5.59749 13.4115 5.48291 13.6514C5.36833 13.8913 5.31104 14.167 5.31104 14.4785H4.31738C4.31738 14.0381 4.41406 13.6353 4.60742 13.27C4.80078 12.9048 5.08724 12.6147 5.4668 12.3999C5.84635 12.1815 6.31364 12.0723 6.86865 12.0723C7.36279 12.0723 7.78532 12.16 8.13623 12.3354C8.48714 12.5073 8.7557 12.7508 8.94189 13.0659C9.13167 13.3774 9.22656 13.7427 9.22656 14.1616C9.22656 14.3908 9.18717 14.6235 9.1084 14.8599C9.0332 15.0926 8.92757 15.3254 8.7915 15.5581C8.65902 15.7909 8.50326 16.02 8.32422 16.2456C8.14876 16.4712 7.96077 16.6932 7.76025 16.9116L5.66553 19.1836H9.58643ZM15.5591 15.4668V16.6592C15.5591 17.3001 15.5018 17.8408 15.3872 18.2812C15.2726 18.7217 15.1079 19.0762 14.8931 19.3447C14.6782 19.6133 14.4186 19.8084 14.1143 19.9302C13.8135 20.0483 13.4733 20.1074 13.0938 20.1074C12.793 20.1074 12.5155 20.0698 12.2612 19.9946C12.007 19.9194 11.7778 19.7995 11.5737 19.6348C11.3732 19.4665 11.2013 19.248 11.0581 18.9795C10.9149 18.7109 10.8057 18.3851 10.7305 18.002C10.6553 17.6188 10.6177 17.1712 10.6177 16.6592V15.4668C10.6177 14.8258 10.675 14.2887 10.7896 13.8555C10.9077 13.4222 11.0742 13.0749 11.2891 12.8135C11.5039 12.5485 11.7617 12.3587 12.0625 12.2441C12.3669 12.1296 12.707 12.0723 13.083 12.0723C13.3874 12.0723 13.6667 12.1099 13.9209 12.1851C14.1787 12.2567 14.4079 12.373 14.6084 12.5342C14.8089 12.6917 14.979 12.903 15.1187 13.168C15.2619 13.4294 15.3711 13.7498 15.4463 14.1294C15.5215 14.509 15.5591 14.9548 15.5591 15.4668ZM14.5601 16.8203V15.3003C14.5601 14.9494 14.5386 14.6414 14.4956 14.3765C14.4562 14.1079 14.3971 13.8787 14.3184 13.689C14.2396 13.4992 14.1393 13.3452 14.0176 13.2271C13.8994 13.1089 13.7616 13.0229 13.604 12.9692C13.45 12.9119 13.2764 12.8833 13.083 12.8833C12.8467 12.8833 12.6372 12.9281 12.4546 13.0176C12.272 13.1035 12.118 13.2414 11.9927 13.4312C11.8709 13.6209 11.7778 13.8698 11.7134 14.1777C11.6489 14.4857 11.6167 14.8599 11.6167 15.3003V16.8203C11.6167 17.1712 11.6364 17.481 11.6758 17.7495C11.7188 18.0181 11.7814 18.2508 11.8638 18.4478C11.9461 18.6411 12.0464 18.8005 12.1646 18.9258C12.2827 19.0511 12.4188 19.1442 12.5728 19.2051C12.7303 19.2624 12.904 19.291 13.0938 19.291C13.3372 19.291 13.5503 19.2445 13.7329 19.1514C13.9155 19.0583 14.0677 18.9132 14.1895 18.7163C14.3148 18.5158 14.4079 18.2598 14.4688 17.9482C14.5296 17.6331 14.5601 17.2572 14.5601 16.8203Z" fill="white"/>
<path d="M44.5864 19.1836V20H39.4678V19.2856L42.0298 16.4336C42.3449 16.0827 42.5884 15.7855 42.7603 15.542C42.9357 15.2949 43.0575 15.0747 43.1255 14.8813C43.1971 14.6844 43.2329 14.4839 43.2329 14.2798C43.2329 14.022 43.1792 13.7892 43.0718 13.5815C42.9679 13.3703 42.814 13.202 42.6099 13.0767C42.4058 12.9513 42.1587 12.8887 41.8687 12.8887C41.5213 12.8887 41.2313 12.9567 40.9985 13.0928C40.7694 13.2253 40.5975 13.4115 40.4829 13.6514C40.3683 13.8913 40.311 14.167 40.311 14.4785H39.3174C39.3174 14.0381 39.4141 13.6353 39.6074 13.27C39.8008 12.9048 40.0872 12.6147 40.4668 12.3999C40.8464 12.1815 41.3136 12.0723 41.8687 12.0723C42.3628 12.0723 42.7853 12.16 43.1362 12.3354C43.4871 12.5073 43.7557 12.7508 43.9419 13.0659C44.1317 13.3774 44.2266 13.7427 44.2266 14.1616C44.2266 14.3908 44.1872 14.6235 44.1084 14.8599C44.0332 15.0926 43.9276 15.3254 43.7915 15.5581C43.659 15.7909 43.5033 16.02 43.3242 16.2456C43.1488 16.4712 42.9608 16.6932 42.7603 16.9116L40.6655 19.1836H44.5864ZM50.7041 12.1797V12.7383L47.4653 20H46.418L49.6514 12.9961H45.4189V12.1797H50.7041Z" fill="white"/>
<path d="M80.9126 15.6011H81.6216C81.9689 15.6011 82.2554 15.5438 82.481 15.4292C82.7101 15.311 82.8802 15.1517 82.9912 14.9512C83.1058 14.7471 83.1631 14.5179 83.1631 14.2637C83.1631 13.9629 83.113 13.7104 83.0127 13.5063C82.9124 13.3022 82.762 13.1483 82.5615 13.0444C82.361 12.9406 82.1068 12.8887 81.7988 12.8887C81.5195 12.8887 81.2725 12.9442 81.0576 13.0552C80.8464 13.1626 80.6799 13.3166 80.5581 13.5171C80.4399 13.7176 80.3809 13.9539 80.3809 14.2261H79.3872C79.3872 13.8286 79.4875 13.467 79.688 13.1411C79.8885 12.8153 80.1696 12.5557 80.5312 12.3623C80.8965 12.1689 81.319 12.0723 81.7988 12.0723C82.2715 12.0723 82.6851 12.1564 83.0396 12.3247C83.394 12.4894 83.6698 12.7365 83.8667 13.0659C84.0636 13.3918 84.1621 13.7982 84.1621 14.2852C84.1621 14.4821 84.1156 14.6934 84.0225 14.9189C83.9329 15.141 83.7915 15.3486 83.5981 15.542C83.4084 15.7354 83.1613 15.8947 82.8569 16.02C82.5526 16.1418 82.1873 16.2026 81.7612 16.2026H80.9126V15.6011ZM80.9126 16.4175V15.8213H81.7612C82.259 15.8213 82.6707 15.8804 82.9966 15.9985C83.3224 16.1167 83.5785 16.2743 83.7646 16.4712C83.9544 16.6681 84.0869 16.8848 84.1621 17.1211C84.2409 17.3538 84.2803 17.5866 84.2803 17.8193C84.2803 18.1846 84.2176 18.5086 84.0923 18.7915C83.9705 19.0744 83.7969 19.3143 83.5713 19.5112C83.3493 19.7082 83.0879 19.8568 82.7871 19.957C82.4863 20.0573 82.1587 20.1074 81.8042 20.1074C81.464 20.1074 81.1436 20.0591 80.8428 19.9624C80.5456 19.8657 80.2824 19.7261 80.0532 19.5435C79.8241 19.3573 79.645 19.1299 79.5161 18.8613C79.3872 18.5892 79.3228 18.2795 79.3228 17.9321H80.3164C80.3164 18.2043 80.3755 18.4424 80.4937 18.6465C80.6154 18.8506 80.7873 19.0099 81.0093 19.1245C81.2349 19.2355 81.4998 19.291 81.8042 19.291C82.1086 19.291 82.37 19.2391 82.5884 19.1353C82.8104 19.0278 82.9805 18.8667 83.0986 18.6519C83.2204 18.437 83.2812 18.1667 83.2812 17.8408C83.2812 17.515 83.2132 17.2482 83.0771 17.0405C82.9411 16.8293 82.7477 16.6735 82.4971 16.5732C82.25 16.4694 81.9582 16.4175 81.6216 16.4175H80.9126ZM87.1001 15.6011H87.8091C88.1564 15.6011 88.4429 15.5438 88.6685 15.4292C88.8976 15.311 89.0677 15.1517 89.1787 14.9512C89.2933 14.7471 89.3506 14.5179 89.3506 14.2637C89.3506 13.9629 89.3005 13.7104 89.2002 13.5063C89.0999 13.3022 88.9495 13.1483 88.749 13.0444C88.5485 12.9406 88.2943 12.8887 87.9863 12.8887C87.707 12.8887 87.46 12.9442 87.2451 13.0552C87.0339 13.1626 86.8674 13.3166 86.7456 13.5171C86.6274 13.7176 86.5684 13.9539 86.5684 14.2261H85.5747C85.5747 13.8286 85.675 13.467 85.8755 13.1411C86.076 12.8153 86.3571 12.5557 86.7188 12.3623C87.084 12.1689 87.5065 12.0723 87.9863 12.0723C88.459 12.0723 88.8726 12.1564 89.2271 12.3247C89.5815 12.4894 89.8573 12.7365 90.0542 13.0659C90.2511 13.3918 90.3496 13.7982 90.3496 14.2852C90.3496 14.4821 90.3031 14.6934 90.21 14.9189C90.1204 15.141 89.979 15.3486 89.7856 15.542C89.5959 15.7354 89.3488 15.8947 89.0444 16.02C88.7401 16.1418 88.3748 16.2026 87.9487 16.2026H87.1001V15.6011ZM87.1001 16.4175V15.8213H87.9487C88.4465 15.8213 88.8582 15.8804 89.1841 15.9985C89.5099 16.1167 89.766 16.2743 89.9521 16.4712C90.1419 16.6681 90.2744 16.8848 90.3496 17.1211C90.4284 17.3538 90.4678 17.5866 90.4678 17.8193C90.4678 18.1846 90.4051 18.5086 90.2798 18.7915C90.158 19.0744 89.9844 19.3143 89.7588 19.5112C89.5368 19.7082 89.2754 19.8568 88.9746 19.957C88.6738 20.0573 88.3462 20.1074 87.9917 20.1074C87.6515 20.1074 87.3311 20.0591 87.0303 19.9624C86.7331 19.8657 86.4699 19.7261 86.2407 19.5435C86.0116 19.3573 85.8325 19.1299 85.7036 18.8613C85.5747 18.5892 85.5103 18.2795 85.5103 17.9321H86.5039C86.5039 18.2043 86.563 18.4424 86.6812 18.6465C86.8029 18.8506 86.9748 19.0099 87.1968 19.1245C87.4224 19.2355 87.6873 19.291 87.9917 19.291C88.2961 19.291 88.5575 19.2391 88.7759 19.1353C88.9979 19.0278 89.168 18.8667 89.2861 18.6519C89.4079 18.437 89.4688 18.1667 89.4688 17.8408C89.4688 17.515 89.4007 17.2482 89.2646 17.0405C89.1286 16.8293 88.9352 16.6735 88.6846 16.5732C88.4375 16.4694 88.1457 16.4175 87.8091 16.4175H87.1001Z" fill="white"/>
<path d="M113.913 15.6011H114.622C114.969 15.6011 115.255 15.5438 115.481 15.4292C115.71 15.311 115.88 15.1517 115.991 14.9512C116.106 14.7471 116.163 14.5179 116.163 14.2637C116.163 13.9629 116.113 13.7104 116.013 13.5063C115.912 13.3022 115.762 13.1483 115.562 13.0444C115.361 12.9406 115.107 12.8887 114.799 12.8887C114.52 12.8887 114.272 12.9442 114.058 13.0552C113.846 13.1626 113.68 13.3166 113.558 13.5171C113.44 13.7176 113.381 13.9539 113.381 14.2261H112.387C112.387 13.8286 112.487 13.467 112.688 13.1411C112.889 12.8153 113.17 12.5557 113.531 12.3623C113.896 12.1689 114.319 12.0723 114.799 12.0723C115.271 12.0723 115.685 12.1564 116.04 12.3247C116.394 12.4894 116.67 12.7365 116.867 13.0659C117.064 13.3918 117.162 13.7982 117.162 14.2852C117.162 14.4821 117.116 14.6934 117.022 14.9189C116.933 15.141 116.792 15.3486 116.598 15.542C116.408 15.7354 116.161 15.8947 115.857 16.02C115.553 16.1418 115.187 16.2026 114.761 16.2026H113.913V15.6011ZM113.913 16.4175V15.8213H114.761C115.259 15.8213 115.671 15.8804 115.997 15.9985C116.322 16.1167 116.578 16.2743 116.765 16.4712C116.954 16.6681 117.087 16.8848 117.162 17.1211C117.241 17.3538 117.28 17.5866 117.28 17.8193C117.28 18.1846 117.218 18.5086 117.092 18.7915C116.971 19.0744 116.797 19.3143 116.571 19.5112C116.349 19.7082 116.088 19.8568 115.787 19.957C115.486 20.0573 115.159 20.1074 114.804 20.1074C114.464 20.1074 114.144 20.0591 113.843 19.9624C113.546 19.8657 113.282 19.7261 113.053 19.5435C112.824 19.3573 112.645 19.1299 112.516 18.8613C112.387 18.5892 112.323 18.2795 112.323 17.9321H113.316C113.316 18.2043 113.375 18.4424 113.494 18.6465C113.615 18.8506 113.787 19.0099 114.009 19.1245C114.235 19.2355 114.5 19.291 114.804 19.291C115.109 19.291 115.37 19.2391 115.588 19.1353C115.81 19.0278 115.98 18.8667 116.099 18.6519C116.22 18.437 116.281 18.1667 116.281 17.8408C116.281 17.515 116.213 17.2482 116.077 17.0405C115.941 16.8293 115.748 16.6735 115.497 16.5732C115.25 16.4694 114.958 16.4175 114.622 16.4175H113.913ZM123.704 12.1797V12.7383L120.465 20H119.418L122.651 12.9961H118.419V12.1797H123.704Z" fill="white"/>
<path d="M4 5C4 2.23858 6.23858 0 9 0H45V10H9C6.23858 10 4 7.76142 4 5Z" fill="#FFE15D"/>
<path d="M121 5C121 7.76142 118.761 10 116 10L85 10V0L116 0C118.761 0 121 2.23858 121 5Z" fill="#DC3535"/>
<rect x="45" width="40" height="10" fill="#F49D1A"/>
</svg>
