<svg width="121" height="24" viewBox="0 0 121 24" fill="none" xmlns="http://www.w3.org/2000/svg">
<path d="M4 5C4 2.23858 6.23858 0 9 0H45V10H9C6.23858 10 4 7.76142 4 5Z" fill="#FAD6A5"/>
<path d="M121 5C121 7.76142 118.761 10 116 10L85 10V0L116 0C118.761 0 121 2.23858 121 5Z" fill="#61764B"/>
<path d="M12.4653 16.4668V17.6592C12.4653 18.3001 12.408 18.8408 12.2935 19.2812C12.1789 19.7217 12.0142 20.0762 11.7993 20.3447C11.5845 20.6133 11.3249 20.8084 11.0205 20.9302C10.7197 21.0483 10.3796 21.1074 10 21.1074C9.69922 21.1074 9.42171 21.0698 9.16748 20.9946C8.91325 20.9194 8.68408 20.7995 8.47998 20.6348C8.27946 20.4665 8.10758 20.248 7.96436 19.9795C7.82113 19.7109 7.71191 19.3851 7.63672 19.002C7.56152 18.6188 7.52393 18.1712 7.52393 17.6592V16.4668C7.52393 15.8258 7.58122 15.2887 7.6958 14.8555C7.81396 14.4222 7.98047 14.0749 8.19531 13.8135C8.41016 13.5485 8.66797 13.3587 8.96875 13.2441C9.27311 13.1296 9.61328 13.0723 9.98926 13.0723C10.2936 13.0723 10.5729 13.1099 10.8271 13.1851C11.085 13.2567 11.3141 13.373 11.5146 13.5342C11.7152 13.6917 11.8853 13.903 12.0249 14.168C12.1681 14.4294 12.2773 14.7498 12.3525 15.1294C12.4277 15.509 12.4653 15.9548 12.4653 16.4668ZM11.4663 17.8203V16.3003C11.4663 15.9494 11.4448 15.6414 11.4019 15.3765C11.3625 15.1079 11.3034 14.8787 11.2246 14.689C11.1458 14.4992 11.0456 14.3452 10.9238 14.2271C10.8057 14.1089 10.6678 14.0229 10.5103 13.9692C10.3563 13.9119 10.1826 13.8833 9.98926 13.8833C9.75293 13.8833 9.54346 13.9281 9.36084 14.0176C9.17822 14.1035 9.02425 14.2414 8.89893 14.4312C8.77718 14.6209 8.68408 14.8698 8.61963 15.1777C8.55518 15.4857 8.52295 15.8599 8.52295 16.3003V17.8203C8.52295 18.1712 8.54264 18.481 8.58203 18.7495C8.625 19.0181 8.68766 19.2508 8.77002 19.4478C8.85238 19.6411 8.95264 19.8005 9.0708 19.9258C9.18896 20.0511 9.32503 20.1442 9.479 20.2051C9.63656 20.2624 9.81022 20.291 10 20.291C10.2435 20.291 10.4565 20.2445 10.6392 20.1514C10.8218 20.0583 10.974 19.9132 11.0957 19.7163C11.221 19.5158 11.3141 19.2598 11.375 18.9482C11.4359 18.6331 11.4663 18.2572 11.4663 17.8203Z" fill="white"/>
<path d="M43.2114 17.2671V18.0835H40.5903V17.2671H43.2114ZM45.5264 16.6011H46.2354C46.5827 16.6011 46.8691 16.5438 47.0947 16.4292C47.3239 16.311 47.494 16.1517 47.605 15.9512C47.7196 15.7471 47.7769 15.5179 47.7769 15.2637C47.7769 14.9629 47.7267 14.7104 47.6265 14.5063C47.5262 14.3022 47.3758 14.1483 47.1753 14.0444C46.9748 13.9406 46.7205 13.8887 46.4126 13.8887C46.1333 13.8887 45.8862 13.9442 45.6714 14.0552C45.4601 14.1626 45.2936 14.3166 45.1719 14.5171C45.0537 14.7176 44.9946 14.9539 44.9946 15.2261H44.001C44.001 14.8286 44.1012 14.467 44.3018 14.1411C44.5023 13.8153 44.7834 13.5557 45.145 13.3623C45.5103 13.1689 45.9328 13.0723 46.4126 13.0723C46.8853 13.0723 47.2988 13.1564 47.6533 13.3247C48.0078 13.4894 48.2835 13.7365 48.4805 14.0659C48.6774 14.3918 48.7759 14.7982 48.7759 15.2852C48.7759 15.4821 48.7293 15.6934 48.6362 15.9189C48.5467 16.141 48.4053 16.3486 48.2119 16.542C48.0221 16.7354 47.7751 16.8947 47.4707 17.02C47.1663 17.1418 46.8011 17.2026 46.375 17.2026H45.5264V16.6011ZM45.5264 17.4175V16.8213H46.375C46.8727 16.8213 47.2845 16.8804 47.6104 16.9985C47.9362 17.1167 48.1922 17.2743 48.3784 17.4712C48.5682 17.6681 48.7007 17.8848 48.7759 18.1211C48.8547 18.3538 48.894 18.5866 48.894 18.8193C48.894 19.1846 48.8314 19.5086 48.7061 19.7915C48.5843 20.0744 48.4106 20.3143 48.1851 20.5112C47.9631 20.7082 47.7017 20.8568 47.4009 20.957C47.1001 21.0573 46.7725 21.1074 46.418 21.1074C46.0778 21.1074 45.7573 21.0591 45.4565 20.9624C45.1593 20.8657 44.8962 20.7261 44.667 20.5435C44.4378 20.3573 44.2588 20.1299 44.1299 19.8613C44.001 19.5892 43.9365 19.2795 43.9365 18.9321H44.9302C44.9302 19.2043 44.9893 19.4424 45.1074 19.6465C45.2292 19.8506 45.401 20.0099 45.623 20.1245C45.8486 20.2355 46.1136 20.291 46.418 20.291C46.7223 20.291 46.9837 20.2391 47.2021 20.1353C47.4242 20.0278 47.5942 19.8667 47.7124 19.6519C47.8341 19.437 47.895 19.1667 47.895 18.8408C47.895 18.515 47.827 18.2482 47.6909 18.0405C47.5549 17.8293 47.3615 17.6735 47.1108 17.5732C46.8638 17.4694 46.5719 17.4175 46.2354 17.4175H45.5264Z" fill="white"/>
<path d="M83.2114 17.2671V18.0835H80.5903V17.2671H83.2114ZM87.8896 13.1689H87.9756V14.0122H87.8896C87.3633 14.0122 86.9229 14.0981 86.5684 14.27C86.2139 14.4383 85.9328 14.6657 85.7251 14.9521C85.5174 15.235 85.367 15.5537 85.2739 15.9082C85.1844 16.2627 85.1396 16.6226 85.1396 16.9878V18.1372C85.1396 18.4845 85.1808 18.7925 85.2632 19.061C85.3455 19.326 85.4583 19.5498 85.6016 19.7324C85.7448 19.915 85.9059 20.0529 86.085 20.146C86.2676 20.2391 86.4574 20.2856 86.6543 20.2856C86.8835 20.2856 87.0876 20.2427 87.2666 20.1567C87.4456 20.0672 87.596 19.9437 87.7178 19.7861C87.8431 19.625 87.938 19.4352 88.0024 19.2168C88.0669 18.9984 88.0991 18.7585 88.0991 18.4971C88.0991 18.2643 88.0705 18.0405 88.0132 17.8257C87.9559 17.6073 87.8682 17.4139 87.75 17.2456C87.6318 17.0737 87.4832 16.9395 87.3042 16.8428C87.1287 16.7425 86.9193 16.6924 86.6758 16.6924C86.4001 16.6924 86.1423 16.7604 85.9023 16.8965C85.666 17.029 85.4709 17.2044 85.3169 17.4229C85.1665 17.6377 85.0806 17.8722 85.0591 18.1265L84.5327 18.1211C84.5828 17.7201 84.6759 17.3781 84.812 17.0952C84.9517 16.8088 85.1235 16.576 85.3276 16.397C85.5353 16.2144 85.7663 16.0819 86.0205 15.9995C86.2783 15.9136 86.5505 15.8706 86.8369 15.8706C87.2272 15.8706 87.5638 15.944 87.8467 16.0908C88.1296 16.2376 88.3623 16.4346 88.5449 16.6816C88.7275 16.9251 88.8618 17.2008 88.9478 17.5088C89.0373 17.8132 89.082 18.1265 89.082 18.4487C89.082 18.8175 89.0301 19.1631 88.9263 19.4854C88.8224 19.8076 88.6667 20.0905 88.459 20.334C88.2549 20.5775 88.0024 20.7673 87.7017 20.9033C87.4009 21.0394 87.0518 21.1074 86.6543 21.1074C86.2318 21.1074 85.863 21.0215 85.5479 20.8496C85.2327 20.6742 84.9714 20.4414 84.7637 20.1514C84.556 19.8613 84.4002 19.5391 84.2964 19.1846C84.1925 18.8301 84.1406 18.4702 84.1406 18.105V17.6377C84.1406 17.0863 84.1961 16.5456 84.3071 16.0156C84.4181 15.4857 84.6097 15.0059 84.8818 14.5762C85.1576 14.1465 85.5389 13.8045 86.0259 13.5503C86.5129 13.2961 87.1341 13.1689 87.8896 13.1689Z" fill="white"/>
<rect x="45" width="40" height="10" fill="#CFB997"/>
</svg>
