<svg width="225" height="21" viewBox="0 0 225 21" fill="none" xmlns="http://www.w3.org/2000/svg">
<path d="M14.3253 19.332V20H10.1373V19.4155L12.2335 17.082C12.4913 16.7949 12.6905 16.5518 12.8311 16.3525C12.9747 16.1504 13.0743 15.9702 13.1299 15.812C13.1885 15.6509 13.2178 15.4868 13.2178 15.3198C13.2178 15.1089 13.1739 14.9185 13.086 14.7485C13.001 14.5757 12.8751 14.438 12.7081 14.3354C12.5411 14.2329 12.3389 14.1816 12.1016 14.1816C11.8174 14.1816 11.5801 14.2373 11.3897 14.3486C11.2022 14.457 11.0616 14.6094 10.9678 14.8057C10.8741 15.002 10.8272 15.2275 10.8272 15.4824H10.0142C10.0142 15.1221 10.0933 14.7925 10.2515 14.4937C10.4097 14.1948 10.6441 13.9575 10.9546 13.7817C11.2652 13.603 11.6475 13.5137 12.1016 13.5137C12.5059 13.5137 12.8516 13.5854 13.1387 13.729C13.4258 13.8696 13.6456 14.0688 13.7979 14.3267C13.9532 14.5815 14.0308 14.8804 14.0308 15.2231C14.0308 15.4106 13.9986 15.6011 13.9341 15.7944C13.8726 15.9849 13.7862 16.1753 13.6749 16.3657C13.5665 16.5562 13.439 16.7437 13.2925 16.9282C13.149 17.1128 12.9952 17.2944 12.8311 17.4731L11.1172 19.332H14.3253Z" fill="white"/>
<path d="M33.2071 17.8467V18.5146H28.5841V18.0356L31.4493 13.6016H32.1129L31.401 14.8848L29.5069 17.8467H33.2071ZM32.315 13.6016V20H31.502V13.6016H32.315Z" fill="white"/>
<path d="M47.4442 13.5928H47.5145V14.2827H47.4442C47.0135 14.2827 46.6532 14.353 46.3631 14.4937C46.0731 14.6313 45.8431 14.8174 45.6732 15.0518C45.5033 15.2832 45.3802 15.5439 45.304 15.834C45.2308 16.124 45.1942 16.4185 45.1942 16.7173V17.6577C45.1942 17.9419 45.2279 18.1938 45.2953 18.4136C45.3626 18.6304 45.4549 18.8135 45.5721 18.9629C45.6893 19.1123 45.8211 19.2251 45.9676 19.3013C46.117 19.3774 46.2723 19.4155 46.4334 19.4155C46.6209 19.4155 46.7879 19.3804 46.9344 19.3101C47.0809 19.2368 47.2039 19.1357 47.3036 19.0068C47.4061 18.875 47.4837 18.7197 47.5365 18.541C47.5892 18.3623 47.6156 18.166 47.6156 17.9521C47.6156 17.7617 47.5921 17.5786 47.5453 17.4028C47.4984 17.2241 47.4266 17.0659 47.3299 16.9282C47.2332 16.7876 47.1117 16.6777 46.9652 16.5986C46.8216 16.5166 46.6502 16.4756 46.451 16.4756C46.2254 16.4756 46.0145 16.5312 45.8182 16.6426C45.6248 16.751 45.4652 16.8945 45.3392 17.0732C45.2162 17.249 45.1458 17.4409 45.1283 17.6489L44.6976 17.6445C44.7386 17.3164 44.8148 17.0366 44.9261 16.8052C45.0404 16.5708 45.181 16.3804 45.348 16.2339C45.5179 16.0845 45.7069 15.9761 45.9149 15.9087C46.1258 15.8384 46.3485 15.8032 46.5828 15.8032C46.9022 15.8032 47.1776 15.8633 47.409 15.9834C47.6405 16.1035 47.8309 16.2646 47.9803 16.4668C48.1297 16.666 48.2396 16.8916 48.3099 17.1436C48.3831 17.3926 48.4198 17.6489 48.4198 17.9126C48.4198 18.2144 48.3773 18.4971 48.2923 18.7607C48.2074 19.0244 48.0799 19.2559 47.91 19.4551C47.743 19.6543 47.5365 19.8096 47.2904 19.9209C47.0443 20.0322 46.7586 20.0879 46.4334 20.0879C46.0877 20.0879 45.786 20.0176 45.5282 19.877C45.2703 19.7334 45.0565 19.543 44.8866 19.3057C44.7166 19.0684 44.5892 18.8047 44.5042 18.5146C44.4193 18.2246 44.3768 17.9302 44.3768 17.6313V17.249C44.3768 16.7979 44.4222 16.3555 44.513 15.9219C44.6038 15.4883 44.7606 15.0957 44.9832 14.7441C45.2088 14.3926 45.5208 14.1128 45.9193 13.9048C46.3177 13.6968 46.826 13.5928 47.4442 13.5928Z" fill="white"/>
<path d="M64.9023 18.2686C64.9023 18.6582 64.8115 18.9893 64.6298 19.2617C64.4511 19.5312 64.2079 19.7363 63.9003 19.877C63.5956 20.0176 63.2514 20.0879 62.8676 20.0879C62.4838 20.0879 62.1381 20.0176 61.8305 19.877C61.5229 19.7363 61.2797 19.5312 61.101 19.2617C60.9223 18.9893 60.8329 18.6582 60.8329 18.2686C60.8329 18.0137 60.8813 17.7808 60.978 17.5698C61.0776 17.356 61.2167 17.1699 61.3954 17.0117C61.5771 16.8535 61.791 16.7319 62.037 16.647C62.2861 16.5591 62.56 16.5151 62.8588 16.5151C63.2514 16.5151 63.6015 16.5913 63.9091 16.7437C64.2167 16.8931 64.4584 17.0996 64.6342 17.3633C64.8129 17.627 64.9023 17.9287 64.9023 18.2686ZM64.0849 18.251C64.0849 18.0137 64.0336 17.8042 63.9311 17.6226C63.8285 17.438 63.685 17.2944 63.5004 17.1919C63.3159 17.0894 63.102 17.0381 62.8588 17.0381C62.6098 17.0381 62.3945 17.0894 62.2128 17.1919C62.0341 17.2944 61.895 17.438 61.7953 17.6226C61.6957 17.8042 61.6459 18.0137 61.6459 18.251C61.6459 18.4971 61.6943 18.708 61.791 18.8838C61.8906 19.0566 62.0312 19.1899 62.2128 19.2837C62.3974 19.3745 62.6157 19.4199 62.8676 19.4199C63.1196 19.4199 63.3364 19.3745 63.518 19.2837C63.6996 19.1899 63.8388 19.0566 63.9355 18.8838C64.0351 18.708 64.0849 18.4971 64.0849 18.251ZM64.7529 15.2671C64.7529 15.5776 64.6708 15.8574 64.5068 16.1064C64.3427 16.3555 64.1186 16.5518 63.8344 16.6953C63.5502 16.8389 63.228 16.9106 62.8676 16.9106C62.5014 16.9106 62.1747 16.8389 61.8876 16.6953C61.6035 16.5518 61.3808 16.3555 61.2197 16.1064C61.0585 15.8574 60.978 15.5776 60.978 15.2671C60.978 14.895 61.0585 14.5786 61.2197 14.3179C61.3837 14.0571 61.6078 13.8579 61.892 13.7202C62.1762 13.5825 62.4999 13.5137 62.8632 13.5137C63.2294 13.5137 63.5546 13.5825 63.8388 13.7202C64.123 13.8579 64.3456 14.0571 64.5068 14.3179C64.6708 14.5786 64.7529 14.895 64.7529 15.2671ZM63.9399 15.2803C63.9399 15.0664 63.8945 14.8774 63.8036 14.7134C63.7128 14.5493 63.5868 14.4204 63.4257 14.3267C63.2646 14.23 63.0771 14.1816 62.8632 14.1816C62.6493 14.1816 62.4618 14.2271 62.3007 14.3179C62.1425 14.4058 62.018 14.5317 61.9272 14.6958C61.8393 14.8599 61.7953 15.0547 61.7953 15.2803C61.7953 15.5 61.8393 15.6919 61.9272 15.856C62.018 16.02 62.144 16.1475 62.3051 16.2383C62.4662 16.3291 62.6537 16.3745 62.8676 16.3745C63.0815 16.3745 63.2675 16.3291 63.4257 16.2383C63.5868 16.1475 63.7128 16.02 63.8036 15.856C63.8945 15.6919 63.9399 15.5 63.9399 15.2803Z" fill="white"/>
<path d="M77.5528 13.5664V20H76.7398V14.5815L75.1007 15.1792V14.4453L77.4254 13.5664H77.5528ZM83.96 16.291V17.2666C83.96 17.791 83.9132 18.2334 83.8194 18.5938C83.7257 18.9541 83.5909 19.2441 83.4151 19.4639C83.2393 19.6836 83.0269 19.8433 82.7779 19.9429C82.5318 20.0396 82.2535 20.0879 81.943 20.0879C81.6969 20.0879 81.4698 20.0571 81.2618 19.9956C81.0538 19.9341 80.8663 19.8359 80.6993 19.7012C80.5352 19.5635 80.3946 19.3848 80.2774 19.165C80.1602 18.9453 80.0709 18.6787 80.0094 18.3652C79.9478 18.0518 79.9171 17.6855 79.9171 17.2666V16.291C79.9171 15.7666 79.964 15.3271 80.0577 14.9727C80.1544 14.6182 80.2906 14.334 80.4664 14.1201C80.6422 13.9033 80.8531 13.748 81.0992 13.6543C81.3482 13.5605 81.6266 13.5137 81.9342 13.5137C82.1832 13.5137 82.4117 13.5444 82.6197 13.606C82.8307 13.6646 83.0182 13.7598 83.1822 13.8916C83.3463 14.0205 83.4854 14.1934 83.5997 14.4102C83.7169 14.624 83.8062 14.8862 83.8678 15.1968C83.9293 15.5073 83.96 15.8721 83.96 16.291ZM83.1427 17.3984V16.1548C83.1427 15.8677 83.1251 15.6157 83.0899 15.3989C83.0577 15.1792 83.0094 14.9917 82.9449 14.8364C82.8805 14.6812 82.7984 14.5552 82.6988 14.4585C82.6021 14.3618 82.4893 14.2915 82.3604 14.2476C82.2345 14.2007 82.0924 14.1772 81.9342 14.1772C81.7408 14.1772 81.5694 14.2139 81.42 14.2871C81.2706 14.3574 81.1446 14.4702 81.0421 14.6255C80.9425 14.7808 80.8663 14.9844 80.8136 15.2363C80.7608 15.4883 80.7345 15.7944 80.7345 16.1548V17.3984C80.7345 17.6855 80.7506 17.939 80.7828 18.1587C80.818 18.3784 80.8692 18.5688 80.9366 18.73C81.004 18.8882 81.086 19.0186 81.1827 19.1211C81.2794 19.2236 81.3907 19.2998 81.5167 19.3496C81.6456 19.3965 81.7877 19.4199 81.943 19.4199C82.1422 19.4199 82.3165 19.3818 82.4659 19.3057C82.6153 19.2295 82.7398 19.1108 82.8394 18.9497C82.942 18.7856 83.0182 18.5762 83.068 18.3213C83.1178 18.0635 83.1427 17.7559 83.1427 17.3984Z" fill="white"/>
<path d="M94.097 13.5664V20H93.284V14.5815L91.6448 15.1792V14.4453L93.9695 13.5664H94.097ZM97.5159 16.9546L96.8655 16.7876L97.1863 13.6016H100.469V14.353H97.8763L97.6829 16.0933C97.8001 16.0259 97.9481 15.9629 98.1268 15.9043C98.3084 15.8457 98.5164 15.8164 98.7508 15.8164C99.0467 15.8164 99.3118 15.8677 99.5462 15.9702C99.7806 16.0698 99.9798 16.2134 100.144 16.4009C100.311 16.5884 100.438 16.814 100.526 17.0776C100.614 17.3413 100.658 17.6357 100.658 17.9609C100.658 18.2686 100.616 18.5513 100.531 18.8091C100.449 19.0669 100.324 19.2925 100.157 19.4858C99.99 19.6763 99.7791 19.8242 99.5242 19.9297C99.2723 20.0352 98.9749 20.0879 98.6321 20.0879C98.3743 20.0879 98.1297 20.0527 97.8983 19.9824C97.6697 19.9092 97.4647 19.7993 97.283 19.6528C97.1043 19.5034 96.9578 19.3188 96.8436 19.0991C96.7322 18.8765 96.6619 18.6157 96.6326 18.3169H97.4061C97.4412 18.5571 97.5115 18.7593 97.617 18.9233C97.7225 19.0874 97.8602 19.2119 98.0301 19.2969C98.2029 19.3789 98.4036 19.4199 98.6321 19.4199C98.8255 19.4199 98.9969 19.3862 99.1463 19.3188C99.2957 19.2515 99.4217 19.1548 99.5242 19.0288C99.6268 18.9028 99.7044 18.7505 99.7571 18.5718C99.8128 18.3931 99.8406 18.1924 99.8406 17.9697C99.8406 17.7676 99.8128 17.5801 99.7571 17.4072C99.7015 17.2344 99.618 17.0835 99.5066 16.9546C99.3983 16.8257 99.2649 16.7261 99.1067 16.6558C98.9485 16.5825 98.7669 16.5459 98.5618 16.5459C98.2894 16.5459 98.0828 16.5825 97.9422 16.6558C97.8045 16.729 97.6624 16.8286 97.5159 16.9546Z" fill="white"/>
<path d="M112.162 19.332V20H107.974V19.4155L110.07 17.082C110.328 16.7949 110.527 16.5518 110.667 16.3525C110.811 16.1504 110.911 15.9702 110.966 15.812C111.025 15.6509 111.054 15.4868 111.054 15.3198C111.054 15.1089 111.01 14.9185 110.922 14.7485C110.837 14.5757 110.711 14.438 110.544 14.3354C110.377 14.2329 110.175 14.1816 109.938 14.1816C109.654 14.1816 109.416 14.2373 109.226 14.3486C109.039 14.457 108.898 14.6094 108.804 14.8057C108.71 15.002 108.664 15.2275 108.664 15.4824H107.851C107.851 15.1221 107.93 14.7925 108.088 14.4937C108.246 14.1948 108.48 13.9575 108.791 13.7817C109.102 13.603 109.484 13.5137 109.938 13.5137C110.342 13.5137 110.688 13.5854 110.975 13.729C111.262 13.8696 111.482 14.0688 111.634 14.3267C111.79 14.5815 111.867 14.8804 111.867 15.2231C111.867 15.4106 111.835 15.6011 111.77 15.7944C111.709 15.9849 111.623 16.1753 111.511 16.3657C111.403 16.5562 111.275 16.7437 111.129 16.9282C110.985 17.1128 110.832 17.2944 110.667 17.4731L108.954 19.332H112.162ZM117.048 16.291V17.2666C117.048 17.791 117.001 18.2334 116.908 18.5938C116.814 18.9541 116.679 19.2441 116.503 19.4639C116.328 19.6836 116.115 19.8433 115.866 19.9429C115.62 20.0396 115.342 20.0879 115.031 20.0879C114.785 20.0879 114.558 20.0571 114.35 19.9956C114.142 19.9341 113.955 19.8359 113.788 19.7012C113.623 19.5635 113.483 19.3848 113.366 19.165C113.248 18.9453 113.159 18.6787 113.098 18.3652C113.036 18.0518 113.005 17.6855 113.005 17.2666V16.291C113.005 15.7666 113.052 15.3271 113.146 14.9727C113.243 14.6182 113.379 14.334 113.555 14.1201C113.73 13.9033 113.941 13.748 114.187 13.6543C114.436 13.5605 114.715 13.5137 115.022 13.5137C115.271 13.5137 115.5 13.5444 115.708 13.606C115.919 13.6646 116.106 13.7598 116.27 13.8916C116.435 14.0205 116.574 14.1934 116.688 14.4102C116.805 14.624 116.894 14.8862 116.956 15.1968C117.018 15.5073 117.048 15.8721 117.048 16.291ZM116.231 17.3984V16.1548C116.231 15.8677 116.213 15.6157 116.178 15.3989C116.146 15.1792 116.098 14.9917 116.033 14.8364C115.969 14.6812 115.887 14.5552 115.787 14.4585C115.69 14.3618 115.578 14.2915 115.449 14.2476C115.323 14.2007 115.181 14.1772 115.022 14.1772C114.829 14.1772 114.658 14.2139 114.508 14.2871C114.359 14.3574 114.233 14.4702 114.13 14.6255C114.031 14.7808 113.955 14.9844 113.902 15.2363C113.849 15.4883 113.823 15.7944 113.823 16.1548V17.3984C113.823 17.6855 113.839 17.939 113.871 18.1587C113.906 18.3784 113.957 18.5688 114.025 18.73C114.092 18.8882 114.174 19.0186 114.271 19.1211C114.368 19.2236 114.479 19.2998 114.605 19.3496C114.734 19.3965 114.876 19.4199 115.031 19.4199C115.23 19.4199 115.405 19.3818 115.554 19.3057C115.704 19.2295 115.828 19.1108 115.928 18.9497C116.03 18.7856 116.106 18.5762 116.156 18.3213C116.206 18.0635 116.231 17.7559 116.231 17.3984Z" fill="white"/>
<path d="M128.338 19.332V20H124.15V19.4155L126.246 17.082C126.504 16.7949 126.703 16.5518 126.844 16.3525C126.988 16.1504 127.087 15.9702 127.143 15.812C127.201 15.6509 127.231 15.4868 127.231 15.3198C127.231 15.1089 127.187 14.9185 127.099 14.7485C127.014 14.5757 126.888 14.438 126.721 14.3354C126.554 14.2329 126.352 14.1816 126.114 14.1816C125.83 14.1816 125.593 14.2373 125.403 14.3486C125.215 14.457 125.074 14.6094 124.981 14.8057C124.887 15.002 124.84 15.2275 124.84 15.4824H124.027C124.027 15.1221 124.106 14.7925 124.264 14.4937C124.423 14.1948 124.657 13.9575 124.967 13.7817C125.278 13.603 125.66 13.5137 126.114 13.5137C126.519 13.5137 126.864 13.5854 127.152 13.729C127.439 13.8696 127.658 14.0688 127.811 14.3267C127.966 14.5815 128.044 14.8804 128.044 15.2231C128.044 15.4106 128.011 15.6011 127.947 15.7944C127.885 15.9849 127.799 16.1753 127.688 16.3657C127.579 16.5562 127.452 16.7437 127.305 16.9282C127.162 17.1128 127.008 17.2944 126.844 17.4731L125.13 19.332H128.338ZM130.237 16.9546L129.586 16.7876L129.907 13.6016H133.19V14.353H130.597L130.404 16.0933C130.521 16.0259 130.669 15.9629 130.847 15.9043C131.029 15.8457 131.237 15.8164 131.471 15.8164C131.767 15.8164 132.032 15.8677 132.267 15.9702C132.501 16.0698 132.7 16.2134 132.864 16.4009C133.031 16.5884 133.159 16.814 133.247 17.0776C133.335 17.3413 133.379 17.6357 133.379 17.9609C133.379 18.2686 133.336 18.5513 133.251 18.8091C133.169 19.0669 133.045 19.2925 132.878 19.4858C132.711 19.6763 132.5 19.8242 132.245 19.9297C131.993 20.0352 131.696 20.0879 131.353 20.0879C131.095 20.0879 130.85 20.0527 130.619 19.9824C130.39 19.9092 130.185 19.7993 130.004 19.6528C129.825 19.5034 129.678 19.3188 129.564 19.0991C129.453 18.8765 129.383 18.6157 129.353 18.3169H130.127C130.162 18.5571 130.232 18.7593 130.338 18.9233C130.443 19.0874 130.581 19.2119 130.751 19.2969C130.924 19.3789 131.124 19.4199 131.353 19.4199C131.546 19.4199 131.717 19.3862 131.867 19.3188C132.016 19.2515 132.142 19.1548 132.245 19.0288C132.347 18.9028 132.425 18.7505 132.478 18.5718C132.533 18.3931 132.561 18.1924 132.561 17.9697C132.561 17.7676 132.533 17.5801 132.478 17.4072C132.422 17.2344 132.339 17.0835 132.227 16.9546C132.119 16.8257 131.986 16.7261 131.827 16.6558C131.669 16.5825 131.488 16.5459 131.282 16.5459C131.01 16.5459 130.803 16.5825 130.663 16.6558C130.525 16.729 130.383 16.8286 130.237 16.9546Z" fill="white"/>
<path d="M141.876 16.4009H142.456C142.741 16.4009 142.975 16.354 143.16 16.2603C143.347 16.1636 143.486 16.0332 143.577 15.8691C143.671 15.7021 143.718 15.5146 143.718 15.3066C143.718 15.0605 143.677 14.854 143.595 14.687C143.513 14.52 143.39 14.394 143.226 14.3091C143.061 14.2241 142.853 14.1816 142.601 14.1816C142.373 14.1816 142.171 14.2271 141.995 14.3179C141.822 14.4058 141.686 14.5317 141.586 14.6958C141.49 14.8599 141.441 15.0532 141.441 15.2759H140.628C140.628 14.9507 140.71 14.6548 140.874 14.3882C141.039 14.1216 141.268 13.9092 141.564 13.751C141.863 13.5928 142.209 13.5137 142.601 13.5137C142.988 13.5137 143.327 13.5825 143.617 13.7202C143.907 13.855 144.132 14.0571 144.293 14.3267C144.455 14.5933 144.535 14.9258 144.535 15.3242C144.535 15.4854 144.497 15.6582 144.421 15.8428C144.348 16.0244 144.232 16.1943 144.074 16.3525C143.918 16.5107 143.716 16.6411 143.467 16.7437C143.218 16.8433 142.919 16.8931 142.571 16.8931H141.876V16.4009ZM141.876 17.0688V16.5811H142.571C142.978 16.5811 143.315 16.6294 143.581 16.7261C143.848 16.8228 144.058 16.9517 144.21 17.1128C144.365 17.2739 144.474 17.4512 144.535 17.6445C144.6 17.835 144.632 18.0254 144.632 18.2158C144.632 18.5146 144.581 18.7798 144.478 19.0112C144.378 19.2427 144.236 19.439 144.052 19.6001C143.87 19.7612 143.656 19.8828 143.41 19.9648C143.164 20.0469 142.896 20.0879 142.606 20.0879C142.328 20.0879 142.065 20.0483 141.819 19.9692C141.576 19.8901 141.361 19.7759 141.173 19.6265C140.986 19.4741 140.839 19.2881 140.734 19.0684C140.628 18.8457 140.576 18.5923 140.576 18.3081H141.389C141.389 18.5308 141.437 18.7256 141.534 18.8926C141.633 19.0596 141.774 19.1899 141.956 19.2837C142.14 19.3745 142.357 19.4199 142.606 19.4199C142.855 19.4199 143.069 19.3774 143.247 19.2925C143.429 19.2046 143.568 19.0728 143.665 18.897C143.765 18.7212 143.814 18.5 143.814 18.2334C143.814 17.9668 143.759 17.7485 143.647 17.5786C143.536 17.4058 143.378 17.2783 143.173 17.1963C142.971 17.1113 142.732 17.0688 142.456 17.0688H141.876ZM149.769 16.291V17.2666C149.769 17.791 149.722 18.2334 149.628 18.5938C149.535 18.9541 149.4 19.2441 149.224 19.4639C149.048 19.6836 148.836 19.8433 148.587 19.9429C148.341 20.0396 148.062 20.0879 147.752 20.0879C147.506 20.0879 147.279 20.0571 147.071 19.9956C146.863 19.9341 146.675 19.8359 146.508 19.7012C146.344 19.5635 146.204 19.3848 146.086 19.165C145.969 18.9453 145.88 18.6787 145.818 18.3652C145.757 18.0518 145.726 17.6855 145.726 17.2666V16.291C145.726 15.7666 145.773 15.3271 145.867 14.9727C145.963 14.6182 146.1 14.334 146.275 14.1201C146.451 13.9033 146.662 13.748 146.908 13.6543C147.157 13.5605 147.435 13.5137 147.743 13.5137C147.992 13.5137 148.221 13.5444 148.429 13.606C148.64 13.6646 148.827 13.7598 148.991 13.8916C149.155 14.0205 149.294 14.1934 149.409 14.4102C149.526 14.624 149.615 14.8862 149.677 15.1968C149.738 15.5073 149.769 15.8721 149.769 16.291ZM148.952 17.3984V16.1548C148.952 15.8677 148.934 15.6157 148.899 15.3989C148.867 15.1792 148.818 14.9917 148.754 14.8364C148.689 14.6812 148.607 14.5552 148.508 14.4585C148.411 14.3618 148.298 14.2915 148.169 14.2476C148.043 14.2007 147.901 14.1772 147.743 14.1772C147.55 14.1772 147.378 14.2139 147.229 14.2871C147.08 14.3574 146.954 14.4702 146.851 14.6255C146.751 14.7808 146.675 14.9844 146.622 15.2363C146.57 15.4883 146.543 15.7944 146.543 16.1548V17.3984C146.543 17.6855 146.56 17.939 146.592 18.1587C146.627 18.3784 146.678 18.5688 146.746 18.73C146.813 18.8882 146.895 19.0186 146.992 19.1211C147.088 19.2236 147.2 19.2998 147.326 19.3496C147.455 19.3965 147.597 19.4199 147.752 19.4199C147.951 19.4199 148.125 19.3818 148.275 19.3057C148.424 19.2295 148.549 19.1108 148.648 18.9497C148.751 18.7856 148.827 18.5762 148.877 18.3213C148.927 18.0635 148.952 17.7559 148.952 17.3984Z" fill="white"/>
<path d="M158.42 16.4009H159.001C159.285 16.4009 159.519 16.354 159.704 16.2603C159.891 16.1636 160.03 16.0332 160.121 15.8691C160.215 15.7021 160.262 15.5146 160.262 15.3066C160.262 15.0605 160.221 14.854 160.139 14.687C160.057 14.52 159.934 14.394 159.77 14.3091C159.606 14.2241 159.398 14.1816 159.146 14.1816C158.917 14.1816 158.715 14.2271 158.539 14.3179C158.366 14.4058 158.23 14.5317 158.13 14.6958C158.034 14.8599 157.985 15.0532 157.985 15.2759H157.172C157.172 14.9507 157.254 14.6548 157.419 14.3882C157.583 14.1216 157.813 13.9092 158.108 13.751C158.407 13.5928 158.753 13.5137 159.146 13.5137C159.532 13.5137 159.871 13.5825 160.161 13.7202C160.451 13.855 160.676 14.0571 160.837 14.3267C160.999 14.5933 161.079 14.9258 161.079 15.3242C161.079 15.4854 161.041 15.6582 160.965 15.8428C160.892 16.0244 160.776 16.1943 160.618 16.3525C160.462 16.5107 160.26 16.6411 160.011 16.7437C159.762 16.8433 159.463 16.8931 159.115 16.8931H158.42V16.4009ZM158.42 17.0688V16.5811H159.115C159.522 16.5811 159.859 16.6294 160.126 16.7261C160.392 16.8228 160.602 16.9517 160.754 17.1128C160.909 17.2739 161.018 17.4512 161.079 17.6445C161.144 17.835 161.176 18.0254 161.176 18.2158C161.176 18.5146 161.125 18.7798 161.022 19.0112C160.922 19.2427 160.78 19.439 160.596 19.6001C160.414 19.7612 160.2 19.8828 159.954 19.9648C159.708 20.0469 159.44 20.0879 159.15 20.0879C158.872 20.0879 158.609 20.0483 158.363 19.9692C158.12 19.8901 157.905 19.7759 157.717 19.6265C157.53 19.4741 157.383 19.2881 157.278 19.0684C157.172 18.8457 157.12 18.5923 157.12 18.3081H157.933C157.933 18.5308 157.981 18.7256 158.078 18.8926C158.177 19.0596 158.318 19.1899 158.5 19.2837C158.684 19.3745 158.901 19.4199 159.15 19.4199C159.399 19.4199 159.613 19.3774 159.792 19.2925C159.973 19.2046 160.112 19.0728 160.209 18.897C160.309 18.7212 160.358 18.5 160.358 18.2334C160.358 17.9668 160.303 17.7485 160.191 17.5786C160.08 17.4058 159.922 17.2783 159.717 17.1963C159.515 17.1113 159.276 17.0688 159.001 17.0688H158.42ZM163.325 16.9546L162.674 16.7876L162.995 13.6016H166.278V14.353H163.685L163.492 16.0933C163.609 16.0259 163.757 15.9629 163.936 15.9043C164.117 15.8457 164.325 15.8164 164.56 15.8164C164.856 15.8164 165.121 15.8677 165.355 15.9702C165.589 16.0698 165.789 16.2134 165.953 16.4009C166.12 16.5884 166.247 16.814 166.335 17.0776C166.423 17.3413 166.467 17.6357 166.467 17.9609C166.467 18.2686 166.424 18.5513 166.339 18.8091C166.257 19.0669 166.133 19.2925 165.966 19.4858C165.799 19.6763 165.588 19.8242 165.333 19.9297C165.081 20.0352 164.784 20.0879 164.441 20.0879C164.183 20.0879 163.939 20.0527 163.707 19.9824C163.479 19.9092 163.274 19.7993 163.092 19.6528C162.913 19.5034 162.767 19.3188 162.652 19.0991C162.541 18.8765 162.471 18.6157 162.441 18.3169H163.215C163.25 18.5571 163.32 18.7593 163.426 18.9233C163.531 19.0874 163.669 19.2119 163.839 19.2969C164.012 19.3789 164.212 19.4199 164.441 19.4199C164.634 19.4199 164.806 19.3862 164.955 19.3188C165.105 19.2515 165.231 19.1548 165.333 19.0288C165.436 18.9028 165.513 18.7505 165.566 18.5718C165.622 18.3931 165.65 18.1924 165.65 17.9697C165.65 17.7676 165.622 17.5801 165.566 17.4072C165.51 17.2344 165.427 17.0835 165.316 16.9546C165.207 16.8257 165.074 16.7261 164.916 16.6558C164.757 16.5825 164.576 16.5459 164.371 16.5459C164.098 16.5459 163.892 16.5825 163.751 16.6558C163.613 16.729 163.471 16.8286 163.325 16.9546Z" fill="white"/>
<path d="M178.102 17.8467V18.5146H173.479V18.0356L176.344 13.6016H177.008L176.296 14.8848L174.402 17.8467H178.102ZM177.21 13.6016V20H176.397V13.6016H177.21ZM182.857 16.291V17.2666C182.857 17.791 182.81 18.2334 182.716 18.5938C182.623 18.9541 182.488 19.2441 182.312 19.4639C182.136 19.6836 181.924 19.8433 181.675 19.9429C181.429 20.0396 181.151 20.0879 180.84 20.0879C180.594 20.0879 180.367 20.0571 180.159 19.9956C179.951 19.9341 179.763 19.8359 179.596 19.7012C179.432 19.5635 179.292 19.3848 179.174 19.165C179.057 18.9453 178.968 18.6787 178.906 18.3652C178.845 18.0518 178.814 17.6855 178.814 17.2666V16.291C178.814 15.7666 178.861 15.3271 178.955 14.9727C179.051 14.6182 179.188 14.334 179.363 14.1201C179.539 13.9033 179.75 13.748 179.996 13.6543C180.245 13.5605 180.524 13.5137 180.831 13.5137C181.08 13.5137 181.309 13.5444 181.517 13.606C181.728 13.6646 181.915 13.7598 182.079 13.8916C182.243 14.0205 182.383 14.1934 182.497 14.4102C182.614 14.624 182.703 14.8862 182.765 15.1968C182.826 15.5073 182.857 15.8721 182.857 16.291ZM182.04 17.3984V16.1548C182.04 15.8677 182.022 15.6157 181.987 15.3989C181.955 15.1792 181.906 14.9917 181.842 14.8364C181.778 14.6812 181.695 14.5552 181.596 14.4585C181.499 14.3618 181.386 14.2915 181.258 14.2476C181.132 14.2007 180.989 14.1772 180.831 14.1772C180.638 14.1772 180.466 14.2139 180.317 14.2871C180.168 14.3574 180.042 14.4702 179.939 14.6255C179.84 14.7808 179.763 14.9844 179.711 15.2363C179.658 15.4883 179.632 15.7944 179.632 16.1548V17.3984C179.632 17.6855 179.648 17.939 179.68 18.1587C179.715 18.3784 179.766 18.5688 179.834 18.73C179.901 18.8882 179.983 19.0186 180.08 19.1211C180.176 19.2236 180.288 19.2998 180.414 19.3496C180.543 19.3965 180.685 19.4199 180.84 19.4199C181.039 19.4199 181.214 19.3818 181.363 19.3057C181.512 19.2295 181.637 19.1108 181.737 18.9497C181.839 18.7856 181.915 18.5762 181.965 18.3213C182.015 18.0635 182.04 17.7559 182.04 17.3984Z" fill="white"/>
<path d="M191.351 16.9546L190.7 16.7876L191.021 13.6016H194.304V14.353H191.711L191.518 16.0933C191.635 16.0259 191.783 15.9629 191.961 15.9043C192.143 15.8457 192.351 15.8164 192.585 15.8164C192.881 15.8164 193.146 15.8677 193.381 15.9702C193.615 16.0698 193.814 16.2134 193.978 16.4009C194.145 16.5884 194.273 16.814 194.361 17.0776C194.449 17.3413 194.493 17.6357 194.493 17.9609C194.493 18.2686 194.45 18.5513 194.365 18.8091C194.283 19.0669 194.159 19.2925 193.992 19.4858C193.825 19.6763 193.614 19.8242 193.359 19.9297C193.107 20.0352 192.81 20.0879 192.467 20.0879C192.209 20.0879 191.964 20.0527 191.733 19.9824C191.504 19.9092 191.299 19.7993 191.118 19.6528C190.939 19.5034 190.792 19.3188 190.678 19.0991C190.567 18.8765 190.497 18.6157 190.467 18.3169H191.241C191.276 18.5571 191.346 18.7593 191.452 18.9233C191.557 19.0874 191.695 19.2119 191.865 19.2969C192.038 19.3789 192.238 19.4199 192.467 19.4199C192.66 19.4199 192.832 19.3862 192.981 19.3188C193.13 19.2515 193.256 19.1548 193.359 19.0288C193.461 18.9028 193.539 18.7505 193.592 18.5718C193.647 18.3931 193.675 18.1924 193.675 17.9697C193.675 17.7676 193.647 17.5801 193.592 17.4072C193.536 17.2344 193.453 17.0835 193.341 16.9546C193.233 16.8257 193.1 16.7261 192.941 16.6558C192.783 16.5825 192.602 16.5459 192.396 16.5459C192.124 16.5459 191.917 16.5825 191.777 16.6558C191.639 16.729 191.497 16.8286 191.351 16.9546ZM199.401 16.291V17.2666C199.401 17.791 199.354 18.2334 199.261 18.5938C199.167 18.9541 199.032 19.2441 198.856 19.4639C198.681 19.6836 198.468 19.8433 198.219 19.9429C197.973 20.0396 197.695 20.0879 197.384 20.0879C197.138 20.0879 196.911 20.0571 196.703 19.9956C196.495 19.9341 196.308 19.8359 196.141 19.7012C195.977 19.5635 195.836 19.3848 195.719 19.165C195.602 18.9453 195.512 18.6787 195.451 18.3652C195.389 18.0518 195.358 17.6855 195.358 17.2666V16.291C195.358 15.7666 195.405 15.3271 195.499 14.9727C195.596 14.6182 195.732 14.334 195.908 14.1201C196.083 13.9033 196.294 13.748 196.54 13.6543C196.79 13.5605 197.068 13.5137 197.375 13.5137C197.624 13.5137 197.853 13.5444 198.061 13.606C198.272 13.6646 198.459 13.7598 198.623 13.8916C198.788 14.0205 198.927 14.1934 199.041 14.4102C199.158 14.624 199.248 14.8862 199.309 15.1968C199.371 15.5073 199.401 15.8721 199.401 16.291ZM198.584 17.3984V16.1548C198.584 15.8677 198.566 15.6157 198.531 15.3989C198.499 15.1792 198.451 14.9917 198.386 14.8364C198.322 14.6812 198.24 14.5552 198.14 14.4585C198.043 14.3618 197.931 14.2915 197.802 14.2476C197.676 14.2007 197.534 14.1772 197.375 14.1772C197.182 14.1772 197.011 14.2139 196.861 14.2871C196.712 14.3574 196.586 14.4702 196.483 14.6255C196.384 14.7808 196.308 14.9844 196.255 15.2363C196.202 15.4883 196.176 15.7944 196.176 16.1548V17.3984C196.176 17.6855 196.192 17.939 196.224 18.1587C196.259 18.3784 196.311 18.5688 196.378 18.73C196.445 18.8882 196.527 19.0186 196.624 19.1211C196.721 19.2236 196.832 19.2998 196.958 19.3496C197.087 19.3965 197.229 19.4199 197.384 19.4199C197.583 19.4199 197.758 19.3818 197.907 19.3057C198.057 19.2295 198.181 19.1108 198.281 18.9497C198.383 18.7856 198.459 18.5762 198.509 18.3213C198.559 18.0635 198.584 17.7559 198.584 17.3984Z" fill="white"/>
<path d="M209.986 13.5928H210.057V14.2827H209.986C209.556 14.2827 209.195 14.353 208.905 14.4937C208.615 14.6313 208.385 14.8174 208.215 15.0518C208.045 15.2832 207.922 15.5439 207.846 15.834C207.773 16.124 207.736 16.4185 207.736 16.7173V17.6577C207.736 17.9419 207.77 18.1938 207.837 18.4136C207.905 18.6304 207.997 18.8135 208.114 18.9629C208.232 19.1123 208.363 19.2251 208.51 19.3013C208.659 19.3774 208.815 19.4155 208.976 19.4155C209.163 19.4155 209.33 19.3804 209.477 19.3101C209.623 19.2368 209.746 19.1357 209.846 19.0068C209.948 18.875 210.026 18.7197 210.079 18.541C210.131 18.3623 210.158 18.166 210.158 17.9521C210.158 17.7617 210.134 17.5786 210.087 17.4028C210.041 17.2241 209.969 17.0659 209.872 16.9282C209.775 16.7876 209.654 16.6777 209.507 16.5986C209.364 16.5166 209.192 16.4756 208.993 16.4756C208.768 16.4756 208.557 16.5312 208.36 16.6426C208.167 16.751 208.007 16.8945 207.881 17.0732C207.758 17.249 207.688 17.4409 207.67 17.6489L207.24 17.6445C207.281 17.3164 207.357 17.0366 207.468 16.8052C207.583 16.5708 207.723 16.3804 207.89 16.2339C208.06 16.0845 208.249 15.9761 208.457 15.9087C208.668 15.8384 208.891 15.8032 209.125 15.8032C209.444 15.8032 209.72 15.8633 209.951 15.9834C210.183 16.1035 210.373 16.2646 210.523 16.4668C210.672 16.666 210.782 16.8916 210.852 17.1436C210.925 17.3926 210.962 17.6489 210.962 17.9126C210.962 18.2144 210.919 18.4971 210.835 18.7607C210.75 19.0244 210.622 19.2559 210.452 19.4551C210.285 19.6543 210.079 19.8096 209.833 19.9209C209.586 20.0322 209.301 20.0879 208.976 20.0879C208.63 20.0879 208.328 20.0176 208.07 19.877C207.813 19.7334 207.599 19.543 207.429 19.3057C207.259 19.0684 207.131 18.8047 207.046 18.5146C206.961 18.2246 206.919 17.9302 206.919 17.6313V17.249C206.919 16.7979 206.964 16.3555 207.055 15.9219C207.146 15.4883 207.303 15.0957 207.525 14.7441C207.751 14.3926 208.063 14.1128 208.461 13.9048C208.86 13.6968 209.368 13.5928 209.986 13.5928ZM215.945 16.291V17.2666C215.945 17.791 215.898 18.2334 215.805 18.5938C215.711 18.9541 215.576 19.2441 215.4 19.4639C215.225 19.6836 215.012 19.8433 214.763 19.9429C214.517 20.0396 214.239 20.0879 213.928 20.0879C213.682 20.0879 213.455 20.0571 213.247 19.9956C213.039 19.9341 212.852 19.8359 212.685 19.7012C212.521 19.5635 212.38 19.3848 212.263 19.165C212.146 18.9453 212.056 18.6787 211.995 18.3652C211.933 18.0518 211.902 17.6855 211.902 17.2666V16.291C211.902 15.7666 211.949 15.3271 212.043 14.9727C212.14 14.6182 212.276 14.334 212.452 14.1201C212.627 13.9033 212.838 13.748 213.085 13.6543C213.334 13.5605 213.612 13.5137 213.919 13.5137C214.169 13.5137 214.397 13.5444 214.605 13.606C214.816 13.6646 215.003 13.7598 215.168 13.8916C215.332 14.0205 215.471 14.1934 215.585 14.4102C215.702 14.624 215.792 14.8862 215.853 15.1968C215.915 15.5073 215.945 15.8721 215.945 16.291ZM215.128 17.3984V16.1548C215.128 15.8677 215.11 15.6157 215.075 15.3989C215.043 15.1792 214.995 14.9917 214.93 14.8364C214.866 14.6812 214.784 14.5552 214.684 14.4585C214.587 14.3618 214.475 14.2915 214.346 14.2476C214.22 14.2007 214.078 14.1772 213.919 14.1772C213.726 14.1772 213.555 14.2139 213.405 14.2871C213.256 14.3574 213.13 14.4702 213.027 14.6255C212.928 14.7808 212.852 14.9844 212.799 15.2363C212.746 15.4883 212.72 15.7944 212.72 16.1548V17.3984C212.72 17.6855 212.736 17.939 212.768 18.1587C212.803 18.3784 212.855 18.5688 212.922 18.73C212.989 18.8882 213.071 19.0186 213.168 19.1211C213.265 19.2236 213.376 19.2998 213.502 19.3496C213.631 19.3965 213.773 19.4199 213.928 19.4199C214.127 19.4199 214.302 19.3818 214.451 19.3057C214.601 19.2295 214.725 19.1108 214.825 18.9497C214.927 18.7856 215.003 18.5762 215.053 18.3213C215.103 18.0635 215.128 17.7559 215.128 17.3984Z" fill="white"/>
<path d="M0 3.5C0 1.567 1.567 0 3.5 0H13.2353V7H3.5C1.567 7 0 5.433 0 3.5V3.5Z" fill="#063E72"/>
<path d="M225 3.5C225 5.433 223.433 7 221.5 7L211.765 7V0L221.5 0C223.433 0 225 1.567 225 3.5V3.5Z" fill="#79007B"/>
<rect x="13.2354" width="16.9118" height="7" fill="#2270C0"/>
<rect x="30.1471" width="16.1765" height="7" fill="#39C4EA"/>
<rect x="46.3235" width="16.1765" height="7" fill="#01FFC1"/>
<rect x="62.5" width="16.9118" height="7" fill="#01E047"/>
<rect x="79.4117" width="16.1765" height="7" fill="#FAFF42"/>
<rect x="95.5883" width="16.9118" height="7" fill="#FFAD0D"/>
<rect x="112.5" width="16.1765" height="7" fill="#FF6C00"/>
<rect x="128.677" width="16.9118" height="7" fill="#B33A00"/>
<rect x="145.588" width="16.1765" height="7" fill="#FC262A"/>
<rect x="161.765" width="16.9118" height="7" fill="#E20022"/>
<rect x="178.677" width="16.1765" height="7" fill="#FF00CB"/>
<rect x="194.853" width="16.9118" height="7" fill="#C9009A"/>
</svg>
