<svg width="238" height="21" viewBox="0 0 238 21" fill="none" xmlns="http://www.w3.org/2000/svg">
<path d="M14.3016 13.5664V20H13.4886V14.5815L11.8495 15.1792V14.4453L14.1742 13.5664H14.3016ZM20.7088 16.291V17.2666C20.7088 17.791 20.662 18.2334 20.5682 18.5938C20.4745 18.9541 20.3397 19.2441 20.1639 19.4639C19.9881 19.6836 19.7757 19.8433 19.5267 19.9429C19.2806 20.0396 19.0023 20.0879 18.6917 20.0879C18.4457 20.0879 18.2186 20.0571 18.0106 19.9956C17.8026 19.9341 17.6151 19.8359 17.4481 19.7012C17.284 19.5635 17.1434 19.3848 17.0262 19.165C16.909 18.9453 16.8197 18.6787 16.7582 18.3652C16.6966 18.0518 16.6659 17.6855 16.6659 17.2666V16.291C16.6659 15.7666 16.7127 15.3271 16.8065 14.9727C16.9032 14.6182 17.0394 14.334 17.2152 14.1201C17.391 13.9033 17.6019 13.748 17.848 13.6543C18.097 13.5605 18.3753 13.5137 18.683 13.5137C18.932 13.5137 19.1605 13.5444 19.3685 13.606C19.5794 13.6646 19.7669 13.7598 19.931 13.8916C20.0951 14.0205 20.2342 14.1934 20.3485 14.4102C20.4657 14.624 20.555 14.8862 20.6166 15.1968C20.6781 15.5073 20.7088 15.8721 20.7088 16.291ZM19.8915 17.3984V16.1548C19.8915 15.8677 19.8739 15.6157 19.8387 15.3989C19.8065 15.1792 19.7582 14.9917 19.6937 14.8364C19.6292 14.6812 19.5472 14.5552 19.4476 14.4585C19.3509 14.3618 19.2381 14.2915 19.1092 14.2476C18.9833 14.2007 18.8412 14.1772 18.683 14.1772C18.4896 14.1772 18.3182 14.2139 18.1688 14.2871C18.0194 14.3574 17.8934 14.4702 17.7909 14.6255C17.6913 14.7808 17.6151 14.9844 17.5624 15.2363C17.5096 15.4883 17.4833 15.7944 17.4833 16.1548V17.3984C17.4833 17.6855 17.4994 17.939 17.5316 18.1587C17.5667 18.3784 17.618 18.5688 17.6854 18.73C17.7528 18.8882 17.8348 19.0186 17.9315 19.1211C18.0282 19.2236 18.1395 19.2998 18.2655 19.3496C18.3944 19.3965 18.5365 19.4199 18.6917 19.4199C18.891 19.4199 19.0653 19.3818 19.2147 19.3057C19.3641 19.2295 19.4886 19.1108 19.5882 18.9497C19.6908 18.7856 19.7669 18.5762 19.8167 18.3213C19.8666 18.0635 19.8915 17.7559 19.8915 17.3984Z" fill="white"/>
<path d="M40.7975 19.332V20H36.6095V19.4155L38.7057 17.082C38.9635 16.7949 39.1627 16.5518 39.3034 16.3525C39.4469 16.1504 39.5465 15.9702 39.6022 15.812C39.6608 15.6509 39.6901 15.4868 39.6901 15.3198C39.6901 15.1089 39.6461 14.9185 39.5582 14.7485C39.4733 14.5757 39.3473 14.438 39.1803 14.3354C39.0133 14.2329 38.8112 14.1816 38.5739 14.1816C38.2897 14.1816 38.0524 14.2373 37.8619 14.3486C37.6744 14.457 37.5338 14.6094 37.4401 14.8057C37.3463 15.002 37.2994 15.2275 37.2994 15.4824H36.4865C36.4865 15.1221 36.5656 14.7925 36.7238 14.4937C36.882 14.1948 37.1163 13.9575 37.4269 13.7817C37.7374 13.603 38.1198 13.5137 38.5739 13.5137C38.9782 13.5137 39.3239 13.5854 39.611 13.729C39.8981 13.8696 40.1178 14.0688 40.2702 14.3267C40.4254 14.5815 40.5031 14.8804 40.5031 15.2231C40.5031 15.4106 40.4708 15.6011 40.4064 15.7944C40.3449 15.9849 40.2584 16.1753 40.1471 16.3657C40.0387 16.5562 39.9113 16.7437 39.7648 16.9282C39.6212 17.1128 39.4674 17.2944 39.3034 17.4731L37.5895 19.332H40.7975ZM45.6842 16.291V17.2666C45.6842 17.791 45.6373 18.2334 45.5436 18.5938C45.4498 18.9541 45.3151 19.2441 45.1393 19.4639C44.9635 19.6836 44.7511 19.8433 44.5021 19.9429C44.256 20.0396 43.9777 20.0879 43.6671 20.0879C43.421 20.0879 43.194 20.0571 42.986 19.9956C42.778 19.9341 42.5905 19.8359 42.4235 19.7012C42.2594 19.5635 42.1188 19.3848 42.0016 19.165C41.8844 18.9453 41.7951 18.6787 41.7335 18.3652C41.672 18.0518 41.6412 17.6855 41.6412 17.2666V16.291C41.6412 15.7666 41.6881 15.3271 41.7819 14.9727C41.8786 14.6182 42.0148 14.334 42.1906 14.1201C42.3663 13.9033 42.5773 13.748 42.8234 13.6543C43.0724 13.5605 43.3507 13.5137 43.6583 13.5137C43.9074 13.5137 44.1359 13.5444 44.3439 13.606C44.5548 13.6646 44.7423 13.7598 44.9064 13.8916C45.0704 14.0205 45.2096 14.1934 45.3239 14.4102C45.4411 14.624 45.5304 14.8862 45.5919 15.1968C45.6535 15.5073 45.6842 15.8721 45.6842 16.291ZM44.8668 17.3984V16.1548C44.8668 15.8677 44.8493 15.6157 44.8141 15.3989C44.7819 15.1792 44.7335 14.9917 44.6691 14.8364C44.6046 14.6812 44.5226 14.5552 44.423 14.4585C44.3263 14.3618 44.2135 14.2915 44.0846 14.2476C43.9586 14.2007 43.8165 14.1772 43.6583 14.1772C43.465 14.1772 43.2936 14.2139 43.1442 14.2871C42.9948 14.3574 42.8688 14.4702 42.7662 14.6255C42.6666 14.7808 42.5905 14.9844 42.5377 15.2363C42.485 15.4883 42.4586 15.7944 42.4586 16.1548V17.3984C42.4586 17.6855 42.4747 17.939 42.507 18.1587C42.5421 18.3784 42.5934 18.5688 42.6608 18.73C42.7282 18.8882 42.8102 19.0186 42.9069 19.1211C43.0036 19.2236 43.1149 19.2998 43.2409 19.3496C43.3698 19.3965 43.5119 19.4199 43.6671 19.4199C43.8663 19.4199 44.0407 19.3818 44.1901 19.3057C44.3395 19.2295 44.464 19.1108 44.5636 18.9497C44.6661 18.7856 44.7423 18.5762 44.7921 18.3213C44.8419 18.0635 44.8668 17.7559 44.8668 17.3984Z" fill="white"/>
<path d="M58.3595 16.4009H58.9396C59.2238 16.4009 59.4581 16.354 59.6427 16.2603C59.8302 16.1636 59.9694 16.0332 60.0602 15.8691C60.1539 15.7021 60.2008 15.5146 60.2008 15.3066C60.2008 15.0605 60.1598 14.854 60.0778 14.687C59.9957 14.52 59.8727 14.394 59.7086 14.3091C59.5446 14.2241 59.3366 14.1816 59.0846 14.1816C58.8561 14.1816 58.6539 14.2271 58.4782 14.3179C58.3053 14.4058 58.1691 14.5317 58.0695 14.6958C57.9728 14.8599 57.9244 15.0532 57.9244 15.2759H57.1115C57.1115 14.9507 57.1935 14.6548 57.3576 14.3882C57.5216 14.1216 57.7516 13.9092 58.0475 13.751C58.3463 13.5928 58.692 13.5137 59.0846 13.5137C59.4713 13.5137 59.8097 13.5825 60.0997 13.7202C60.3898 13.855 60.6154 14.0571 60.7765 14.3267C60.9376 14.5933 61.0182 14.9258 61.0182 15.3242C61.0182 15.4854 60.9801 15.6582 60.9039 15.8428C60.8307 16.0244 60.715 16.1943 60.5568 16.3525C60.4015 16.5107 60.1994 16.6411 59.9503 16.7437C59.7013 16.8433 59.4025 16.8931 59.0538 16.8931H58.3595V16.4009ZM58.3595 17.0688V16.5811H59.0538C59.4611 16.5811 59.798 16.6294 60.0646 16.7261C60.3312 16.8228 60.5407 16.9517 60.693 17.1128C60.8483 17.2739 60.9567 17.4512 61.0182 17.6445C61.0827 17.835 61.1149 18.0254 61.1149 18.2158C61.1149 18.5146 61.0636 18.7798 60.9611 19.0112C60.8615 19.2427 60.7194 19.439 60.5348 19.6001C60.3532 19.7612 60.1393 19.8828 59.8932 19.9648C59.6471 20.0469 59.379 20.0879 59.089 20.0879C58.8107 20.0879 58.5485 20.0483 58.3024 19.9692C58.0592 19.8901 57.8439 19.7759 57.6564 19.6265C57.4689 19.4741 57.3224 19.2881 57.2169 19.0684C57.1115 18.8457 57.0587 18.5923 57.0587 18.3081H57.8717C57.8717 18.5308 57.9201 18.7256 58.0167 18.8926C58.1163 19.0596 58.257 19.1899 58.4386 19.2837C58.6232 19.3745 58.84 19.4199 59.089 19.4199C59.338 19.4199 59.5519 19.3774 59.7306 19.2925C59.9122 19.2046 60.0514 19.0728 60.1481 18.897C60.2477 18.7212 60.2975 18.5 60.2975 18.2334C60.2975 17.9668 60.2418 17.7485 60.1305 17.5786C60.0192 17.4058 59.861 17.2783 59.6559 17.1963C59.4537 17.1113 59.215 17.0688 58.9396 17.0688H58.3595ZM66.2521 16.291V17.2666C66.2521 17.791 66.2052 18.2334 66.1115 18.5938C66.0177 18.9541 65.8829 19.2441 65.7072 19.4639C65.5314 19.6836 65.319 19.8433 65.07 19.9429C64.8239 20.0396 64.5455 20.0879 64.235 20.0879C63.9889 20.0879 63.7619 20.0571 63.5538 19.9956C63.3458 19.9341 63.1583 19.8359 62.9913 19.7012C62.8273 19.5635 62.6867 19.3848 62.5695 19.165C62.4523 18.9453 62.3629 18.6787 62.3014 18.3652C62.2399 18.0518 62.2091 17.6855 62.2091 17.2666V16.291C62.2091 15.7666 62.256 15.3271 62.3497 14.9727C62.4464 14.6182 62.5827 14.334 62.7584 14.1201C62.9342 13.9033 63.1452 13.748 63.3912 13.6543C63.6403 13.5605 63.9186 13.5137 64.2262 13.5137C64.4752 13.5137 64.7037 13.5444 64.9118 13.606C65.1227 13.6646 65.3102 13.7598 65.4743 13.8916C65.6383 14.0205 65.7775 14.1934 65.8917 14.4102C66.0089 14.624 66.0983 14.8862 66.1598 15.1968C66.2213 15.5073 66.2521 15.8721 66.2521 16.291ZM65.4347 17.3984V16.1548C65.4347 15.8677 65.4171 15.6157 65.382 15.3989C65.3497 15.1792 65.3014 14.9917 65.2369 14.8364C65.1725 14.6812 65.0905 14.5552 64.9909 14.4585C64.8942 14.3618 64.7814 14.2915 64.6525 14.2476C64.5265 14.2007 64.3844 14.1772 64.2262 14.1772C64.0328 14.1772 63.8615 14.2139 63.712 14.2871C63.5626 14.3574 63.4367 14.4702 63.3341 14.6255C63.2345 14.7808 63.1583 14.9844 63.1056 15.2363C63.0529 15.4883 63.0265 15.7944 63.0265 16.1548V17.3984C63.0265 17.6855 63.0426 17.939 63.0748 18.1587C63.11 18.3784 63.1613 18.5688 63.2286 18.73C63.296 18.8882 63.3781 19.0186 63.4747 19.1211C63.5714 19.2236 63.6827 19.2998 63.8087 19.3496C63.9376 19.3965 64.0797 19.4199 64.235 19.4199C64.4342 19.4199 64.6085 19.3818 64.7579 19.3057C64.9074 19.2295 65.0319 19.1108 65.1315 18.9497C65.234 18.7856 65.3102 18.5762 65.36 18.3213C65.4098 18.0635 65.4347 17.7559 65.4347 17.3984Z" fill="white"/>
<path d="M83.5342 17.8467V18.5146H78.9111V18.0356L81.7763 13.6016H82.4399L81.728 14.8848L79.834 17.8467H83.5342ZM82.6421 13.6016V20H81.8291V13.6016H82.6421ZM88.289 16.291V17.2666C88.289 17.791 88.2422 18.2334 88.1484 18.5938C88.0547 18.9541 87.9199 19.2441 87.7441 19.4639C87.5683 19.6836 87.3559 19.8433 87.1069 19.9429C86.8608 20.0396 86.5825 20.0879 86.2719 20.0879C86.0259 20.0879 85.7988 20.0571 85.5908 19.9956C85.3828 19.9341 85.1953 19.8359 85.0283 19.7012C84.8642 19.5635 84.7236 19.3848 84.6064 19.165C84.4892 18.9453 84.3999 18.6787 84.3384 18.3652C84.2768 18.0518 84.2461 17.6855 84.2461 17.2666V16.291C84.2461 15.7666 84.2929 15.3271 84.3867 14.9727C84.4834 14.6182 84.6196 14.334 84.7954 14.1201C84.9712 13.9033 85.1821 13.748 85.4282 13.6543C85.6772 13.5605 85.9555 13.5137 86.2632 13.5137C86.5122 13.5137 86.7407 13.5444 86.9487 13.606C87.1596 13.6646 87.3471 13.7598 87.5112 13.8916C87.6753 14.0205 87.8144 14.1934 87.9287 14.4102C88.0459 14.624 88.1352 14.8862 88.1968 15.1968C88.2583 15.5073 88.289 15.8721 88.289 16.291ZM87.4717 17.3984V16.1548C87.4717 15.8677 87.4541 15.6157 87.4189 15.3989C87.3867 15.1792 87.3384 14.9917 87.2739 14.8364C87.2094 14.6812 87.1274 14.5552 87.0278 14.4585C86.9311 14.3618 86.8183 14.2915 86.6894 14.2476C86.5635 14.2007 86.4214 14.1772 86.2632 14.1772C86.0698 14.1772 85.8984 14.2139 85.749 14.2871C85.5996 14.3574 85.4736 14.4702 85.3711 14.6255C85.2715 14.7808 85.1953 14.9844 85.1426 15.2363C85.0898 15.4883 85.0635 15.7944 85.0635 16.1548V17.3984C85.0635 17.6855 85.0796 17.939 85.1118 18.1587C85.1469 18.3784 85.1982 18.5688 85.2656 18.73C85.333 18.8882 85.415 19.0186 85.5117 19.1211C85.6084 19.2236 85.7197 19.2998 85.8457 19.3496C85.9746 19.3965 86.1167 19.4199 86.2719 19.4199C86.4712 19.4199 86.6455 19.3818 86.7949 19.3057C86.9443 19.2295 87.0688 19.1108 87.1684 18.9497C87.271 18.7856 87.3471 18.5762 87.3969 18.3213C87.4468 18.0635 87.4717 17.7559 87.4717 17.3984Z" fill="white"/>
<path d="M102.275 16.9546L101.625 16.7876L101.946 13.6016H105.228V14.353H102.636L102.442 16.0933C102.559 16.0259 102.707 15.9629 102.886 15.9043C103.068 15.8457 103.276 15.8164 103.51 15.8164C103.806 15.8164 104.071 15.8677 104.305 15.9702C104.54 16.0698 104.739 16.2134 104.903 16.4009C105.07 16.5884 105.198 16.814 105.285 17.0776C105.373 17.3413 105.417 17.6357 105.417 17.9609C105.417 18.2686 105.375 18.5513 105.29 18.8091C105.208 19.0669 105.083 19.2925 104.916 19.4858C104.749 19.6763 104.538 19.8242 104.283 19.9297C104.032 20.0352 103.734 20.0879 103.391 20.0879C103.134 20.0879 102.889 20.0527 102.657 19.9824C102.429 19.9092 102.224 19.7993 102.042 19.6528C101.864 19.5034 101.717 19.3188 101.603 19.0991C101.491 18.8765 101.421 18.6157 101.392 18.3169H102.165C102.2 18.5571 102.271 18.7593 102.376 18.9233C102.482 19.0874 102.619 19.2119 102.789 19.2969C102.962 19.3789 103.163 19.4199 103.391 19.4199C103.585 19.4199 103.756 19.3862 103.906 19.3188C104.055 19.2515 104.181 19.1548 104.283 19.0288C104.386 18.9028 104.464 18.7505 104.516 18.5718C104.572 18.3931 104.6 18.1924 104.6 17.9697C104.6 17.7676 104.572 17.5801 104.516 17.4072C104.461 17.2344 104.377 17.0835 104.266 16.9546C104.157 16.8257 104.024 16.7261 103.866 16.6558C103.708 16.5825 103.526 16.5459 103.321 16.5459C103.049 16.5459 102.842 16.5825 102.701 16.6558C102.564 16.729 102.422 16.8286 102.275 16.9546ZM110.326 16.291V17.2666C110.326 17.791 110.279 18.2334 110.185 18.5938C110.092 18.9541 109.957 19.2441 109.781 19.4639C109.605 19.6836 109.393 19.8433 109.144 19.9429C108.898 20.0396 108.619 20.0879 108.309 20.0879C108.063 20.0879 107.836 20.0571 107.628 19.9956C107.42 19.9341 107.232 19.8359 107.065 19.7012C106.901 19.5635 106.761 19.3848 106.643 19.165C106.526 18.9453 106.437 18.6787 106.375 18.3652C106.314 18.0518 106.283 17.6855 106.283 17.2666V16.291C106.283 15.7666 106.33 15.3271 106.424 14.9727C106.52 14.6182 106.657 14.334 106.832 14.1201C107.008 13.9033 107.219 13.748 107.465 13.6543C107.714 13.5605 107.992 13.5137 108.3 13.5137C108.549 13.5137 108.778 13.5444 108.986 13.606C109.197 13.6646 109.384 13.7598 109.548 13.8916C109.712 14.0205 109.851 14.1934 109.966 14.4102C110.083 14.624 110.172 14.8862 110.234 15.1968C110.295 15.5073 110.326 15.8721 110.326 16.291ZM109.509 17.3984V16.1548C109.509 15.8677 109.491 15.6157 109.456 15.3989C109.424 15.1792 109.375 14.9917 109.311 14.8364C109.246 14.6812 109.164 14.5552 109.065 14.4585C108.968 14.3618 108.855 14.2915 108.726 14.2476C108.6 14.2007 108.458 14.1772 108.3 14.1772C108.107 14.1772 107.935 14.2139 107.786 14.2871C107.636 14.3574 107.511 14.4702 107.408 14.6255C107.308 14.7808 107.232 14.9844 107.179 15.2363C107.127 15.4883 107.1 15.7944 107.1 16.1548V17.3984C107.1 17.6855 107.116 17.939 107.149 18.1587C107.184 18.3784 107.235 18.5688 107.303 18.73C107.37 18.8882 107.452 19.0186 107.549 19.1211C107.645 19.2236 107.757 19.2998 107.883 19.3496C108.011 19.3965 108.154 19.4199 108.309 19.4199C108.508 19.4199 108.682 19.3818 108.832 19.3057C108.981 19.2295 109.106 19.1108 109.205 18.9497C109.308 18.7856 109.384 18.5762 109.434 18.3213C109.484 18.0635 109.509 17.7559 109.509 17.3984Z" fill="white"/>
<path d="M126.404 13.5928H126.474V14.2827H126.404C125.973 14.2827 125.613 14.353 125.323 14.4937C125.033 14.6313 124.803 14.8174 124.633 15.0518C124.463 15.2832 124.34 15.5439 124.264 15.834C124.191 16.124 124.154 16.4185 124.154 16.7173V17.6577C124.154 17.9419 124.188 18.1938 124.255 18.4136C124.323 18.6304 124.415 18.8135 124.532 18.9629C124.649 19.1123 124.781 19.2251 124.928 19.3013C125.077 19.3774 125.232 19.4155 125.393 19.4155C125.581 19.4155 125.748 19.3804 125.894 19.3101C126.041 19.2368 126.164 19.1357 126.264 19.0068C126.366 18.875 126.444 18.7197 126.496 18.541C126.549 18.3623 126.576 18.166 126.576 17.9521C126.576 17.7617 126.552 17.5786 126.505 17.4028C126.458 17.2241 126.387 17.0659 126.29 16.9282C126.193 16.7876 126.072 16.6777 125.925 16.5986C125.782 16.5166 125.61 16.4756 125.411 16.4756C125.185 16.4756 124.974 16.5312 124.778 16.6426C124.585 16.751 124.425 16.8945 124.299 17.0732C124.176 17.249 124.106 17.4409 124.088 17.6489L123.658 17.6445C123.699 17.3164 123.775 17.0366 123.886 16.8052C124 16.5708 124.141 16.3804 124.308 16.2339C124.478 16.0845 124.667 15.9761 124.875 15.9087C125.086 15.8384 125.308 15.8032 125.543 15.8032C125.862 15.8032 126.138 15.8633 126.369 15.9834C126.6 16.1035 126.791 16.2646 126.94 16.4668C127.09 16.666 127.2 16.8916 127.27 17.1436C127.343 17.3926 127.38 17.6489 127.38 17.9126C127.38 18.2144 127.337 18.4971 127.252 18.7607C127.167 19.0244 127.04 19.2559 126.87 19.4551C126.703 19.6543 126.496 19.8096 126.25 19.9209C126.004 20.0322 125.719 20.0879 125.393 20.0879C125.048 20.0879 124.746 20.0176 124.488 19.877C124.23 19.7334 124.016 19.543 123.847 19.3057C123.677 19.0684 123.549 18.8047 123.464 18.5146C123.379 18.2246 123.337 17.9302 123.337 17.6313V17.249C123.337 16.7979 123.382 16.3555 123.473 15.9219C123.564 15.4883 123.721 15.0957 123.943 14.7441C124.169 14.3926 124.481 14.1128 124.879 13.9048C125.278 13.6968 125.786 13.5928 126.404 13.5928ZM132.363 16.291V17.2666C132.363 17.791 132.316 18.2334 132.223 18.5938C132.129 18.9541 131.994 19.2441 131.818 19.4639C131.642 19.6836 131.43 19.8433 131.181 19.9429C130.935 20.0396 130.657 20.0879 130.346 20.0879C130.1 20.0879 129.873 20.0571 129.665 19.9956C129.457 19.9341 129.269 19.8359 129.102 19.7012C128.938 19.5635 128.798 19.3848 128.681 19.165C128.563 18.9453 128.474 18.6787 128.412 18.3652C128.351 18.0518 128.32 17.6855 128.32 17.2666V16.291C128.32 15.7666 128.367 15.3271 128.461 14.9727C128.557 14.6182 128.694 14.334 128.869 14.1201C129.045 13.9033 129.256 13.748 129.502 13.6543C129.751 13.5605 130.03 13.5137 130.337 13.5137C130.586 13.5137 130.815 13.5444 131.023 13.606C131.234 13.6646 131.421 13.7598 131.585 13.8916C131.749 14.0205 131.889 14.1934 132.003 14.4102C132.12 14.624 132.209 14.8862 132.271 15.1968C132.332 15.5073 132.363 15.8721 132.363 16.291ZM131.546 17.3984V16.1548C131.546 15.8677 131.528 15.6157 131.493 15.3989C131.461 15.1792 131.412 14.9917 131.348 14.8364C131.284 14.6812 131.202 14.5552 131.102 14.4585C131.005 14.3618 130.892 14.2915 130.764 14.2476C130.638 14.2007 130.495 14.1772 130.337 14.1772C130.144 14.1772 129.973 14.2139 129.823 14.2871C129.674 14.3574 129.548 14.4702 129.445 14.6255C129.346 14.7808 129.269 14.9844 129.217 15.2363C129.164 15.4883 129.138 15.7944 129.138 16.1548V17.3984C129.138 17.6855 129.154 17.939 129.186 18.1587C129.221 18.3784 129.272 18.5688 129.34 18.73C129.407 18.8882 129.489 19.0186 129.586 19.1211C129.682 19.2236 129.794 19.2998 129.92 19.3496C130.049 19.3965 130.191 19.4199 130.346 19.4199C130.545 19.4199 130.72 19.3818 130.869 19.3057C131.018 19.2295 131.143 19.1108 131.243 18.9497C131.345 18.7856 131.421 18.5762 131.471 18.3213C131.521 18.0635 131.546 17.7559 131.546 17.3984Z" fill="white"/>
<path d="M149.456 13.6016V14.0586L146.806 20H145.949L148.595 14.2695H145.132V13.6016H149.456ZM154.4 16.291V17.2666C154.4 17.791 154.353 18.2334 154.26 18.5938C154.166 18.9541 154.031 19.2441 153.855 19.4639C153.679 19.6836 153.467 19.8433 153.218 19.9429C152.972 20.0396 152.694 20.0879 152.383 20.0879C152.137 20.0879 151.91 20.0571 151.702 19.9956C151.494 19.9341 151.306 19.8359 151.139 19.7012C150.975 19.5635 150.835 19.3848 150.718 19.165C150.6 18.9453 150.511 18.6787 150.449 18.3652C150.388 18.0518 150.357 17.6855 150.357 17.2666V16.291C150.357 15.7666 150.404 15.3271 150.498 14.9727C150.594 14.6182 150.731 14.334 150.907 14.1201C151.082 13.9033 151.293 13.748 151.539 13.6543C151.788 13.5605 152.067 13.5137 152.374 13.5137C152.623 13.5137 152.852 13.5444 153.06 13.606C153.271 13.6646 153.458 13.7598 153.622 13.8916C153.786 14.0205 153.926 14.1934 154.04 14.4102C154.157 14.624 154.246 14.8862 154.308 15.1968C154.369 15.5073 154.4 15.8721 154.4 16.291ZM153.583 17.3984V16.1548C153.583 15.8677 153.565 15.6157 153.53 15.3989C153.498 15.1792 153.449 14.9917 153.385 14.8364C153.321 14.6812 153.239 14.5552 153.139 14.4585C153.042 14.3618 152.929 14.2915 152.801 14.2476C152.675 14.2007 152.532 14.1772 152.374 14.1772C152.181 14.1772 152.01 14.2139 151.86 14.2871C151.711 14.3574 151.585 14.4702 151.482 14.6255C151.383 14.7808 151.306 14.9844 151.254 15.2363C151.201 15.4883 151.175 15.7944 151.175 16.1548V17.3984C151.175 17.6855 151.191 17.939 151.223 18.1587C151.258 18.3784 151.309 18.5688 151.377 18.73C151.444 18.8882 151.526 19.0186 151.623 19.1211C151.719 19.2236 151.831 19.2998 151.957 19.3496C152.086 19.3965 152.228 19.4199 152.383 19.4199C152.582 19.4199 152.757 19.3818 152.906 19.3057C153.055 19.2295 153.18 19.1108 153.28 18.9497C153.382 18.7856 153.458 18.5762 153.508 18.3213C153.558 18.0635 153.583 17.7559 153.583 17.3984Z" fill="white"/>
<path d="M170.903 18.2686C170.903 18.6582 170.812 18.9893 170.63 19.2617C170.452 19.5312 170.208 19.7363 169.901 19.877C169.596 20.0176 169.252 20.0879 168.868 20.0879C168.484 20.0879 168.139 20.0176 167.831 19.877C167.523 19.7363 167.28 19.5312 167.101 19.2617C166.923 18.9893 166.833 18.6582 166.833 18.2686C166.833 18.0137 166.882 17.7808 166.978 17.5698C167.078 17.356 167.217 17.1699 167.396 17.0117C167.578 16.8535 167.791 16.7319 168.037 16.647C168.287 16.5591 168.56 16.5151 168.859 16.5151C169.252 16.5151 169.602 16.5913 169.91 16.7437C170.217 16.8931 170.459 17.0996 170.635 17.3633C170.813 17.627 170.903 17.9287 170.903 18.2686ZM170.085 18.251C170.085 18.0137 170.034 17.8042 169.932 17.6226C169.829 17.438 169.685 17.2944 169.501 17.1919C169.316 17.0894 169.102 17.0381 168.859 17.0381C168.61 17.0381 168.395 17.0894 168.213 17.1919C168.035 17.2944 167.895 17.438 167.796 17.6226C167.696 17.8042 167.646 18.0137 167.646 18.251C167.646 18.4971 167.695 18.708 167.791 18.8838C167.891 19.0566 168.032 19.1899 168.213 19.2837C168.398 19.3745 168.616 19.4199 168.868 19.4199C169.12 19.4199 169.337 19.3745 169.518 19.2837C169.7 19.1899 169.839 19.0566 169.936 18.8838C170.036 18.708 170.085 18.4971 170.085 18.251ZM170.753 15.2671C170.753 15.5776 170.671 15.8574 170.507 16.1064C170.343 16.3555 170.119 16.5518 169.835 16.6953C169.551 16.8389 169.228 16.9106 168.868 16.9106C168.502 16.9106 168.175 16.8389 167.888 16.6953C167.604 16.5518 167.381 16.3555 167.22 16.1064C167.059 15.8574 166.978 15.5776 166.978 15.2671C166.978 14.895 167.059 14.5786 167.22 14.3179C167.384 14.0571 167.608 13.8579 167.892 13.7202C168.177 13.5825 168.5 13.5137 168.864 13.5137C169.23 13.5137 169.555 13.5825 169.839 13.7202C170.123 13.8579 170.346 14.0571 170.507 14.3179C170.671 14.5786 170.753 14.895 170.753 15.2671ZM169.94 15.2803C169.94 15.0664 169.895 14.8774 169.804 14.7134C169.713 14.5493 169.587 14.4204 169.426 14.3267C169.265 14.23 169.078 14.1816 168.864 14.1816C168.65 14.1816 168.462 14.2271 168.301 14.3179C168.143 14.4058 168.018 14.5317 167.928 14.6958C167.84 14.8599 167.796 15.0547 167.796 15.2803C167.796 15.5 167.84 15.6919 167.928 15.856C168.018 16.02 168.144 16.1475 168.306 16.2383C168.467 16.3291 168.654 16.3745 168.868 16.3745C169.082 16.3745 169.268 16.3291 169.426 16.2383C169.587 16.1475 169.713 16.02 169.804 15.856C169.895 15.6919 169.94 15.5 169.94 15.2803ZM175.948 16.291V17.2666C175.948 17.791 175.901 18.2334 175.807 18.5938C175.713 18.9541 175.579 19.2441 175.403 19.4639C175.227 19.6836 175.015 19.8433 174.766 19.9429C174.519 20.0396 174.241 20.0879 173.931 20.0879C173.684 20.0879 173.457 20.0571 173.249 19.9956C173.041 19.9341 172.854 19.8359 172.687 19.7012C172.523 19.5635 172.382 19.3848 172.265 19.165C172.148 18.9453 172.058 18.6787 171.997 18.3652C171.935 18.0518 171.905 17.6855 171.905 17.2666V16.291C171.905 15.7666 171.952 15.3271 172.045 14.9727C172.142 14.6182 172.278 14.334 172.454 14.1201C172.63 13.9033 172.841 13.748 173.087 13.6543C173.336 13.5605 173.614 13.5137 173.922 13.5137C174.171 13.5137 174.399 13.5444 174.607 13.606C174.818 13.6646 175.006 13.7598 175.17 13.8916C175.334 14.0205 175.473 14.1934 175.587 14.4102C175.704 14.624 175.794 14.8862 175.855 15.1968C175.917 15.5073 175.948 15.8721 175.948 16.291ZM175.13 17.3984V16.1548C175.13 15.8677 175.113 15.6157 175.078 15.3989C175.045 15.1792 174.997 14.9917 174.933 14.8364C174.868 14.6812 174.786 14.5552 174.686 14.4585C174.59 14.3618 174.477 14.2915 174.348 14.2476C174.222 14.2007 174.08 14.1772 173.922 14.1772C173.728 14.1772 173.557 14.2139 173.408 14.2871C173.258 14.3574 173.132 14.4702 173.03 14.6255C172.93 14.7808 172.854 14.9844 172.801 15.2363C172.748 15.4883 172.722 15.7944 172.722 16.1548V17.3984C172.722 17.6855 172.738 17.939 172.77 18.1587C172.806 18.3784 172.857 18.5688 172.924 18.73C172.992 18.8882 173.074 19.0186 173.17 19.1211C173.267 19.2236 173.378 19.2998 173.504 19.3496C173.633 19.3965 173.775 19.4199 173.931 19.4199C174.13 19.4199 174.304 19.3818 174.454 19.3057C174.603 19.2295 174.727 19.1108 174.827 18.9497C174.93 18.7856 175.006 18.5762 175.056 18.3213C175.105 18.0635 175.13 17.7559 175.13 17.3984Z" fill="white"/>
<path d="M189.714 19.3188H189.798C190.266 19.3188 190.647 19.2529 190.94 19.1211C191.233 18.9893 191.459 18.812 191.617 18.5894C191.775 18.3667 191.884 18.1162 191.942 17.8379C192.001 17.5566 192.03 17.2681 192.03 16.9722V15.9922C192.03 15.7021 191.996 15.4443 191.929 15.2188C191.865 14.9932 191.774 14.8042 191.657 14.6519C191.542 14.4995 191.412 14.3838 191.265 14.3047C191.119 14.2256 190.964 14.186 190.8 14.186C190.612 14.186 190.444 14.2241 190.294 14.3003C190.148 14.3735 190.023 14.4775 189.921 14.6123C189.821 14.7471 189.745 14.9053 189.692 15.0869C189.64 15.2686 189.613 15.4663 189.613 15.6802C189.613 15.8706 189.637 16.0552 189.683 16.2339C189.73 16.4126 189.802 16.5737 189.899 16.7173C189.995 16.8608 190.116 16.9751 190.259 17.0601C190.406 17.1421 190.577 17.1831 190.773 17.1831C190.955 17.1831 191.125 17.1479 191.283 17.0776C191.444 17.0044 191.586 16.9062 191.709 16.7832C191.835 16.6572 191.935 16.5151 192.008 16.3569C192.084 16.1987 192.128 16.0332 192.14 15.8604H192.527C192.527 16.1035 192.478 16.3438 192.382 16.5811C192.288 16.8154 192.156 17.0293 191.986 17.2227C191.816 17.416 191.617 17.5713 191.389 17.6885C191.16 17.8027 190.911 17.8599 190.641 17.8599C190.325 17.8599 190.051 17.7983 189.82 17.6753C189.588 17.5522 189.398 17.3882 189.248 17.1831C189.102 16.978 188.992 16.7495 188.919 16.4976C188.848 16.2427 188.813 15.9849 188.813 15.7241C188.813 15.4194 188.856 15.1338 188.941 14.8672C189.026 14.6006 189.152 14.3662 189.319 14.1641C189.486 13.959 189.692 13.7993 189.938 13.6851C190.187 13.5708 190.474 13.5137 190.8 13.5137C191.166 13.5137 191.478 13.5869 191.736 13.7334C191.994 13.8799 192.203 14.0762 192.364 14.3223C192.528 14.5684 192.648 14.8452 192.724 15.1528C192.801 15.4604 192.839 15.7769 192.839 16.1021V16.3965C192.839 16.7275 192.817 17.0645 192.773 17.4072C192.732 17.7471 192.651 18.0723 192.531 18.3828C192.414 18.6934 192.243 18.9717 192.017 19.2178C191.791 19.4609 191.497 19.6543 191.134 19.7979C190.773 19.9385 190.328 20.0088 189.798 20.0088H189.714V19.3188ZM197.985 16.291V17.2666C197.985 17.791 197.938 18.2334 197.844 18.5938C197.75 18.9541 197.616 19.2441 197.44 19.4639C197.264 19.6836 197.052 19.8433 196.803 19.9429C196.556 20.0396 196.278 20.0879 195.968 20.0879C195.722 20.0879 195.494 20.0571 195.286 19.9956C195.078 19.9341 194.891 19.8359 194.724 19.7012C194.56 19.5635 194.419 19.3848 194.302 19.165C194.185 18.9453 194.096 18.6787 194.034 18.3652C193.973 18.0518 193.942 17.6855 193.942 17.2666V16.291C193.942 15.7666 193.989 15.3271 194.082 14.9727C194.179 14.6182 194.315 14.334 194.491 14.1201C194.667 13.9033 194.878 13.748 195.124 13.6543C195.373 13.5605 195.651 13.5137 195.959 13.5137C196.208 13.5137 196.436 13.5444 196.644 13.606C196.855 13.6646 197.043 13.7598 197.207 13.8916C197.371 14.0205 197.51 14.1934 197.624 14.4102C197.742 14.624 197.831 14.8862 197.892 15.1968C197.954 15.5073 197.985 15.8721 197.985 16.291ZM197.167 17.3984V16.1548C197.167 15.8677 197.15 15.6157 197.115 15.3989C197.082 15.1792 197.034 14.9917 196.97 14.8364C196.905 14.6812 196.823 14.5552 196.723 14.4585C196.627 14.3618 196.514 14.2915 196.385 14.2476C196.259 14.2007 196.117 14.1772 195.959 14.1772C195.765 14.1772 195.594 14.2139 195.445 14.2871C195.295 14.3574 195.169 14.4702 195.067 14.6255C194.967 14.7808 194.891 14.9844 194.838 15.2363C194.785 15.4883 194.759 15.7944 194.759 16.1548V17.3984C194.759 17.6855 194.775 17.939 194.807 18.1587C194.843 18.3784 194.894 18.5688 194.961 18.73C195.029 18.8882 195.111 19.0186 195.207 19.1211C195.304 19.2236 195.415 19.2998 195.541 19.3496C195.67 19.3965 195.812 19.4199 195.968 19.4199C196.167 19.4199 196.341 19.3818 196.491 19.3057C196.64 19.2295 196.765 19.1108 196.864 18.9497C196.967 18.7856 197.043 18.5762 197.093 18.3213C197.142 18.0635 197.167 17.7559 197.167 17.3984Z" fill="white"/>
<path d="M209.11 13.5664V20H208.297V14.5815L206.658 15.1792V14.4453L208.982 13.5664H209.11ZM215.517 16.291V17.2666C215.517 17.791 215.47 18.2334 215.376 18.5938C215.283 18.9541 215.148 19.2441 214.972 19.4639C214.796 19.6836 214.584 19.8433 214.335 19.9429C214.089 20.0396 213.811 20.0879 213.5 20.0879C213.254 20.0879 213.027 20.0571 212.819 19.9956C212.611 19.9341 212.423 19.8359 212.256 19.7012C212.092 19.5635 211.952 19.3848 211.834 19.165C211.717 18.9453 211.628 18.6787 211.566 18.3652C211.505 18.0518 211.474 17.6855 211.474 17.2666V16.291C211.474 15.7666 211.521 15.3271 211.615 14.9727C211.711 14.6182 211.848 14.334 212.023 14.1201C212.199 13.9033 212.41 13.748 212.656 13.6543C212.905 13.5605 213.184 13.5137 213.491 13.5137C213.74 13.5137 213.969 13.5444 214.177 13.606C214.388 13.6646 214.575 13.7598 214.739 13.8916C214.903 14.0205 215.042 14.1934 215.157 14.4102C215.274 14.624 215.363 14.8862 215.425 15.1968C215.486 15.5073 215.517 15.8721 215.517 16.291ZM214.7 17.3984V16.1548C214.7 15.8677 214.682 15.6157 214.647 15.3989C214.615 15.1792 214.566 14.9917 214.502 14.8364C214.438 14.6812 214.355 14.5552 214.256 14.4585C214.159 14.3618 214.046 14.2915 213.917 14.2476C213.792 14.2007 213.649 14.1772 213.491 14.1772C213.298 14.1772 213.126 14.2139 212.977 14.2871C212.828 14.3574 212.702 14.4702 212.599 14.6255C212.5 14.7808 212.423 14.9844 212.371 15.2363C212.318 15.4883 212.292 15.7944 212.292 16.1548V17.3984C212.292 17.6855 212.308 17.939 212.34 18.1587C212.375 18.3784 212.426 18.5688 212.494 18.73C212.561 18.8882 212.643 19.0186 212.74 19.1211C212.836 19.2236 212.948 19.2998 213.074 19.3496C213.203 19.3965 213.345 19.4199 213.5 19.4199C213.699 19.4199 213.874 19.3818 214.023 19.3057C214.172 19.2295 214.297 19.1108 214.396 18.9497C214.499 18.7856 214.575 18.5762 214.625 18.3213C214.675 18.0635 214.7 17.7559 214.7 17.3984ZM220.58 16.291V17.2666C220.58 17.791 220.533 18.2334 220.439 18.5938C220.345 18.9541 220.21 19.2441 220.035 19.4639C219.859 19.6836 219.646 19.8433 219.397 19.9429C219.151 20.0396 218.873 20.0879 218.562 20.0879C218.316 20.0879 218.089 20.0571 217.881 19.9956C217.673 19.9341 217.486 19.8359 217.319 19.7012C217.155 19.5635 217.014 19.3848 216.897 19.165C216.78 18.9453 216.69 18.6787 216.629 18.3652C216.567 18.0518 216.537 17.6855 216.537 17.2666V16.291C216.537 15.7666 216.583 15.3271 216.677 14.9727C216.774 14.6182 216.91 14.334 217.086 14.1201C217.262 13.9033 217.473 13.748 217.719 13.6543C217.968 13.5605 218.246 13.5137 218.554 13.5137C218.803 13.5137 219.031 13.5444 219.239 13.606C219.45 13.6646 219.638 13.7598 219.802 13.8916C219.966 14.0205 220.105 14.1934 220.219 14.4102C220.336 14.624 220.426 14.8862 220.487 15.1968C220.549 15.5073 220.58 15.8721 220.58 16.291ZM219.762 17.3984V16.1548C219.762 15.8677 219.745 15.6157 219.709 15.3989C219.677 15.1792 219.629 14.9917 219.564 14.8364C219.5 14.6812 219.418 14.5552 219.318 14.4585C219.222 14.3618 219.109 14.2915 218.98 14.2476C218.854 14.2007 218.712 14.1772 218.554 14.1772C218.36 14.1772 218.189 14.2139 218.04 14.2871C217.89 14.3574 217.764 14.4702 217.662 14.6255C217.562 14.7808 217.486 14.9844 217.433 15.2363C217.38 15.4883 217.354 15.7944 217.354 16.1548V17.3984C217.354 17.6855 217.37 17.939 217.402 18.1587C217.438 18.3784 217.489 18.5688 217.556 18.73C217.624 18.8882 217.706 19.0186 217.802 19.1211C217.899 19.2236 218.01 19.2998 218.136 19.3496C218.265 19.3965 218.407 19.4199 218.562 19.4199C218.762 19.4199 218.936 19.3818 219.085 19.3057C219.235 19.2295 219.359 19.1108 219.459 18.9497C219.562 18.7856 219.638 18.5762 219.688 18.3213C219.737 18.0635 219.762 17.7559 219.762 17.3984Z" fill="white"/>
<path d="M0 3.5C0 1.567 1.567 0 3.5 0H17.6296V7H3.5C1.567 7 0 5.433 0 3.5Z" fill="#994C00"/>
<path d="M233.417 3.5C233.417 5.433 231.85 7 229.917 7L215.787 7V0L229.917 0C231.85 0 233.417 1.567 233.417 3.5Z" fill="#003366"/>
<rect x="17.6298" width="22.5267" height="7" fill="#CC6600"/>
<rect x="40.1565" width="21.5473" height="7" fill="#FF8000"/>
<rect x="61.7036" width="21.5473" height="7" fill="#FFC133"/>
<rect x="83.251" width="22.5267" height="7" fill="#FFFF66"/>
<rect x="105.778" width="21.5473" height="7" fill="white"/>
<rect x="127.325" width="22.5267" height="7" fill="#99FFFF"/>
<rect x="149.852" width="21.5473" height="7" fill="#66B2FF"/>
<rect x="171.399" width="22.5267" height="7" fill="#0066CC"/>
<rect x="193.926" width="21.5473" height="7" fill="#004C99"/>
</svg>
