<svg width="238" height="21" viewBox="0 0 238 21" fill="none" xmlns="http://www.w3.org/2000/svg">
<path d="M16.6834 13.9961V19H16.0511V14.7856L14.7762 15.2505V14.6797L16.5843 13.9961H16.6834Z" fill="white"/>
<path d="M33.1006 16.6313L32.5947 16.5015L32.8442 14.0234H35.3975V14.6079H33.3809L33.2305 15.9614C33.3216 15.909 33.4367 15.86 33.5757 15.8145C33.717 15.7689 33.8788 15.7461 34.061 15.7461C34.2912 15.7461 34.4974 15.786 34.6797 15.8657C34.862 15.9432 35.0169 16.0549 35.1445 16.2007C35.2744 16.3465 35.3735 16.522 35.4419 16.7271C35.5103 16.9321 35.5444 17.1611 35.5444 17.4141C35.5444 17.6533 35.5114 17.8732 35.4453 18.0737C35.3815 18.2743 35.2847 18.4497 35.1548 18.6001C35.0249 18.7482 34.8608 18.8633 34.6626 18.9453C34.4666 19.0273 34.2354 19.0684 33.9688 19.0684C33.7682 19.0684 33.578 19.041 33.398 18.9863C33.2202 18.9294 33.0607 18.8439 32.9194 18.73C32.7804 18.6138 32.6665 18.4702 32.5776 18.2993C32.4911 18.1261 32.4364 17.9233 32.4136 17.6909H33.0151C33.0425 17.8778 33.0972 18.035 33.1792 18.1626C33.2612 18.2902 33.3683 18.387 33.5005 18.4531C33.6349 18.5169 33.791 18.5488 33.9688 18.5488C34.1192 18.5488 34.2525 18.5226 34.3687 18.4702C34.4849 18.4178 34.5829 18.3426 34.6626 18.2446C34.7424 18.1466 34.8027 18.0282 34.8438 17.8892C34.8871 17.7502 34.9087 17.5941 34.9087 17.4209C34.9087 17.2637 34.8871 17.1178 34.8438 16.9834C34.8005 16.849 34.7355 16.7316 34.6489 16.6313C34.5646 16.5311 34.4609 16.4536 34.3379 16.3989C34.2149 16.342 34.0736 16.3135 33.9141 16.3135C33.7022 16.3135 33.5415 16.342 33.4321 16.3989C33.325 16.4559 33.2145 16.5334 33.1006 16.6313Z" fill="white"/>
<path d="M51.4102 13.9961V19H50.7778V14.7856L49.5029 15.2505V14.6797L51.311 13.9961H51.4102ZM56.3936 16.1152V16.874C56.3936 17.2819 56.3571 17.626 56.2842 17.9062C56.2113 18.1865 56.1065 18.4121 55.9697 18.583C55.833 18.7539 55.6678 18.8781 55.4741 18.9556C55.2827 19.0308 55.0663 19.0684 54.8247 19.0684C54.6333 19.0684 54.4567 19.0444 54.2949 18.9966C54.1331 18.9487 53.9873 18.8724 53.8574 18.7676C53.7298 18.6605 53.6205 18.5215 53.5293 18.3506C53.4382 18.1797 53.3687 17.9723 53.3208 17.7285C53.273 17.4847 53.249 17.1999 53.249 16.874V16.1152C53.249 15.7074 53.2855 15.3656 53.3584 15.0898C53.4336 14.8141 53.5396 14.5931 53.6763 14.4268C53.813 14.2581 53.9771 14.1374 54.1685 14.0645C54.3622 13.9915 54.5786 13.9551 54.8179 13.9551C55.0116 13.9551 55.1893 13.979 55.3511 14.0269C55.5151 14.0724 55.661 14.1465 55.7886 14.249C55.9162 14.3493 56.0244 14.4837 56.1133 14.6523C56.2044 14.8187 56.2739 15.0226 56.3218 15.2642C56.3696 15.5057 56.3936 15.7894 56.3936 16.1152ZM55.7578 16.9766V16.0093C55.7578 15.786 55.7442 15.59 55.7168 15.4214C55.6917 15.2505 55.6541 15.1047 55.604 14.9839C55.5539 14.8631 55.4901 14.7651 55.4126 14.6899C55.3374 14.6147 55.2497 14.5601 55.1494 14.5259C55.0514 14.4894 54.9409 14.4712 54.8179 14.4712C54.6675 14.4712 54.5342 14.4997 54.418 14.5566C54.3018 14.6113 54.2038 14.6991 54.124 14.8198C54.0466 14.9406 53.9873 15.099 53.9463 15.2949C53.9053 15.4909 53.8848 15.729 53.8848 16.0093V16.9766C53.8848 17.1999 53.8973 17.397 53.9224 17.5679C53.9497 17.7388 53.9896 17.8869 54.042 18.0122C54.0944 18.1353 54.1582 18.2367 54.2334 18.3164C54.3086 18.3962 54.3952 18.4554 54.4932 18.4941C54.5934 18.5306 54.7039 18.5488 54.8247 18.5488C54.9797 18.5488 55.1152 18.5192 55.2315 18.46C55.3477 18.4007 55.4445 18.3084 55.522 18.1831C55.6017 18.0555 55.661 17.8926 55.6997 17.6943C55.7385 17.4938 55.7578 17.2546 55.7578 16.9766Z" fill="white"/>
<path d="M69.2949 13.9961V19H68.6626V14.7856L67.3877 15.2505V14.6797L69.1958 13.9961H69.2949ZM71.9541 16.6313L71.4482 16.5015L71.6977 14.0234H74.251V14.6079H72.2344L72.084 15.9614C72.1751 15.909 72.2902 15.86 72.4292 15.8145C72.5705 15.7689 72.7322 15.7461 72.9145 15.7461C73.1447 15.7461 73.3509 15.786 73.5332 15.8657C73.7155 15.9432 73.8704 16.0549 73.998 16.2007C74.1279 16.3465 74.227 16.522 74.2954 16.7271C74.3637 16.9321 74.3979 17.1611 74.3979 17.4141C74.3979 17.6533 74.3649 17.8732 74.2988 18.0737C74.235 18.2743 74.1382 18.4497 74.0083 18.6001C73.8784 18.7482 73.7143 18.8633 73.5161 18.9453C73.3201 19.0273 73.0888 19.0684 72.8222 19.0684C72.6217 19.0684 72.4315 19.041 72.2514 18.9863C72.0737 18.9294 71.9142 18.8439 71.7729 18.73C71.6339 18.6138 71.52 18.4702 71.4311 18.2993C71.3445 18.1261 71.2899 17.9233 71.2671 17.6909H71.8686C71.896 17.8778 71.9507 18.035 72.0327 18.1626C72.1147 18.2902 72.2218 18.387 72.354 18.4531C72.4884 18.5169 72.6445 18.5488 72.8222 18.5488C72.9726 18.5488 73.1059 18.5226 73.2221 18.4702C73.3384 18.4178 73.4363 18.3426 73.5161 18.2446C73.5958 18.1466 73.6562 18.0282 73.6972 17.8892C73.7405 17.7502 73.7622 17.5941 73.7622 17.4209C73.7622 17.2637 73.7405 17.1178 73.6972 16.9834C73.6539 16.849 73.589 16.7316 73.5024 16.6313C73.4181 16.5311 73.3144 16.4536 73.1914 16.3989C73.0683 16.342 72.9271 16.3135 72.7676 16.3135C72.5556 16.3135 72.395 16.342 72.2856 16.3989C72.1785 16.4559 72.068 16.5334 71.9541 16.6313Z" fill="white"/>
<path d="M89.5144 18.4805V19H86.2571V18.5454L87.8875 16.7305C88.088 16.5072 88.2429 16.318 88.3523 16.1631C88.464 16.0059 88.5414 15.8657 88.5847 15.7427C88.6303 15.6174 88.6531 15.4897 88.6531 15.3599C88.6531 15.1958 88.6189 15.0477 88.5505 14.9155C88.4845 14.7811 88.3865 14.674 88.2566 14.5942C88.1267 14.5145 87.9695 14.4746 87.7849 14.4746C87.5639 14.4746 87.3793 14.5179 87.2312 14.6045C87.0854 14.6888 86.976 14.8073 86.9031 14.96C86.8302 15.1126 86.7937 15.2881 86.7937 15.4863H86.1614C86.1614 15.2061 86.2229 14.9497 86.346 14.7173C86.469 14.4849 86.6513 14.3003 86.8928 14.1636C87.1344 14.0246 87.4317 13.9551 87.7849 13.9551C88.0994 13.9551 88.3683 14.0109 88.5916 14.1226C88.8149 14.2319 88.9858 14.3869 89.1043 14.5874C89.225 14.7856 89.2854 15.0181 89.2854 15.2847C89.2854 15.4305 89.2603 15.5786 89.2102 15.729C89.1624 15.8771 89.0951 16.0252 89.0086 16.1733C88.9242 16.3215 88.8251 16.4673 88.7112 16.6108C88.5995 16.7544 88.4799 16.8957 88.3523 17.0347L87.0193 18.4805H89.5144ZM93.3152 16.1152V16.874C93.3152 17.2819 93.2787 17.626 93.2058 17.9062C93.1329 18.1865 93.0281 18.4121 92.8914 18.583C92.7546 18.7539 92.5894 18.8781 92.3958 18.9556C92.2044 19.0308 91.9879 19.0684 91.7463 19.0684C91.5549 19.0684 91.3783 19.0444 91.2166 18.9966C91.0548 18.9487 90.9089 18.8724 90.7791 18.7676C90.6515 18.6605 90.5421 18.5215 90.4509 18.3506C90.3598 18.1797 90.2903 17.9723 90.2424 17.7285C90.1946 17.4847 90.1707 17.1999 90.1707 16.874V16.1152C90.1707 15.7074 90.2071 15.3656 90.28 15.0898C90.3552 14.8141 90.4612 14.5931 90.5979 14.4268C90.7346 14.2581 90.8987 14.1374 91.0901 14.0645C91.2838 13.9915 91.5003 13.9551 91.7395 13.9551C91.9332 13.9551 92.1109 13.979 92.2727 14.0269C92.4368 14.0724 92.5826 14.1465 92.7102 14.249C92.8378 14.3493 92.9461 14.4837 93.0349 14.6523C93.1261 14.8187 93.1956 15.0226 93.2434 15.2642C93.2913 15.5057 93.3152 15.7894 93.3152 16.1152ZM92.6795 16.9766V16.0093C92.6795 15.786 92.6658 15.59 92.6384 15.4214C92.6134 15.2505 92.5758 15.1047 92.5256 14.9839C92.4755 14.8631 92.4117 14.7651 92.3342 14.6899C92.259 14.6147 92.1713 14.5601 92.0711 14.5259C91.9731 14.4894 91.8626 14.4712 91.7395 14.4712C91.5891 14.4712 91.4558 14.4997 91.3396 14.5566C91.2234 14.6113 91.1254 14.6991 91.0457 14.8198C90.9682 14.9406 90.9089 15.099 90.8679 15.2949C90.8269 15.4909 90.8064 15.729 90.8064 16.0093V16.9766C90.8064 17.1999 90.8189 17.397 90.844 17.5679C90.8713 17.7388 90.9112 17.8869 90.9636 18.0122C91.016 18.1353 91.0798 18.2367 91.155 18.3164C91.2302 18.3962 91.3168 18.4554 91.4148 18.4941C91.5151 18.5306 91.6256 18.5488 91.7463 18.5488C91.9013 18.5488 92.0369 18.5192 92.1531 18.46C92.2693 18.4007 92.3661 18.3084 92.4436 18.1831C92.5234 18.0555 92.5826 17.8926 92.6213 17.6943C92.6601 17.4938 92.6795 17.2546 92.6795 16.9766Z" fill="white"/>
<path d="M107.654 17.3252V17.8447H104.058V17.4722L106.287 14.0234H106.803L106.249 15.0215L104.776 17.3252H107.654ZM106.96 14.0234V19H106.328V14.0234H106.96ZM111.352 16.1152V16.874C111.352 17.2819 111.316 17.626 111.243 17.9062C111.17 18.1865 111.065 18.4121 110.929 18.583C110.792 18.7539 110.627 18.8781 110.433 18.9556C110.242 19.0308 110.025 19.0684 109.784 19.0684C109.592 19.0684 109.416 19.0444 109.254 18.9966C109.092 18.9487 108.946 18.8724 108.816 18.7676C108.689 18.6605 108.579 18.5215 108.488 18.3506C108.397 18.1797 108.327 17.9723 108.28 17.7285C108.232 17.4847 108.208 17.1999 108.208 16.874V16.1152C108.208 15.7074 108.244 15.3656 108.317 15.0898C108.392 14.8141 108.498 14.5931 108.635 14.4268C108.772 14.2581 108.936 14.1374 109.127 14.0645C109.321 13.9915 109.537 13.9551 109.777 13.9551C109.97 13.9551 110.148 13.979 110.31 14.0269C110.474 14.0724 110.62 14.1465 110.747 14.249C110.875 14.3493 110.983 14.4837 111.072 14.6523C111.163 14.8187 111.233 15.0226 111.281 15.2642C111.328 15.5057 111.352 15.7894 111.352 16.1152ZM110.717 16.9766V16.0093C110.717 15.786 110.703 15.59 110.676 15.4214C110.651 15.2505 110.613 15.1047 110.563 14.9839C110.513 14.8631 110.449 14.7651 110.371 14.6899C110.296 14.6147 110.209 14.5601 110.108 14.5259C110.01 14.4894 109.9 14.4712 109.777 14.4712C109.626 14.4712 109.493 14.4997 109.377 14.5566C109.261 14.6113 109.163 14.6991 109.083 14.8198C109.005 14.9406 108.946 15.099 108.905 15.2949C108.864 15.4909 108.844 15.729 108.844 16.0093V16.9766C108.844 17.1999 108.856 17.397 108.881 17.5679C108.909 17.7388 108.948 17.8869 109.001 18.0122C109.053 18.1353 109.117 18.2367 109.192 18.3164C109.267 18.3962 109.354 18.4554 109.452 18.4941C109.552 18.5306 109.663 18.5488 109.784 18.5488C109.938 18.5488 110.074 18.5192 110.19 18.46C110.306 18.4007 110.403 18.3084 110.481 18.1831C110.561 18.0555 110.62 17.8926 110.659 17.6943C110.697 17.4938 110.717 17.2546 110.717 16.9766Z" fill="white"/>
<path d="M123.128 16.6313L122.622 16.5015L122.871 14.0234H125.425V14.6079H123.408L123.258 15.9614C123.349 15.909 123.464 15.86 123.603 15.8145C123.744 15.7689 123.906 15.7461 124.088 15.7461C124.318 15.7461 124.525 15.786 124.707 15.8657C124.889 15.9432 125.044 16.0549 125.172 16.2007C125.302 16.3465 125.401 16.522 125.469 16.7271C125.537 16.9321 125.572 17.1611 125.572 17.4141C125.572 17.6533 125.539 17.8732 125.472 18.0737C125.409 18.2743 125.312 18.4497 125.182 18.6001C125.052 18.7482 124.888 18.8633 124.69 18.9453C124.494 19.0273 124.262 19.0684 123.996 19.0684C123.795 19.0684 123.605 19.041 123.425 18.9863C123.247 18.9294 123.088 18.8439 122.947 18.73C122.808 18.6138 122.694 18.4702 122.605 18.2993C122.518 18.1261 122.463 17.9233 122.441 17.6909H123.042C123.07 17.8778 123.124 18.035 123.206 18.1626C123.288 18.2902 123.395 18.387 123.528 18.4531C123.662 18.5169 123.818 18.5488 123.996 18.5488C124.146 18.5488 124.28 18.5226 124.396 18.4702C124.512 18.4178 124.61 18.3426 124.69 18.2446C124.769 18.1466 124.83 18.0282 124.871 17.8892C124.914 17.7502 124.936 17.5941 124.936 17.4209C124.936 17.2637 124.914 17.1178 124.871 16.9834C124.828 16.849 124.763 16.7316 124.676 16.6313C124.592 16.5311 124.488 16.4536 124.365 16.3989C124.242 16.342 124.101 16.3135 123.941 16.3135C123.729 16.3135 123.569 16.342 123.459 16.3989C123.352 16.4559 123.242 16.5334 123.128 16.6313ZM129.389 16.1152V16.874C129.389 17.2819 129.353 17.626 129.28 17.9062C129.207 18.1865 129.102 18.4121 128.966 18.583C128.829 18.7539 128.664 18.8781 128.47 18.9556C128.279 19.0308 128.062 19.0684 127.821 19.0684C127.629 19.0684 127.453 19.0444 127.291 18.9966C127.129 18.9487 126.983 18.8724 126.853 18.7676C126.726 18.6605 126.616 18.5215 126.525 18.3506C126.434 18.1797 126.365 17.9723 126.317 17.7285C126.269 17.4847 126.245 17.1999 126.245 16.874V16.1152C126.245 15.7074 126.281 15.3656 126.354 15.0898C126.429 14.8141 126.535 14.5931 126.672 14.4268C126.809 14.2581 126.973 14.1374 127.164 14.0645C127.358 13.9915 127.574 13.9551 127.814 13.9551C128.007 13.9551 128.185 13.979 128.347 14.0269C128.511 14.0724 128.657 14.1465 128.784 14.249C128.912 14.3493 129.02 14.4837 129.109 14.6523C129.2 14.8187 129.27 15.0226 129.318 15.2642C129.365 15.5057 129.389 15.7894 129.389 16.1152ZM128.754 16.9766V16.0093C128.754 15.786 128.74 15.59 128.713 15.4214C128.688 15.2505 128.65 15.1047 128.6 14.9839C128.55 14.8631 128.486 14.7651 128.408 14.6899C128.333 14.6147 128.246 14.5601 128.145 14.5259C128.047 14.4894 127.937 14.4712 127.814 14.4712C127.663 14.4712 127.53 14.4997 127.414 14.5566C127.298 14.6113 127.2 14.6991 127.12 14.8198C127.042 14.9406 126.983 15.099 126.942 15.2949C126.901 15.4909 126.881 15.729 126.881 16.0093V16.9766C126.881 17.1999 126.893 17.397 126.918 17.5679C126.946 17.7388 126.985 17.8869 127.038 18.0122C127.09 18.1353 127.154 18.2367 127.229 18.3164C127.304 18.3962 127.391 18.4554 127.489 18.4941C127.589 18.5306 127.7 18.5488 127.821 18.5488C127.976 18.5488 128.111 18.5192 128.227 18.46C128.344 18.4007 128.44 18.3084 128.518 18.1831C128.598 18.0555 128.657 17.8926 128.696 17.6943C128.734 17.4938 128.754 17.2546 128.754 16.9766Z" fill="white"/>
<path d="M140.302 14.0166H140.357V14.5532H140.302C139.967 14.5532 139.687 14.6079 139.461 14.7173C139.236 14.8244 139.057 14.9691 138.925 15.1514C138.793 15.3314 138.697 15.5342 138.638 15.7598C138.581 15.9854 138.552 16.2144 138.552 16.4468V17.1782C138.552 17.3993 138.578 17.5952 138.631 17.7661C138.683 17.9347 138.755 18.0771 138.846 18.1934C138.937 18.3096 139.04 18.3973 139.154 18.4565C139.27 18.5158 139.391 18.5454 139.516 18.5454C139.662 18.5454 139.792 18.5181 139.906 18.4634C140.02 18.4064 140.115 18.3278 140.193 18.2275C140.273 18.125 140.333 18.0042 140.374 17.8652C140.415 17.7262 140.435 17.5736 140.435 17.4072C140.435 17.2591 140.417 17.1167 140.381 16.98C140.344 16.841 140.288 16.7179 140.213 16.6108C140.138 16.5015 140.044 16.416 139.93 16.3545C139.818 16.2907 139.685 16.2588 139.53 16.2588C139.354 16.2588 139.19 16.3021 139.037 16.3887C138.887 16.473 138.763 16.5846 138.665 16.7236C138.569 16.8604 138.515 17.0096 138.501 17.1714L138.166 17.168C138.198 16.9128 138.257 16.6951 138.344 16.5151C138.433 16.3328 138.542 16.1847 138.672 16.0708C138.804 15.9546 138.951 15.8703 139.113 15.8179C139.277 15.7632 139.45 15.7358 139.632 15.7358C139.881 15.7358 140.095 15.7826 140.275 15.876C140.455 15.9694 140.603 16.0947 140.719 16.252C140.835 16.4069 140.921 16.5824 140.975 16.7783C141.032 16.972 141.061 17.1714 141.061 17.3765C141.061 17.6112 141.028 17.8311 140.962 18.0361C140.896 18.2412 140.797 18.4212 140.664 18.5762C140.535 18.7311 140.374 18.8519 140.183 18.9385C139.991 19.0251 139.769 19.0684 139.516 19.0684C139.247 19.0684 139.012 19.0137 138.812 18.9043C138.611 18.7926 138.445 18.6445 138.313 18.46C138.181 18.2754 138.082 18.0703 138.016 17.8447C137.949 17.6191 137.916 17.3901 137.916 17.1577V16.8604C137.916 16.5094 137.952 16.1654 138.022 15.8281C138.093 15.4909 138.215 15.1855 138.388 14.9121C138.564 14.6387 138.806 14.4211 139.116 14.2593C139.426 14.0975 139.821 14.0166 140.302 14.0166ZM142.613 16.6313L142.107 16.5015L142.356 14.0234H144.91V14.6079H142.893L142.743 15.9614C142.834 15.909 142.949 15.86 143.088 15.8145C143.229 15.7689 143.391 15.7461 143.573 15.7461C143.803 15.7461 144.009 15.786 144.192 15.8657C144.374 15.9432 144.529 16.0549 144.657 16.2007C144.787 16.3465 144.886 16.522 144.954 16.7271C145.022 16.9321 145.057 17.1611 145.057 17.4141C145.057 17.6533 145.023 17.8732 144.957 18.0737C144.894 18.2743 144.797 18.4497 144.667 18.6001C144.537 18.7482 144.373 18.8633 144.175 18.9453C143.979 19.0273 143.747 19.0684 143.481 19.0684C143.28 19.0684 143.09 19.041 142.91 18.9863C142.732 18.9294 142.573 18.8439 142.432 18.73C142.293 18.6138 142.179 18.4702 142.09 18.2993C142.003 18.1261 141.948 17.9233 141.926 17.6909H142.527C142.555 17.8778 142.609 18.035 142.691 18.1626C142.773 18.2902 142.88 18.387 143.013 18.4531C143.147 18.5169 143.303 18.5488 143.481 18.5488C143.631 18.5488 143.765 18.5226 143.881 18.4702C143.997 18.4178 144.095 18.3426 144.175 18.2446C144.254 18.1466 144.315 18.0282 144.356 17.8892C144.399 17.7502 144.421 17.5941 144.421 17.4209C144.421 17.2637 144.399 17.1178 144.356 16.9834C144.313 16.849 144.248 16.7316 144.161 16.6313C144.077 16.5311 143.973 16.4536 143.85 16.3989C143.727 16.342 143.586 16.3135 143.426 16.3135C143.214 16.3135 143.054 16.342 142.944 16.3989C142.837 16.4559 142.727 16.5334 142.613 16.6313Z" fill="white"/>
<path d="M161.05 17.6533C161.05 17.9564 160.98 18.2139 160.838 18.4258C160.699 18.6354 160.51 18.7949 160.271 18.9043C160.034 19.0137 159.766 19.0684 159.468 19.0684C159.169 19.0684 158.9 19.0137 158.661 18.9043C158.422 18.7949 158.233 18.6354 158.094 18.4258C157.955 18.2139 157.885 17.9564 157.885 17.6533C157.885 17.4551 157.923 17.2739 157.998 17.1099C158.075 16.9435 158.184 16.7988 158.323 16.6758C158.464 16.5527 158.63 16.4582 158.822 16.3921C159.015 16.3237 159.228 16.2896 159.461 16.2896C159.766 16.2896 160.038 16.3488 160.278 16.4673C160.517 16.5835 160.705 16.7441 160.842 16.9492C160.981 17.1543 161.05 17.389 161.05 17.6533ZM160.414 17.6396C160.414 17.4551 160.375 17.2922 160.295 17.1509C160.215 17.0073 160.103 16.8957 159.96 16.8159C159.816 16.7362 159.65 16.6963 159.461 16.6963C159.267 16.6963 159.1 16.7362 158.958 16.8159C158.819 16.8957 158.711 17.0073 158.634 17.1509C158.556 17.2922 158.517 17.4551 158.517 17.6396C158.517 17.8311 158.555 17.9951 158.63 18.1318C158.708 18.2663 158.817 18.37 158.958 18.4429C159.102 18.5135 159.272 18.5488 159.468 18.5488C159.664 18.5488 159.832 18.5135 159.973 18.4429C160.115 18.37 160.223 18.2663 160.298 18.1318C160.376 17.9951 160.414 17.8311 160.414 17.6396ZM160.934 15.3188C160.934 15.5604 160.87 15.778 160.743 15.9717C160.615 16.1654 160.441 16.318 160.22 16.4297C159.999 16.5413 159.748 16.5972 159.468 16.5972C159.183 16.5972 158.929 16.5413 158.705 16.4297C158.484 16.318 158.311 16.1654 158.186 15.9717C158.061 15.778 157.998 15.5604 157.998 15.3188C157.998 15.0295 158.061 14.7834 158.186 14.5806C158.313 14.3778 158.488 14.2228 158.709 14.1157C158.93 14.0086 159.182 13.9551 159.464 13.9551C159.749 13.9551 160.002 14.0086 160.223 14.1157C160.444 14.2228 160.617 14.3778 160.743 14.5806C160.87 14.7834 160.934 15.0295 160.934 15.3188ZM160.302 15.3291C160.302 15.1628 160.266 15.0158 160.196 14.8882C160.125 14.7606 160.027 14.6603 159.902 14.5874C159.776 14.5122 159.631 14.4746 159.464 14.4746C159.298 14.4746 159.152 14.5099 159.027 14.5806C158.904 14.6489 158.807 14.7469 158.736 14.8745C158.668 15.0021 158.634 15.1536 158.634 15.3291C158.634 15.5 158.668 15.6493 158.736 15.7769C158.807 15.9045 158.905 16.0036 159.03 16.0742C159.155 16.1449 159.301 16.1802 159.468 16.1802C159.634 16.1802 159.779 16.1449 159.902 16.0742C160.027 16.0036 160.125 15.9045 160.196 15.7769C160.266 15.6493 160.302 15.5 160.302 15.3291ZM164.974 16.1152V16.874C164.974 17.2819 164.938 17.626 164.865 17.9062C164.792 18.1865 164.687 18.4121 164.55 18.583C164.413 18.7539 164.248 18.8781 164.055 18.9556C163.863 19.0308 163.647 19.0684 163.405 19.0684C163.214 19.0684 163.037 19.0444 162.875 18.9966C162.714 18.9487 162.568 18.8724 162.438 18.7676C162.31 18.6605 162.201 18.5215 162.11 18.3506C162.019 18.1797 161.949 17.9723 161.901 17.7285C161.853 17.4847 161.829 17.1999 161.829 16.874V16.1152C161.829 15.7074 161.866 15.3656 161.939 15.0898C162.014 14.8141 162.12 14.5931 162.257 14.4268C162.393 14.2581 162.557 14.1374 162.749 14.0645C162.943 13.9915 163.159 13.9551 163.398 13.9551C163.592 13.9551 163.77 13.979 163.931 14.0269C164.096 14.0724 164.241 14.1465 164.369 14.249C164.497 14.3493 164.605 14.4837 164.694 14.6523C164.785 14.8187 164.854 15.0226 164.902 15.2642C164.95 15.5057 164.974 15.7894 164.974 16.1152ZM164.338 16.9766V16.0093C164.338 15.786 164.325 15.59 164.297 15.4214C164.272 15.2505 164.235 15.1047 164.184 14.9839C164.134 14.8631 164.07 14.7651 163.993 14.6899C163.918 14.6147 163.83 14.5601 163.73 14.5259C163.632 14.4894 163.521 14.4712 163.398 14.4712C163.248 14.4712 163.115 14.4997 162.998 14.5566C162.882 14.6113 162.784 14.6991 162.704 14.8198C162.627 14.9406 162.568 15.099 162.527 15.2949C162.486 15.4909 162.465 15.729 162.465 16.0093V16.9766C162.465 17.1999 162.478 17.397 162.503 17.5679C162.53 17.7388 162.57 17.8869 162.622 18.0122C162.675 18.1353 162.739 18.2367 162.814 18.3164C162.889 18.3962 162.976 18.4554 163.074 18.4941C163.174 18.5306 163.284 18.5488 163.405 18.5488C163.56 18.5488 163.696 18.5192 163.812 18.46C163.928 18.4007 164.025 18.3084 164.102 18.1831C164.182 18.0555 164.241 17.8926 164.28 17.6943C164.319 17.4938 164.338 17.2546 164.338 16.9766Z" fill="white"/>
<path d="M175.085 13.9961V19H174.453V14.7856L173.178 15.2505V14.6797L174.986 13.9961H175.085ZM180.069 16.1152V16.874C180.069 17.2819 180.032 17.626 179.959 17.9062C179.887 18.1865 179.782 18.4121 179.645 18.583C179.508 18.7539 179.343 18.8781 179.149 18.9556C178.958 19.0308 178.742 19.0684 178.5 19.0684C178.309 19.0684 178.132 19.0444 177.97 18.9966C177.808 18.9487 177.663 18.8724 177.533 18.7676C177.405 18.6605 177.296 18.5215 177.205 18.3506C177.113 18.1797 177.044 17.9723 176.996 17.7285C176.948 17.4847 176.924 17.1999 176.924 16.874V16.1152C176.924 15.7074 176.961 15.3656 177.034 15.0898C177.109 14.8141 177.215 14.5931 177.352 14.4268C177.488 14.2581 177.652 14.1374 177.844 14.0645C178.037 13.9915 178.254 13.9551 178.493 13.9551C178.687 13.9551 178.865 13.979 179.026 14.0269C179.19 14.0724 179.336 14.1465 179.464 14.249C179.591 14.3493 179.7 14.4837 179.789 14.6523C179.88 14.8187 179.949 15.0226 179.997 15.2642C180.045 15.5057 180.069 15.7894 180.069 16.1152ZM179.433 16.9766V16.0093C179.433 15.786 179.419 15.59 179.392 15.4214C179.367 15.2505 179.329 15.1047 179.279 14.9839C179.229 14.8631 179.165 14.7651 179.088 14.6899C179.013 14.6147 178.925 14.5601 178.825 14.5259C178.727 14.4894 178.616 14.4712 178.493 14.4712C178.343 14.4712 178.209 14.4997 178.093 14.5566C177.977 14.6113 177.879 14.6991 177.799 14.8198C177.722 14.9406 177.663 15.099 177.622 15.2949C177.581 15.4909 177.56 15.729 177.56 16.0093V16.9766C177.56 17.1999 177.573 17.397 177.598 17.5679C177.625 17.7388 177.665 17.8869 177.717 18.0122C177.77 18.1353 177.833 18.2367 177.909 18.3164C177.984 18.3962 178.07 18.4554 178.168 18.4941C178.269 18.5306 178.379 18.5488 178.5 18.5488C178.655 18.5488 178.791 18.5192 178.907 18.46C179.023 18.4007 179.12 18.3084 179.197 18.1831C179.277 18.0555 179.336 17.8926 179.375 17.6943C179.414 17.4938 179.433 17.2546 179.433 16.9766ZM184.006 16.1152V16.874C184.006 17.2819 183.97 17.626 183.897 17.9062C183.824 18.1865 183.719 18.4121 183.583 18.583C183.446 18.7539 183.281 18.8781 183.087 18.9556C182.896 19.0308 182.679 19.0684 182.438 19.0684C182.246 19.0684 182.069 19.0444 181.908 18.9966C181.746 18.9487 181.6 18.8724 181.47 18.7676C181.343 18.6605 181.233 18.5215 181.142 18.3506C181.051 18.1797 180.981 17.9723 180.934 17.7285C180.886 17.4847 180.862 17.1999 180.862 16.874V16.1152C180.862 15.7074 180.898 15.3656 180.971 15.0898C181.046 14.8141 181.152 14.5931 181.289 14.4268C181.426 14.2581 181.59 14.1374 181.781 14.0645C181.975 13.9915 182.191 13.9551 182.431 13.9551C182.624 13.9551 182.802 13.979 182.964 14.0269C183.128 14.0724 183.274 14.1465 183.401 14.249C183.529 14.3493 183.637 14.4837 183.726 14.6523C183.817 14.8187 183.887 15.0226 183.935 15.2642C183.982 15.5057 184.006 15.7894 184.006 16.1152ZM183.371 16.9766V16.0093C183.371 15.786 183.357 15.59 183.33 15.4214C183.305 15.2505 183.267 15.1047 183.217 14.9839C183.167 14.8631 183.103 14.7651 183.025 14.6899C182.95 14.6147 182.862 14.5601 182.762 14.5259C182.664 14.4894 182.554 14.4712 182.431 14.4712C182.28 14.4712 182.147 14.4997 182.031 14.5566C181.915 14.6113 181.817 14.6991 181.737 14.8198C181.659 14.9406 181.6 15.099 181.559 15.2949C181.518 15.4909 181.498 15.729 181.498 16.0093V16.9766C181.498 17.1999 181.51 17.397 181.535 17.5679C181.562 17.7388 181.602 17.8869 181.655 18.0122C181.707 18.1353 181.771 18.2367 181.846 18.3164C181.921 18.3962 182.008 18.4554 182.106 18.4941C182.206 18.5306 182.317 18.5488 182.438 18.5488C182.592 18.5488 182.728 18.5192 182.844 18.46C182.96 18.4007 183.057 18.3084 183.135 18.1831C183.215 18.0555 183.274 17.8926 183.312 17.6943C183.351 17.4938 183.371 17.2546 183.371 16.9766Z" fill="white"/>
<path d="M193.085 13.9961V19H192.453V14.7856L191.178 15.2505V14.6797L192.986 13.9961H193.085ZM195.745 16.6313L195.239 16.5015L195.488 14.0234H198.042V14.6079H196.025L195.875 15.9614C195.966 15.909 196.081 15.86 196.22 15.8145C196.361 15.7689 196.523 15.7461 196.705 15.7461C196.935 15.7461 197.141 15.786 197.324 15.8657C197.506 15.9432 197.661 16.0549 197.789 16.2007C197.918 16.3465 198.018 16.522 198.086 16.7271C198.154 16.9321 198.188 17.1611 198.188 17.4141C198.188 17.6533 198.155 17.8732 198.089 18.0737C198.026 18.2743 197.929 18.4497 197.799 18.6001C197.669 18.7482 197.505 18.8633 197.307 18.9453C197.111 19.0273 196.879 19.0684 196.613 19.0684C196.412 19.0684 196.222 19.041 196.042 18.9863C195.864 18.9294 195.705 18.8439 195.563 18.73C195.424 18.6138 195.311 18.4702 195.222 18.2993C195.135 18.1261 195.08 17.9233 195.058 17.6909H195.659C195.687 17.8778 195.741 18.035 195.823 18.1626C195.905 18.2902 196.012 18.387 196.145 18.4531C196.279 18.5169 196.435 18.5488 196.613 18.5488C196.763 18.5488 196.896 18.5226 197.013 18.4702C197.129 18.4178 197.227 18.3426 197.307 18.2446C197.386 18.1466 197.447 18.0282 197.488 17.8892C197.531 17.7502 197.553 17.5941 197.553 17.4209C197.553 17.2637 197.531 17.1178 197.488 16.9834C197.444 16.849 197.38 16.7316 197.293 16.6313C197.209 16.5311 197.105 16.4536 196.982 16.3989C196.859 16.342 196.718 16.3135 196.558 16.3135C196.346 16.3135 196.186 16.342 196.076 16.3989C195.969 16.4559 195.859 16.5334 195.745 16.6313ZM202.006 16.1152V16.874C202.006 17.2819 201.97 17.626 201.897 17.9062C201.824 18.1865 201.719 18.4121 201.583 18.583C201.446 18.7539 201.281 18.8781 201.087 18.9556C200.896 19.0308 200.679 19.0684 200.438 19.0684C200.246 19.0684 200.069 19.0444 199.908 18.9966C199.746 18.9487 199.6 18.8724 199.47 18.7676C199.343 18.6605 199.233 18.5215 199.142 18.3506C199.051 18.1797 198.981 17.9723 198.934 17.7285C198.886 17.4847 198.862 17.1999 198.862 16.874V16.1152C198.862 15.7074 198.898 15.3656 198.971 15.0898C199.046 14.8141 199.152 14.5931 199.289 14.4268C199.426 14.2581 199.59 14.1374 199.781 14.0645C199.975 13.9915 200.191 13.9551 200.431 13.9551C200.624 13.9551 200.802 13.979 200.964 14.0269C201.128 14.0724 201.274 14.1465 201.401 14.249C201.529 14.3493 201.637 14.4837 201.726 14.6523C201.817 14.8187 201.887 15.0226 201.935 15.2642C201.982 15.5057 202.006 15.7894 202.006 16.1152ZM201.371 16.9766V16.0093C201.371 15.786 201.357 15.59 201.33 15.4214C201.305 15.2505 201.267 15.1047 201.217 14.9839C201.167 14.8631 201.103 14.7651 201.025 14.6899C200.95 14.6147 200.862 14.5601 200.762 14.5259C200.664 14.4894 200.554 14.4712 200.431 14.4712C200.28 14.4712 200.147 14.4997 200.031 14.5566C199.915 14.6113 199.817 14.6991 199.737 14.8198C199.659 14.9406 199.6 15.099 199.559 15.2949C199.518 15.4909 199.498 15.729 199.498 16.0093V16.9766C199.498 17.1999 199.51 17.397 199.535 17.5679C199.562 17.7388 199.602 17.8869 199.655 18.0122C199.707 18.1353 199.771 18.2367 199.846 18.3164C199.921 18.3962 200.008 18.4554 200.106 18.4941C200.206 18.5306 200.317 18.5488 200.438 18.5488C200.592 18.5488 200.728 18.5192 200.844 18.46C200.96 18.4007 201.057 18.3084 201.135 18.1831C201.215 18.0555 201.274 17.8926 201.312 17.6943C201.351 17.4938 201.371 17.2546 201.371 16.9766Z" fill="white"/>
<path d="M211.268 18.4805V19H208.011V18.5454L209.641 16.7305C209.842 16.5072 209.997 16.318 210.106 16.1631C210.218 16.0059 210.295 15.8657 210.338 15.7427C210.384 15.6174 210.407 15.4897 210.407 15.3599C210.407 15.1958 210.373 15.0477 210.304 14.9155C210.238 14.7811 210.14 14.674 210.01 14.5942C209.88 14.5145 209.723 14.4746 209.539 14.4746C209.318 14.4746 209.133 14.5179 208.985 14.6045C208.839 14.6888 208.73 14.8073 208.657 14.96C208.584 15.1126 208.547 15.2881 208.547 15.4863H207.915C207.915 15.2061 207.977 14.9497 208.1 14.7173C208.223 14.4849 208.405 14.3003 208.646 14.1636C208.888 14.0246 209.185 13.9551 209.539 13.9551C209.853 13.9551 210.122 14.0109 210.345 14.1226C210.569 14.2319 210.739 14.3869 210.858 14.5874C210.979 14.7856 211.039 15.0181 211.039 15.2847C211.039 15.4305 211.014 15.5786 210.964 15.729C210.916 15.8771 210.849 16.0252 210.762 16.1733C210.678 16.3215 210.579 16.4673 210.465 16.6108C210.353 16.7544 210.234 16.8957 210.106 17.0347L208.773 18.4805H211.268ZM212.745 16.6313L212.239 16.5015L212.488 14.0234H215.042V14.6079H213.025L212.875 15.9614C212.966 15.909 213.081 15.86 213.22 15.8145C213.361 15.7689 213.523 15.7461 213.705 15.7461C213.935 15.7461 214.141 15.786 214.324 15.8657C214.506 15.9432 214.661 16.0549 214.789 16.2007C214.918 16.3465 215.018 16.522 215.086 16.7271C215.154 16.9321 215.188 17.1611 215.188 17.4141C215.188 17.6533 215.155 17.8732 215.089 18.0737C215.026 18.2743 214.929 18.4497 214.799 18.6001C214.669 18.7482 214.505 18.8633 214.307 18.9453C214.111 19.0273 213.879 19.0684 213.613 19.0684C213.412 19.0684 213.222 19.041 213.042 18.9863C212.864 18.9294 212.705 18.8439 212.563 18.73C212.424 18.6138 212.311 18.4702 212.222 18.2993C212.135 18.1261 212.08 17.9233 212.058 17.6909H212.659C212.687 17.8778 212.741 18.035 212.823 18.1626C212.905 18.2902 213.012 18.387 213.145 18.4531C213.279 18.5169 213.435 18.5488 213.613 18.5488C213.763 18.5488 213.896 18.5226 214.013 18.4702C214.129 18.4178 214.227 18.3426 214.307 18.2446C214.386 18.1466 214.447 18.0282 214.488 17.8892C214.531 17.7502 214.553 17.5941 214.553 17.4209C214.553 17.2637 214.531 17.1178 214.488 16.9834C214.444 16.849 214.38 16.7316 214.293 16.6313C214.209 16.5311 214.105 16.4536 213.982 16.3989C213.859 16.342 213.718 16.3135 213.558 16.3135C213.346 16.3135 213.186 16.342 213.076 16.3989C212.969 16.4559 212.859 16.5334 212.745 16.6313ZM219.006 16.1152V16.874C219.006 17.2819 218.97 17.626 218.897 17.9062C218.824 18.1865 218.719 18.4121 218.583 18.583C218.446 18.7539 218.281 18.8781 218.087 18.9556C217.896 19.0308 217.679 19.0684 217.438 19.0684C217.246 19.0684 217.069 19.0444 216.908 18.9966C216.746 18.9487 216.6 18.8724 216.47 18.7676C216.343 18.6605 216.233 18.5215 216.142 18.3506C216.051 18.1797 215.981 17.9723 215.934 17.7285C215.886 17.4847 215.862 17.1999 215.862 16.874V16.1152C215.862 15.7074 215.898 15.3656 215.971 15.0898C216.046 14.8141 216.152 14.5931 216.289 14.4268C216.426 14.2581 216.59 14.1374 216.781 14.0645C216.975 13.9915 217.191 13.9551 217.431 13.9551C217.624 13.9551 217.802 13.979 217.964 14.0269C218.128 14.0724 218.274 14.1465 218.401 14.249C218.529 14.3493 218.637 14.4837 218.726 14.6523C218.817 14.8187 218.887 15.0226 218.935 15.2642C218.982 15.5057 219.006 15.7894 219.006 16.1152ZM218.371 16.9766V16.0093C218.371 15.786 218.357 15.59 218.33 15.4214C218.305 15.2505 218.267 15.1047 218.217 14.9839C218.167 14.8631 218.103 14.7651 218.025 14.6899C217.95 14.6147 217.862 14.5601 217.762 14.5259C217.664 14.4894 217.554 14.4712 217.431 14.4712C217.28 14.4712 217.147 14.4997 217.031 14.5566C216.915 14.6113 216.817 14.6991 216.737 14.8198C216.659 14.9406 216.6 15.099 216.559 15.2949C216.518 15.4909 216.498 15.729 216.498 16.0093V16.9766C216.498 17.1999 216.51 17.397 216.535 17.5679C216.562 17.7388 216.602 17.8869 216.655 18.0122C216.707 18.1353 216.771 18.2367 216.846 18.3164C216.921 18.3962 217.008 18.4554 217.106 18.4941C217.206 18.5306 217.317 18.5488 217.438 18.5488C217.592 18.5488 217.728 18.5192 217.844 18.46C217.96 18.4007 218.057 18.3084 218.135 18.1831C218.215 18.0555 218.274 17.8926 218.312 17.6943C218.351 17.4938 218.371 17.2546 218.371 16.9766Z" fill="white"/>
<path d="M0 3.5C0 1.567 1.567 0 3.5 0H18V7H3.5C1.567 7 0 5.433 0 3.5V3.5Z" fill="#BEBEBE"/>
<path d="M232 3.5C232 5.433 230.433 7 228.5 7L214 7V0L228.5 0C230.433 0 232 1.567 232 3.5V3.5Z" fill="#E618B8"/>
<rect x="18" width="18" height="7" fill="#E8E8E6"/>
<rect x="36" width="17" height="7" fill="#BDF2BA"/>
<rect x="53" width="18" height="7" fill="#89F387"/>
<rect x="71" width="18" height="7" fill="#65F420"/>
<rect x="89" width="18" height="7" fill="#A4EE1B"/>
<rect x="107" width="18" height="7" fill="#F4F120"/>
<rect x="125" width="17" height="7" fill="#EED216"/>
<rect x="142" width="19" height="7" fill="#EBAA1A"/>
<rect x="161" width="17" height="7" fill="#EE8F1B"/>
<rect x="178" width="19" height="7" fill="#EB651F"/>
<rect x="197" width="17" height="7" fill="#EF261F"/>
</svg>
