<svg width="238" height="21" viewBox="0 0 238 21" fill="none" xmlns="http://www.w3.org/2000/svg">
<path d="M15.1893 16.9546L14.5389 16.7876L14.8597 13.6016H18.1424V14.353H15.5497L15.3563 16.0933C15.4735 16.0259 15.6214 15.9629 15.8001 15.9043C15.9818 15.8457 16.1898 15.8164 16.4242 15.8164C16.7201 15.8164 16.9852 15.8677 17.2196 15.9702C17.454 16.0698 17.6532 16.2134 17.8172 16.4009C17.9842 16.5884 18.1117 16.814 18.1996 17.0776C18.2875 17.3413 18.3314 17.6357 18.3314 17.9609C18.3314 18.2686 18.2889 18.5513 18.204 18.8091C18.1219 19.0669 17.9974 19.2925 17.8304 19.4858C17.6634 19.6763 17.4525 19.8242 17.1976 19.9297C16.9457 20.0352 16.6483 20.0879 16.3055 20.0879C16.0477 20.0879 15.8031 20.0527 15.5716 19.9824C15.3431 19.9092 15.138 19.7993 14.9564 19.6528C14.7777 19.5034 14.6312 19.3188 14.5169 19.0991C14.4056 18.8765 14.3353 18.6157 14.306 18.3169H15.0794C15.1146 18.5571 15.1849 18.7593 15.2904 18.9233C15.3958 19.0874 15.5335 19.2119 15.7035 19.2969C15.8763 19.3789 16.077 19.4199 16.3055 19.4199C16.4989 19.4199 16.6703 19.3862 16.8197 19.3188C16.9691 19.2515 17.0951 19.1548 17.1976 19.0288C17.3001 18.9028 17.3778 18.7505 17.4305 18.5718C17.4862 18.3931 17.514 18.1924 17.514 17.9697C17.514 17.7676 17.4862 17.5801 17.4305 17.4072C17.3749 17.2344 17.2914 17.0835 17.18 16.9546C17.0716 16.8257 16.9383 16.7261 16.7801 16.6558C16.6219 16.5825 16.4403 16.5459 16.2352 16.5459C15.9627 16.5459 15.7562 16.5825 15.6156 16.6558C15.4779 16.729 15.3358 16.8286 15.1893 16.9546Z" fill="white"/>
<path d="M39.277 13.5664V20H38.464V14.5815L36.8248 15.1792V14.4453L39.1495 13.5664H39.277ZM45.6842 16.291V17.2666C45.6842 17.791 45.6373 18.2334 45.5436 18.5938C45.4498 18.9541 45.3151 19.2441 45.1393 19.4639C44.9635 19.6836 44.7511 19.8433 44.5021 19.9429C44.256 20.0396 43.9777 20.0879 43.6671 20.0879C43.421 20.0879 43.194 20.0571 42.986 19.9956C42.778 19.9341 42.5905 19.8359 42.4235 19.7012C42.2594 19.5635 42.1188 19.3848 42.0016 19.165C41.8844 18.9453 41.7951 18.6787 41.7335 18.3652C41.672 18.0518 41.6412 17.6855 41.6412 17.2666V16.291C41.6412 15.7666 41.6881 15.3271 41.7819 14.9727C41.8786 14.6182 42.0148 14.334 42.1906 14.1201C42.3663 13.9033 42.5773 13.748 42.8234 13.6543C43.0724 13.5605 43.3507 13.5137 43.6583 13.5137C43.9074 13.5137 44.1359 13.5444 44.3439 13.606C44.5548 13.6646 44.7423 13.7598 44.9064 13.8916C45.0704 14.0205 45.2096 14.1934 45.3239 14.4102C45.4411 14.624 45.5304 14.8862 45.5919 15.1968C45.6535 15.5073 45.6842 15.8721 45.6842 16.291ZM44.8668 17.3984V16.1548C44.8668 15.8677 44.8493 15.6157 44.8141 15.3989C44.7819 15.1792 44.7335 14.9917 44.6691 14.8364C44.6046 14.6812 44.5226 14.5552 44.423 14.4585C44.3263 14.3618 44.2135 14.2915 44.0846 14.2476C43.9586 14.2007 43.8165 14.1772 43.6583 14.1772C43.465 14.1772 43.2936 14.2139 43.1442 14.2871C42.9948 14.3574 42.8688 14.4702 42.7662 14.6255C42.6666 14.7808 42.5905 14.9844 42.5377 15.2363C42.485 15.4883 42.4586 15.7944 42.4586 16.1548V17.3984C42.4586 17.6855 42.4747 17.939 42.507 18.1587C42.5421 18.3784 42.5934 18.5688 42.6608 18.73C42.7282 18.8882 42.8102 19.0186 42.9069 19.1211C43.0036 19.2236 43.1149 19.2998 43.2409 19.3496C43.3698 19.3965 43.5119 19.4199 43.6671 19.4199C43.8663 19.4199 44.0407 19.3818 44.1901 19.3057C44.3395 19.2295 44.464 19.1108 44.5636 18.9497C44.6661 18.7856 44.7423 18.5762 44.7921 18.3213C44.8419 18.0635 44.8668 17.7559 44.8668 17.3984Z" fill="white"/>
<path d="M59.8449 13.5664V20H59.0319V14.5815L57.3927 15.1792V14.4453L59.7174 13.5664H59.8449ZM63.2638 16.9546L62.6134 16.7876L62.9342 13.6016H66.2169V14.353H63.6242L63.4308 16.0933C63.548 16.0259 63.6959 15.9629 63.8746 15.9043C64.0563 15.8457 64.2643 15.8164 64.4987 15.8164C64.7946 15.8164 65.0597 15.8677 65.2941 15.9702C65.5285 16.0698 65.7277 16.2134 65.8917 16.4009C66.0587 16.5884 66.1862 16.814 66.2741 17.0776C66.3619 17.3413 66.4059 17.6357 66.4059 17.9609C66.4059 18.2686 66.3634 18.5513 66.2785 18.8091C66.1964 19.0669 66.0719 19.2925 65.9049 19.4858C65.7379 19.6763 65.527 19.8242 65.2721 19.9297C65.0202 20.0352 64.7228 20.0879 64.38 20.0879C64.1222 20.0879 63.8776 20.0527 63.6461 19.9824C63.4176 19.9092 63.2125 19.7993 63.0309 19.6528C62.8522 19.5034 62.7057 19.3188 62.5914 19.0991C62.4801 18.8765 62.4098 18.6157 62.3805 18.3169H63.1539C63.1891 18.5571 63.2594 18.7593 63.3649 18.9233C63.4703 19.0874 63.608 19.2119 63.778 19.2969C63.9508 19.3789 64.1515 19.4199 64.38 19.4199C64.5734 19.4199 64.7448 19.3862 64.8942 19.3188C65.0436 19.2515 65.1696 19.1548 65.2721 19.0288C65.3746 18.9028 65.4523 18.7505 65.505 18.5718C65.5607 18.3931 65.5885 18.1924 65.5885 17.9697C65.5885 17.7676 65.5607 17.5801 65.505 17.4072C65.4494 17.2344 65.3659 17.0835 65.2545 16.9546C65.1461 16.8257 65.0128 16.7261 64.8546 16.6558C64.6964 16.5825 64.5148 16.5459 64.3097 16.5459C64.0372 16.5459 63.8307 16.5825 63.6901 16.6558C63.5524 16.729 63.4103 16.8286 63.2638 16.9546Z" fill="white"/>
<path d="M81.8818 13.5664V20H81.0688V14.5815L79.4297 15.1792V14.4453L81.7544 13.5664H81.8818ZM88.3066 18.2686C88.3066 18.6582 88.2158 18.9893 88.0342 19.2617C87.8554 19.5312 87.6123 19.7363 87.3047 19.877C87 20.0176 86.6557 20.0879 86.2719 20.0879C85.8882 20.0879 85.5425 20.0176 85.2348 19.877C84.9272 19.7363 84.6841 19.5312 84.5053 19.2617C84.3266 18.9893 84.2373 18.6582 84.2373 18.2686C84.2373 18.0137 84.2856 17.7808 84.3823 17.5698C84.4819 17.356 84.6211 17.1699 84.7998 17.0117C84.9814 16.8535 85.1953 16.7319 85.4414 16.647C85.6904 16.5591 85.9643 16.5151 86.2632 16.5151C86.6557 16.5151 87.0058 16.5913 87.3135 16.7437C87.6211 16.8931 87.8628 17.0996 88.0385 17.3633C88.2173 17.627 88.3066 17.9287 88.3066 18.2686ZM87.4892 18.251C87.4892 18.0137 87.438 17.8042 87.3354 17.6226C87.2329 17.438 87.0893 17.2944 86.9048 17.1919C86.7202 17.0894 86.5063 17.0381 86.2632 17.0381C86.0141 17.0381 85.7988 17.0894 85.6172 17.1919C85.4385 17.2944 85.2993 17.438 85.1997 17.6226C85.1001 17.8042 85.0503 18.0137 85.0503 18.251C85.0503 18.4971 85.0986 18.708 85.1953 18.8838C85.2949 19.0566 85.4355 19.1899 85.6172 19.2837C85.8017 19.3745 86.02 19.4199 86.2719 19.4199C86.5239 19.4199 86.7407 19.3745 86.9223 19.2837C87.104 19.1899 87.2431 19.0566 87.3398 18.8838C87.4394 18.708 87.4892 18.4971 87.4892 18.251ZM88.1572 15.2671C88.1572 15.5776 88.0752 15.8574 87.9111 16.1064C87.747 16.3555 87.5229 16.5518 87.2387 16.6953C86.9546 16.8389 86.6323 16.9106 86.2719 16.9106C85.9057 16.9106 85.5791 16.8389 85.292 16.6953C85.0078 16.5518 84.7851 16.3555 84.624 16.1064C84.4629 15.8574 84.3823 15.5776 84.3823 15.2671C84.3823 14.895 84.4629 14.5786 84.624 14.3179C84.7881 14.0571 85.0122 13.8579 85.2964 13.7202C85.5805 13.5825 85.9043 13.5137 86.2676 13.5137C86.6338 13.5137 86.959 13.5825 87.2431 13.7202C87.5273 13.8579 87.75 14.0571 87.9111 14.3179C88.0752 14.5786 88.1572 14.895 88.1572 15.2671ZM87.3442 15.2803C87.3442 15.0664 87.2988 14.8774 87.208 14.7134C87.1172 14.5493 86.9912 14.4204 86.8301 14.3267C86.6689 14.23 86.4814 14.1816 86.2676 14.1816C86.0537 14.1816 85.8662 14.2271 85.7051 14.3179C85.5469 14.4058 85.4223 14.5317 85.3315 14.6958C85.2436 14.8599 85.1997 15.0547 85.1997 15.2803C85.1997 15.5 85.2436 15.6919 85.3315 15.856C85.4223 16.02 85.5483 16.1475 85.7094 16.2383C85.8706 16.3291 86.0581 16.3745 86.2719 16.3745C86.4858 16.3745 86.6719 16.3291 86.8301 16.2383C86.9912 16.1475 87.1172 16.02 87.208 15.856C87.2988 15.6919 87.3442 15.5 87.3442 15.2803Z" fill="white"/>
<path d="M105.439 19.332V20H101.251V19.4155L103.347 17.082C103.605 16.7949 103.804 16.5518 103.945 16.3525C104.089 16.1504 104.188 15.9702 104.244 15.812C104.303 15.6509 104.332 15.4868 104.332 15.3198C104.332 15.1089 104.288 14.9185 104.2 14.7485C104.115 14.5757 103.989 14.438 103.822 14.3354C103.655 14.2329 103.453 14.1816 103.216 14.1816C102.931 14.1816 102.694 14.2373 102.504 14.3486C102.316 14.457 102.176 14.6094 102.082 14.8057C101.988 15.002 101.941 15.2275 101.941 15.4824H101.128C101.128 15.1221 101.207 14.7925 101.365 14.4937C101.524 14.1948 101.758 13.9575 102.069 13.7817C102.379 13.603 102.761 13.5137 103.216 13.5137C103.62 13.5137 103.966 13.5854 104.253 13.729C104.54 13.8696 104.76 14.0688 104.912 14.3267C105.067 14.5815 105.145 14.8804 105.145 15.2231C105.145 15.4106 105.113 15.6011 105.048 15.7944C104.987 15.9849 104.9 16.1753 104.789 16.3657C104.68 16.5562 104.553 16.7437 104.407 16.9282C104.263 17.1128 104.109 17.2944 103.945 17.4731L102.231 19.332H105.439ZM108.981 13.5664V20H108.168V14.5815L106.529 15.1792V14.4453L108.854 13.5664H108.981Z" fill="white"/>
<path d="M127.476 19.332V20H123.288V19.4155L125.385 17.082C125.642 16.7949 125.842 16.5518 125.982 16.3525C126.126 16.1504 126.225 15.9702 126.281 15.812C126.34 15.6509 126.369 15.4868 126.369 15.3198C126.369 15.1089 126.325 14.9185 126.237 14.7485C126.152 14.5757 126.026 14.438 125.859 14.3354C125.692 14.2329 125.49 14.1816 125.253 14.1816C124.969 14.1816 124.731 14.2373 124.541 14.3486C124.353 14.457 124.213 14.6094 124.119 14.8057C124.025 15.002 123.978 15.2275 123.978 15.4824H123.165C123.165 15.1221 123.244 14.7925 123.403 14.4937C123.561 14.1948 123.795 13.9575 124.106 13.7817C124.416 13.603 124.799 13.5137 125.253 13.5137C125.657 13.5137 126.003 13.5854 126.29 13.729C126.577 13.8696 126.797 14.0688 126.949 14.3267C127.104 14.5815 127.182 14.8804 127.182 15.2231C127.182 15.4106 127.15 15.6011 127.085 15.7944C127.024 15.9849 126.937 16.1753 126.826 16.3657C126.718 16.5562 126.59 16.7437 126.444 16.9282C126.3 17.1128 126.146 17.2944 125.982 17.4731L124.268 19.332H127.476ZM129.375 16.9546L128.724 16.7876L129.045 13.6016H132.328V14.353H129.735L129.542 16.0933C129.659 16.0259 129.807 15.9629 129.986 15.9043C130.167 15.8457 130.375 15.8164 130.61 15.8164C130.906 15.8164 131.171 15.8677 131.405 15.9702C131.64 16.0698 131.839 16.2134 132.003 16.4009C132.17 16.5884 132.297 16.814 132.385 17.0776C132.473 17.3413 132.517 17.6357 132.517 17.9609C132.517 18.2686 132.474 18.5513 132.39 18.8091C132.307 19.0669 132.183 19.2925 132.016 19.4858C131.849 19.6763 131.638 19.8242 131.383 19.9297C131.131 20.0352 130.834 20.0879 130.491 20.0879C130.233 20.0879 129.989 20.0527 129.757 19.9824C129.529 19.9092 129.324 19.7993 129.142 19.6528C128.963 19.5034 128.817 19.3188 128.702 19.0991C128.591 18.8765 128.521 18.6157 128.492 18.3169H129.265C129.3 18.5571 129.37 18.7593 129.476 18.9233C129.581 19.0874 129.719 19.2119 129.889 19.2969C130.062 19.3789 130.263 19.4199 130.491 19.4199C130.684 19.4199 130.856 19.3862 131.005 19.3188C131.155 19.2515 131.281 19.1548 131.383 19.0288C131.486 18.9028 131.563 18.7505 131.616 18.5718C131.672 18.3931 131.7 18.1924 131.7 17.9697C131.7 17.7676 131.672 17.5801 131.616 17.4072C131.56 17.2344 131.477 17.0835 131.366 16.9546C131.257 16.8257 131.124 16.7261 130.966 16.6558C130.807 16.5825 130.626 16.5459 130.421 16.5459C130.148 16.5459 129.942 16.5825 129.801 16.6558C129.663 16.729 129.521 16.8286 129.375 16.9546Z" fill="white"/>
<path d="M149.513 19.332V20H145.325V19.4155L147.422 17.082C147.679 16.7949 147.879 16.5518 148.019 16.3525C148.163 16.1504 148.262 15.9702 148.318 15.812C148.377 15.6509 148.406 15.4868 148.406 15.3198C148.406 15.1089 148.362 14.9185 148.274 14.7485C148.189 14.5757 148.063 14.438 147.896 14.3354C147.729 14.2329 147.527 14.1816 147.29 14.1816C147.006 14.1816 146.768 14.2373 146.578 14.3486C146.39 14.457 146.25 14.6094 146.156 14.8057C146.062 15.002 146.015 15.2275 146.015 15.4824H145.202C145.202 15.1221 145.282 14.7925 145.44 14.4937C145.598 14.1948 145.832 13.9575 146.143 13.7817C146.453 13.603 146.836 13.5137 147.29 13.5137C147.694 13.5137 148.04 13.5854 148.327 13.729C148.614 13.8696 148.834 14.0688 148.986 14.3267C149.141 14.5815 149.219 14.8804 149.219 15.2231C149.219 15.4106 149.187 15.6011 149.122 15.7944C149.061 15.9849 148.974 16.1753 148.863 16.3657C148.755 16.5562 148.627 16.7437 148.481 16.9282C148.337 17.1128 148.183 17.2944 148.019 17.4731L146.305 19.332H149.513ZM154.519 13.6016V14.0586L151.869 20H151.012L153.657 14.2695H150.195V13.6016H154.519Z" fill="white"/>
<path d="M171.061 19.332V20H166.873V19.4155L168.969 17.082C169.227 16.7949 169.426 16.5518 169.567 16.3525C169.71 16.1504 169.81 15.9702 169.866 15.812C169.924 15.6509 169.954 15.4868 169.954 15.3198C169.954 15.1089 169.91 14.9185 169.822 14.7485C169.737 14.5757 169.611 14.438 169.444 14.3354C169.277 14.2329 169.075 14.1816 168.837 14.1816C168.553 14.1816 168.316 14.2373 168.125 14.3486C167.938 14.457 167.797 14.6094 167.704 14.8057C167.61 15.002 167.563 15.2275 167.563 15.4824H166.75C166.75 15.1221 166.829 14.7925 166.987 14.4937C167.145 14.1948 167.38 13.9575 167.69 13.7817C168.001 13.603 168.383 13.5137 168.837 13.5137C169.242 13.5137 169.587 13.5854 169.874 13.729C170.162 13.8696 170.381 14.0688 170.534 14.3267C170.689 14.5815 170.766 14.8804 170.766 15.2231C170.766 15.4106 170.734 15.6011 170.67 15.7944C170.608 15.9849 170.522 16.1753 170.411 16.3657C170.302 16.5562 170.175 16.7437 170.028 16.9282C169.885 17.1128 169.731 17.2944 169.567 17.4731L167.853 19.332H171.061ZM175.965 18.2686C175.965 18.6582 175.874 18.9893 175.693 19.2617C175.514 19.5312 175.271 19.7363 174.963 19.877C174.659 20.0176 174.314 20.0879 173.931 20.0879C173.547 20.0879 173.201 20.0176 172.893 19.877C172.586 19.7363 172.343 19.5312 172.164 19.2617C171.985 18.9893 171.896 18.6582 171.896 18.2686C171.896 18.0137 171.944 17.7808 172.041 17.5698C172.141 17.356 172.28 17.1699 172.458 17.0117C172.64 16.8535 172.854 16.7319 173.1 16.647C173.349 16.5591 173.623 16.5151 173.922 16.5151C174.314 16.5151 174.664 16.5913 174.972 16.7437C175.28 16.8931 175.521 17.0996 175.697 17.3633C175.876 17.627 175.965 17.9287 175.965 18.2686ZM175.148 18.251C175.148 18.0137 175.097 17.8042 174.994 17.6226C174.891 17.438 174.748 17.2944 174.563 17.1919C174.379 17.0894 174.165 17.0381 173.922 17.0381C173.673 17.0381 173.457 17.0894 173.276 17.1919C173.097 17.2944 172.958 17.438 172.858 17.6226C172.759 17.8042 172.709 18.0137 172.709 18.251C172.709 18.4971 172.757 18.708 172.854 18.8838C172.954 19.0566 173.094 19.1899 173.276 19.2837C173.46 19.3745 173.679 19.4199 173.931 19.4199C174.183 19.4199 174.399 19.3745 174.581 19.2837C174.763 19.1899 174.902 19.0566 174.998 18.8838C175.098 18.708 175.148 18.4971 175.148 18.251ZM175.816 15.2671C175.816 15.5776 175.734 15.8574 175.57 16.1064C175.406 16.3555 175.182 16.5518 174.897 16.6953C174.613 16.8389 174.291 16.9106 173.931 16.9106C173.564 16.9106 173.238 16.8389 172.951 16.6953C172.666 16.5518 172.444 16.3555 172.283 16.1064C172.121 15.8574 172.041 15.5776 172.041 15.2671C172.041 14.895 172.121 14.5786 172.283 14.3179C172.447 14.0571 172.671 13.8579 172.955 13.7202C173.239 13.5825 173.563 13.5137 173.926 13.5137C174.292 13.5137 174.618 13.5825 174.902 13.7202C175.186 13.8579 175.409 14.0571 175.57 14.3179C175.734 14.5786 175.816 14.895 175.816 15.2671ZM175.003 15.2803C175.003 15.0664 174.957 14.8774 174.867 14.7134C174.776 14.5493 174.65 14.4204 174.489 14.3267C174.328 14.23 174.14 14.1816 173.926 14.1816C173.712 14.1816 173.525 14.2271 173.364 14.3179C173.205 14.4058 173.081 14.5317 172.99 14.6958C172.902 14.8599 172.858 15.0547 172.858 15.2803C172.858 15.5 172.902 15.6919 172.99 15.856C173.081 16.02 173.207 16.1475 173.368 16.2383C173.529 16.3291 173.717 16.3745 173.931 16.3745C174.144 16.3745 174.33 16.3291 174.489 16.2383C174.65 16.1475 174.776 16.02 174.867 15.856C174.957 15.6919 175.003 15.5 175.003 15.2803Z" fill="white"/>
<path d="M190.092 16.4009H190.672C190.956 16.4009 191.191 16.354 191.375 16.2603C191.563 16.1636 191.702 16.0332 191.793 15.8691C191.887 15.7021 191.933 15.5146 191.933 15.3066C191.933 15.0605 191.892 14.854 191.81 14.687C191.728 14.52 191.605 14.394 191.441 14.3091C191.277 14.2241 191.069 14.1816 190.817 14.1816C190.589 14.1816 190.387 14.2271 190.211 14.3179C190.038 14.4058 189.902 14.5317 189.802 14.6958C189.705 14.8599 189.657 15.0532 189.657 15.2759H188.844C188.844 14.9507 188.926 14.6548 189.09 14.3882C189.254 14.1216 189.484 13.9092 189.78 13.751C190.079 13.5928 190.425 13.5137 190.817 13.5137C191.204 13.5137 191.542 13.5825 191.832 13.7202C192.122 13.855 192.348 14.0571 192.509 14.3267C192.67 14.5933 192.751 14.9258 192.751 15.3242C192.751 15.4854 192.713 15.6582 192.637 15.8428C192.563 16.0244 192.448 16.1943 192.289 16.3525C192.134 16.5107 191.932 16.6411 191.683 16.7437C191.434 16.8433 191.135 16.8931 190.786 16.8931H190.092V16.4009ZM190.092 17.0688V16.5811H190.786C191.194 16.5811 191.531 16.6294 191.797 16.7261C192.064 16.8228 192.273 16.9517 192.426 17.1128C192.581 17.2739 192.689 17.4512 192.751 17.6445C192.815 17.835 192.848 18.0254 192.848 18.2158C192.848 18.5146 192.796 18.7798 192.694 19.0112C192.594 19.2427 192.452 19.439 192.267 19.6001C192.086 19.7612 191.872 19.8828 191.626 19.9648C191.38 20.0469 191.112 20.0879 190.822 20.0879C190.543 20.0879 190.281 20.0483 190.035 19.9692C189.792 19.8901 189.577 19.7759 189.389 19.6265C189.202 19.4741 189.055 19.2881 188.95 19.0684C188.844 18.8457 188.791 18.5923 188.791 18.3081H189.604C189.604 18.5308 189.653 18.7256 189.749 18.8926C189.849 19.0596 189.99 19.1899 190.171 19.2837C190.356 19.3745 190.573 19.4199 190.822 19.4199C191.071 19.4199 191.285 19.3774 191.463 19.2925C191.645 19.2046 191.784 19.0728 191.881 18.897C191.98 18.7212 192.03 18.5 192.03 18.2334C192.03 17.9668 191.974 17.7485 191.863 17.5786C191.752 17.4058 191.594 17.2783 191.389 17.1963C191.186 17.1113 190.948 17.0688 190.672 17.0688H190.092ZM197.985 16.291V17.2666C197.985 17.791 197.938 18.2334 197.844 18.5938C197.75 18.9541 197.616 19.2441 197.44 19.4639C197.264 19.6836 197.052 19.8433 196.803 19.9429C196.556 20.0396 196.278 20.0879 195.968 20.0879C195.722 20.0879 195.494 20.0571 195.286 19.9956C195.078 19.9341 194.891 19.8359 194.724 19.7012C194.56 19.5635 194.419 19.3848 194.302 19.165C194.185 18.9453 194.096 18.6787 194.034 18.3652C193.973 18.0518 193.942 17.6855 193.942 17.2666V16.291C193.942 15.7666 193.989 15.3271 194.082 14.9727C194.179 14.6182 194.315 14.334 194.491 14.1201C194.667 13.9033 194.878 13.748 195.124 13.6543C195.373 13.5605 195.651 13.5137 195.959 13.5137C196.208 13.5137 196.436 13.5444 196.644 13.606C196.855 13.6646 197.043 13.7598 197.207 13.8916C197.371 14.0205 197.51 14.1934 197.624 14.4102C197.742 14.624 197.831 14.8862 197.892 15.1968C197.954 15.5073 197.985 15.8721 197.985 16.291ZM197.167 17.3984V16.1548C197.167 15.8677 197.15 15.6157 197.115 15.3989C197.082 15.1792 197.034 14.9917 196.97 14.8364C196.905 14.6812 196.823 14.5552 196.723 14.4585C196.627 14.3618 196.514 14.2915 196.385 14.2476C196.259 14.2007 196.117 14.1772 195.959 14.1772C195.765 14.1772 195.594 14.2139 195.445 14.2871C195.295 14.3574 195.169 14.4702 195.067 14.6255C194.967 14.7808 194.891 14.9844 194.838 15.2363C194.785 15.4883 194.759 15.7944 194.759 16.1548V17.3984C194.759 17.6855 194.775 17.939 194.807 18.1587C194.843 18.3784 194.894 18.5688 194.961 18.73C195.029 18.8882 195.111 19.0186 195.207 19.1211C195.304 19.2236 195.415 19.2998 195.541 19.3496C195.67 19.3965 195.812 19.4199 195.968 19.4199C196.167 19.4199 196.341 19.3818 196.491 19.3057C196.64 19.2295 196.765 19.1108 196.864 18.9497C196.967 18.7856 197.043 18.5762 197.093 18.3213C197.142 18.0635 197.167 17.7559 197.167 17.3984Z" fill="white"/>
<path d="M212.129 16.4009H212.709C212.993 16.4009 213.228 16.354 213.412 16.2603C213.6 16.1636 213.739 16.0332 213.83 15.8691C213.923 15.7021 213.97 15.5146 213.97 15.3066C213.97 15.0605 213.929 14.854 213.847 14.687C213.765 14.52 213.642 14.394 213.478 14.3091C213.314 14.2241 213.106 14.1816 212.854 14.1816C212.626 14.1816 212.423 14.2271 212.248 14.3179C212.075 14.4058 211.939 14.5317 211.839 14.6958C211.742 14.8599 211.694 15.0532 211.694 15.2759H210.881C210.881 14.9507 210.963 14.6548 211.127 14.3882C211.291 14.1216 211.521 13.9092 211.817 13.751C212.116 13.5928 212.462 13.5137 212.854 13.5137C213.241 13.5137 213.579 13.5825 213.869 13.7202C214.159 13.855 214.385 14.0571 214.546 14.3267C214.707 14.5933 214.788 14.9258 214.788 15.3242C214.788 15.4854 214.75 15.6582 214.673 15.8428C214.6 16.0244 214.485 16.1943 214.326 16.3525C214.171 16.5107 213.969 16.6411 213.72 16.7437C213.471 16.8433 213.172 16.8931 212.823 16.8931H212.129V16.4009ZM212.129 17.0688V16.5811H212.823C213.231 16.5811 213.568 16.6294 213.834 16.7261C214.101 16.8228 214.31 16.9517 214.463 17.1128C214.618 17.2739 214.726 17.4512 214.788 17.6445C214.852 17.835 214.884 18.0254 214.884 18.2158C214.884 18.5146 214.833 18.7798 214.731 19.0112C214.631 19.2427 214.489 19.439 214.304 19.6001C214.123 19.7612 213.909 19.8828 213.663 19.9648C213.417 20.0469 213.149 20.0879 212.859 20.0879C212.58 20.0879 212.318 20.0483 212.072 19.9692C211.829 19.8901 211.613 19.7759 211.426 19.6265C211.238 19.4741 211.092 19.2881 210.986 19.0684C210.881 18.8457 210.828 18.5923 210.828 18.3081H211.641C211.641 18.5308 211.69 18.7256 211.786 18.8926C211.886 19.0596 212.026 19.1899 212.208 19.2837C212.393 19.3745 212.61 19.4199 212.859 19.4199C213.108 19.4199 213.321 19.3774 213.5 19.2925C213.682 19.2046 213.821 19.0728 213.918 18.897C214.017 18.7212 214.067 18.5 214.067 18.2334C214.067 17.9668 214.011 17.7485 213.9 17.5786C213.789 17.4058 213.631 17.2783 213.425 17.1963C213.223 17.1113 212.985 17.0688 212.709 17.0688H212.129ZM220.039 18.2686C220.039 18.6582 219.948 18.9893 219.767 19.2617C219.588 19.5312 219.345 19.7363 219.037 19.877C218.733 20.0176 218.388 20.0879 218.005 20.0879C217.621 20.0879 217.275 20.0176 216.967 19.877C216.66 19.7363 216.417 19.5312 216.238 19.2617C216.059 18.9893 215.97 18.6582 215.97 18.2686C215.97 18.0137 216.018 17.7808 216.115 17.5698C216.214 17.356 216.354 17.1699 216.532 17.0117C216.714 16.8535 216.928 16.7319 217.174 16.647C217.423 16.5591 217.697 16.5151 217.996 16.5151C218.388 16.5151 218.738 16.5913 219.046 16.7437C219.354 16.8931 219.595 17.0996 219.771 17.3633C219.95 17.627 220.039 17.9287 220.039 18.2686ZM219.222 18.251C219.222 18.0137 219.171 17.8042 219.068 17.6226C218.965 17.438 218.822 17.2944 218.637 17.1919C218.453 17.0894 218.239 17.0381 217.996 17.0381C217.747 17.0381 217.531 17.0894 217.35 17.1919C217.171 17.2944 217.032 17.438 216.932 17.6226C216.833 17.8042 216.783 18.0137 216.783 18.251C216.783 18.4971 216.831 18.708 216.928 18.8838C217.027 19.0566 217.168 19.1899 217.35 19.2837C217.534 19.3745 217.753 19.4199 218.005 19.4199C218.256 19.4199 218.473 19.3745 218.655 19.2837C218.837 19.1899 218.976 19.0566 219.072 18.8838C219.172 18.708 219.222 18.4971 219.222 18.251ZM219.89 15.2671C219.89 15.5776 219.808 15.8574 219.644 16.1064C219.48 16.3555 219.256 16.5518 218.971 16.6953C218.687 16.8389 218.365 16.9106 218.005 16.9106C217.638 16.9106 217.312 16.8389 217.025 16.6953C216.74 16.5518 216.518 16.3555 216.357 16.1064C216.195 15.8574 216.115 15.5776 216.115 15.2671C216.115 14.895 216.195 14.5786 216.357 14.3179C216.521 14.0571 216.745 13.8579 217.029 13.7202C217.313 13.5825 217.637 13.5137 218 13.5137C218.366 13.5137 218.692 13.5825 218.976 13.7202C219.26 13.8579 219.483 14.0571 219.644 14.3179C219.808 14.5786 219.89 14.895 219.89 15.2671ZM219.077 15.2803C219.077 15.0664 219.031 14.8774 218.941 14.7134C218.85 14.5493 218.724 14.4204 218.563 14.3267C218.401 14.23 218.214 14.1816 218 14.1816C217.786 14.1816 217.599 14.2271 217.438 14.3179C217.279 14.4058 217.155 14.5317 217.064 14.6958C216.976 14.8599 216.932 15.0547 216.932 15.2803C216.932 15.5 216.976 15.6919 217.064 15.856C217.155 16.02 217.281 16.1475 217.442 16.2383C217.603 16.3291 217.791 16.3745 218.005 16.3745C218.218 16.3745 218.404 16.3291 218.563 16.2383C218.724 16.1475 218.85 16.02 218.941 15.856C219.031 15.6919 219.077 15.5 219.077 15.2803Z" fill="white"/>
<path d="M0 3.5C0 1.567 1.567 0 3.5 0H17.6296V7H3.5C1.567 7 0 5.433 0 3.5V3.5Z" fill="#000A70"/>
<path d="M233.417 3.5C233.417 5.433 231.85 7 229.917 7L215.787 7V0L229.917 0C231.85 0 233.417 1.567 233.417 3.5V3.5Z" fill="#320000"/>
<rect x="17.6298" width="22.5267" height="7" fill="#0052BE"/>
<rect x="40.1565" width="21.5473" height="7" fill="#3399FF"/>
<rect x="61.7036" width="21.5473" height="7" fill="#99EBFF"/>
<rect x="83.251" width="22.5267" height="7" fill="#CCFFFF"/>
<rect x="105.778" width="21.5473" height="7" fill="#FFFFCC"/>
<rect x="127.325" width="22.5267" height="7" fill="#FFE184"/>
<rect x="149.852" width="21.5473" height="7" fill="#FF9E14"/>
<rect x="171.399" width="22.5267" height="7" fill="#F51919"/>
<rect x="193.926" width="21.5473" height="7" fill="#A50000"/>
</svg>
