<svg width="238" height="21" viewBox="0 0 238 21" fill="none" xmlns="http://www.w3.org/2000/svg">
<path d="M15.4051 16.6313L14.8993 16.5015L15.1488 14.0234H17.702V14.6079H15.6854L15.535 15.9614C15.6262 15.909 15.7412 15.86 15.8802 15.8145C16.0215 15.7689 16.1833 15.7461 16.3656 15.7461C16.5957 15.7461 16.8019 15.786 16.9842 15.8657C17.1665 15.9432 17.3215 16.0549 17.4491 16.2007C17.579 16.3465 17.6781 16.522 17.7464 16.7271C17.8148 16.9321 17.849 17.1611 17.849 17.4141C17.849 17.6533 17.8159 17.8732 17.7499 18.0737C17.6861 18.2743 17.5892 18.4497 17.4593 18.6001C17.3294 18.7482 17.1654 18.8633 16.9671 18.9453C16.7712 19.0273 16.5399 19.0684 16.2733 19.0684C16.0728 19.0684 15.8825 19.041 15.7025 18.9863C15.5248 18.9294 15.3653 18.8439 15.224 18.73C15.085 18.6138 14.971 18.4702 14.8822 18.2993C14.7956 18.1261 14.7409 17.9233 14.7181 17.6909H15.3197C15.347 17.8778 15.4017 18.035 15.4837 18.1626C15.5658 18.2902 15.6729 18.387 15.805 18.4531C15.9395 18.5169 16.0956 18.5488 16.2733 18.5488C16.4237 18.5488 16.557 18.5226 16.6732 18.4702C16.7894 18.4178 16.8874 18.3426 16.9671 18.2446C17.0469 18.1466 17.1073 18.0282 17.1483 17.8892C17.1916 17.7502 17.2132 17.5941 17.2132 17.4209C17.2132 17.2637 17.1916 17.1178 17.1483 16.9834C17.105 16.849 17.0401 16.7316 16.9535 16.6313C16.8692 16.5311 16.7655 16.4536 16.6424 16.3989C16.5194 16.342 16.3781 16.3135 16.2186 16.3135C16.0067 16.3135 15.846 16.342 15.7367 16.3989C15.6296 16.4559 15.5191 16.5334 15.4051 16.6313Z" fill="white"/>
<path d="M35.4102 13.9961V19H34.7778V14.7856L33.5029 15.2505V14.6797L35.311 13.9961H35.4102ZM40.3936 16.1152V16.874C40.3936 17.2819 40.3571 17.626 40.2842 17.9062C40.2113 18.1865 40.1065 18.4121 39.9697 18.583C39.833 18.7539 39.6678 18.8781 39.4741 18.9556C39.2827 19.0308 39.0663 19.0684 38.8247 19.0684C38.6333 19.0684 38.4567 19.0444 38.2949 18.9966C38.1331 18.9487 37.9873 18.8724 37.8574 18.7676C37.7298 18.6605 37.6205 18.5215 37.5293 18.3506C37.4382 18.1797 37.3687 17.9723 37.3208 17.7285C37.273 17.4847 37.249 17.1999 37.249 16.874V16.1152C37.249 15.7074 37.2855 15.3656 37.3584 15.0898C37.4336 14.8141 37.5396 14.5931 37.6763 14.4268C37.813 14.2581 37.9771 14.1374 38.1685 14.0645C38.3622 13.9915 38.5786 13.9551 38.8179 13.9551C39.0116 13.9551 39.1893 13.979 39.3511 14.0269C39.5151 14.0724 39.661 14.1465 39.7886 14.249C39.9162 14.3493 40.0244 14.4837 40.1133 14.6523C40.2044 14.8187 40.2739 15.0226 40.3218 15.2642C40.3696 15.5057 40.3936 15.7894 40.3936 16.1152ZM39.7578 16.9766V16.0093C39.7578 15.786 39.7442 15.59 39.7168 15.4214C39.6917 15.2505 39.6541 15.1047 39.604 14.9839C39.5539 14.8631 39.4901 14.7651 39.4126 14.6899C39.3374 14.6147 39.2497 14.5601 39.1494 14.5259C39.0514 14.4894 38.9409 14.4712 38.8179 14.4712C38.6675 14.4712 38.5342 14.4997 38.418 14.5566C38.3018 14.6113 38.2038 14.6991 38.124 14.8198C38.0466 14.9406 37.9873 15.099 37.9463 15.2949C37.9053 15.4909 37.8848 15.729 37.8848 16.0093V16.9766C37.8848 17.1999 37.8973 17.397 37.9224 17.5679C37.9497 17.7388 37.9896 17.8869 38.042 18.0122C38.0944 18.1353 38.1582 18.2367 38.2334 18.3164C38.3086 18.3962 38.3952 18.4554 38.4932 18.4941C38.5934 18.5306 38.7039 18.5488 38.8247 18.5488C38.9797 18.5488 39.1152 18.5192 39.2315 18.46C39.3477 18.4007 39.4445 18.3084 39.522 18.1831C39.6017 18.0555 39.661 17.8926 39.6997 17.6943C39.7385 17.4938 39.7578 17.2546 39.7578 16.9766Z" fill="white"/>
<path d="M54.4102 13.9961V19H53.7778V14.7856L52.5029 15.2505V14.6797L54.311 13.9961H54.4102ZM57.0693 16.6313L56.5635 16.5015L56.813 14.0234H59.3662V14.6079H57.3496L57.1992 15.9614C57.2904 15.909 57.4054 15.86 57.5444 15.8145C57.6857 15.7689 57.8475 15.7461 58.0298 15.7461C58.2599 15.7461 58.4662 15.786 58.6484 15.8657C58.8307 15.9432 58.9857 16.0549 59.1133 16.2007C59.2432 16.3465 59.3423 16.522 59.4107 16.7271C59.479 16.9321 59.5132 17.1611 59.5132 17.4141C59.5132 17.6533 59.4802 17.8732 59.4141 18.0737C59.3503 18.2743 59.2534 18.4497 59.1235 18.6001C58.9937 18.7482 58.8296 18.8633 58.6314 18.9453C58.4354 19.0273 58.2041 19.0684 57.9375 19.0684C57.737 19.0684 57.5467 19.041 57.3667 18.9863C57.189 18.9294 57.0295 18.8439 56.8882 18.73C56.7492 18.6138 56.6353 18.4702 56.5464 18.2993C56.4598 18.1261 56.4051 17.9233 56.3823 17.6909H56.9839C57.0112 17.8778 57.0659 18.035 57.148 18.1626C57.23 18.2902 57.3371 18.387 57.4692 18.4531C57.6037 18.5169 57.7598 18.5488 57.9375 18.5488C58.0879 18.5488 58.2212 18.5226 58.3374 18.4702C58.4536 18.4178 58.5516 18.3426 58.6314 18.2446C58.7111 18.1466 58.7715 18.0282 58.8125 17.8892C58.8558 17.7502 58.8775 17.5941 58.8775 17.4209C58.8775 17.2637 58.8558 17.1178 58.8125 16.9834C58.7692 16.849 58.7043 16.7316 58.6177 16.6313C58.5334 16.5311 58.4297 16.4536 58.3067 16.3989C58.1836 16.342 58.0423 16.3135 57.8828 16.3135C57.6709 16.3135 57.5103 16.342 57.4009 16.3989C57.2938 16.4559 57.1833 16.5334 57.0693 16.6313Z" fill="white"/>
<path d="M77.4775 18.4805V19H74.2202V18.5454L75.8506 16.7305C76.0511 16.5072 76.206 16.318 76.3154 16.1631C76.4271 16.0059 76.5045 15.8657 76.5478 15.7427C76.5934 15.6174 76.6162 15.4897 76.6162 15.3599C76.6162 15.1958 76.582 15.0477 76.5136 14.9155C76.4476 14.7811 76.3496 14.674 76.2197 14.5942C76.0898 14.5145 75.9326 14.4746 75.748 14.4746C75.527 14.4746 75.3424 14.5179 75.1943 14.6045C75.0485 14.6888 74.9391 14.8073 74.8662 14.96C74.7933 15.1126 74.7568 15.2881 74.7568 15.4863H74.1245C74.1245 15.2061 74.186 14.9497 74.3091 14.7173C74.4321 14.4849 74.6144 14.3003 74.8559 14.1636C75.0975 14.0246 75.3948 13.9551 75.748 13.9551C76.0625 13.9551 76.3314 14.0109 76.5547 14.1226C76.778 14.2319 76.9489 14.3869 77.0674 14.5874C77.1881 14.7856 77.2485 15.0181 77.2485 15.2847C77.2485 15.4305 77.2234 15.5786 77.1733 15.729C77.1255 15.8771 77.0582 16.0252 76.9717 16.1733C76.8873 16.3215 76.7882 16.4673 76.6743 16.6108C76.5626 16.7544 76.443 16.8957 76.3154 17.0347L74.9824 18.4805H77.4775ZM81.2783 16.1152V16.874C81.2783 17.2819 81.2418 17.626 81.1689 17.9062C81.096 18.1865 80.9912 18.4121 80.8545 18.583C80.7177 18.7539 80.5525 18.8781 80.3589 18.9556C80.1675 19.0308 79.951 19.0684 79.7094 19.0684C79.518 19.0684 79.3414 19.0444 79.1797 18.9966C79.0179 18.9487 78.872 18.8724 78.7422 18.7676C78.6146 18.6605 78.5052 18.5215 78.414 18.3506C78.3229 18.1797 78.2534 17.9723 78.2055 17.7285C78.1577 17.4847 78.1338 17.1999 78.1338 16.874V16.1152C78.1338 15.7074 78.1702 15.3656 78.2431 15.0898C78.3183 14.8141 78.4243 14.5931 78.561 14.4268C78.6977 14.2581 78.8618 14.1374 79.0532 14.0645C79.2469 13.9915 79.4634 13.9551 79.7026 13.9551C79.8963 13.9551 80.074 13.979 80.2358 14.0269C80.3999 14.0724 80.5457 14.1465 80.6733 14.249C80.8009 14.3493 80.9092 14.4837 80.998 14.6523C81.0892 14.8187 81.1587 15.0226 81.2065 15.2642C81.2544 15.5057 81.2783 15.7894 81.2783 16.1152ZM80.6426 16.9766V16.0093C80.6426 15.786 80.6289 15.59 80.6015 15.4214C80.5765 15.2505 80.5389 15.1047 80.4887 14.9839C80.4386 14.8631 80.3748 14.7651 80.2973 14.6899C80.2221 14.6147 80.1344 14.5601 80.0342 14.5259C79.9362 14.4894 79.8257 14.4712 79.7026 14.4712C79.5522 14.4712 79.4189 14.4997 79.3027 14.5566C79.1865 14.6113 79.0885 14.6991 79.0088 14.8198C78.9313 14.9406 78.872 15.099 78.831 15.2949C78.79 15.4909 78.7695 15.729 78.7695 16.0093V16.9766C78.7695 17.1999 78.782 17.397 78.8071 17.5679C78.8344 17.7388 78.8743 17.8869 78.9267 18.0122C78.9791 18.1353 79.0429 18.2367 79.1181 18.3164C79.1933 18.3962 79.2799 18.4554 79.3779 18.4941C79.4782 18.5306 79.5887 18.5488 79.7094 18.5488C79.8644 18.5488 80 18.5192 80.1162 18.46C80.2324 18.4007 80.3292 18.3084 80.4067 18.1831C80.4865 18.0555 80.5457 17.8926 80.5844 17.6943C80.6232 17.4938 80.6426 17.2546 80.6426 16.9766Z" fill="white"/>
<path d="M96.5144 18.4805V19H93.2571V18.5454L94.8875 16.7305C95.088 16.5072 95.2429 16.318 95.3523 16.1631C95.464 16.0059 95.5414 15.8657 95.5847 15.7427C95.6303 15.6174 95.6531 15.4897 95.6531 15.3599C95.6531 15.1958 95.6189 15.0477 95.5505 14.9155C95.4845 14.7811 95.3865 14.674 95.2566 14.5942C95.1267 14.5145 94.9695 14.4746 94.7849 14.4746C94.5639 14.4746 94.3793 14.5179 94.2312 14.6045C94.0854 14.6888 93.976 14.8073 93.9031 14.96C93.8302 15.1126 93.7937 15.2881 93.7937 15.4863H93.1614C93.1614 15.2061 93.2229 14.9497 93.346 14.7173C93.469 14.4849 93.6513 14.3003 93.8928 14.1636C94.1344 14.0246 94.4317 13.9551 94.7849 13.9551C95.0994 13.9551 95.3683 14.0109 95.5916 14.1226C95.8149 14.2319 95.9858 14.3869 96.1043 14.5874C96.225 14.7856 96.2854 15.0181 96.2854 15.2847C96.2854 15.4305 96.2603 15.5786 96.2102 15.729C96.1624 15.8771 96.0951 16.0252 96.0086 16.1733C95.9242 16.3215 95.8251 16.4673 95.7112 16.6108C95.5995 16.7544 95.4799 16.8957 95.3523 17.0347L94.0193 18.4805H96.5144ZM97.991 16.6313L97.4851 16.5015L97.7346 14.0234H100.288V14.6079H98.2713L98.1209 15.9614C98.212 15.909 98.3271 15.86 98.4661 15.8145C98.6074 15.7689 98.7691 15.7461 98.9514 15.7461C99.1816 15.7461 99.3878 15.786 99.5701 15.8657C99.7524 15.9432 99.9073 16.0549 100.035 16.2007C100.165 16.3465 100.264 16.522 100.332 16.7271C100.401 16.9321 100.435 17.1611 100.435 17.4141C100.435 17.6533 100.402 17.8732 100.336 18.0737C100.272 18.2743 100.175 18.4497 100.045 18.6001C99.9153 18.7482 99.7512 18.8633 99.553 18.9453C99.357 19.0273 99.1257 19.0684 98.8591 19.0684C98.6586 19.0684 98.4684 19.041 98.2883 18.9863C98.1106 18.9294 97.9511 18.8439 97.8098 18.73C97.6708 18.6138 97.5569 18.4702 97.468 18.2993C97.3814 18.1261 97.3268 17.9233 97.304 17.6909H97.9055C97.9329 17.8778 97.9876 18.035 98.0696 18.1626C98.1516 18.2902 98.2587 18.387 98.3909 18.4531C98.5253 18.5169 98.6814 18.5488 98.8591 18.5488C99.0095 18.5488 99.1428 18.5226 99.259 18.4702C99.3753 18.4178 99.4732 18.3426 99.553 18.2446C99.6327 18.1466 99.6931 18.0282 99.7341 17.8892C99.7774 17.7502 99.7991 17.5941 99.7991 17.4209C99.7991 17.2637 99.7774 17.1178 99.7341 16.9834C99.6908 16.849 99.6259 16.7316 99.5393 16.6313C99.455 16.5311 99.3513 16.4536 99.2283 16.3989C99.1052 16.342 98.964 16.3135 98.8045 16.3135C98.5925 16.3135 98.4319 16.342 98.3225 16.3989C98.2154 16.4559 98.1049 16.5334 97.991 16.6313Z" fill="white"/>
<path d="M112.214 16.2007H112.665C112.886 16.2007 113.068 16.1642 113.212 16.0913C113.358 16.0161 113.466 15.9147 113.536 15.7871C113.609 15.6572 113.646 15.5114 113.646 15.3496C113.646 15.1582 113.614 14.9976 113.55 14.8677C113.486 14.7378 113.391 14.6398 113.263 14.5737C113.135 14.5076 112.974 14.4746 112.778 14.4746C112.6 14.4746 112.443 14.5099 112.306 14.5806C112.172 14.6489 112.066 14.7469 111.988 14.8745C111.913 15.0021 111.875 15.1525 111.875 15.3257H111.243C111.243 15.0728 111.307 14.8426 111.434 14.6353C111.562 14.4279 111.741 14.2627 111.971 14.1396C112.203 14.0166 112.472 13.9551 112.778 13.9551C113.078 13.9551 113.342 14.0086 113.567 14.1157C113.793 14.2205 113.968 14.3778 114.094 14.5874C114.219 14.7948 114.282 15.0534 114.282 15.3633C114.282 15.4886 114.252 15.623 114.193 15.7666C114.136 15.9079 114.046 16.04 113.923 16.1631C113.802 16.2861 113.645 16.3875 113.451 16.4673C113.257 16.5448 113.025 16.5835 112.754 16.5835H112.214V16.2007ZM112.214 16.7202V16.3408H112.754C113.07 16.3408 113.333 16.3784 113.54 16.4536C113.747 16.5288 113.91 16.6291 114.029 16.7544C114.149 16.8797 114.234 17.0176 114.282 17.168C114.332 17.3161 114.357 17.4642 114.357 17.6123C114.357 17.8447 114.317 18.0509 114.237 18.231C114.16 18.411 114.049 18.5636 113.906 18.689C113.764 18.8143 113.598 18.9089 113.407 18.9727C113.215 19.0365 113.007 19.0684 112.781 19.0684C112.565 19.0684 112.361 19.0376 112.169 18.9761C111.98 18.9146 111.813 18.8257 111.667 18.7095C111.521 18.591 111.407 18.4463 111.325 18.2754C111.243 18.1022 111.202 17.9051 111.202 17.6841H111.834C111.834 17.8573 111.872 18.0088 111.947 18.1387C112.025 18.2686 112.134 18.37 112.275 18.4429C112.419 18.5135 112.587 18.5488 112.781 18.5488C112.975 18.5488 113.141 18.5158 113.28 18.4497C113.421 18.3813 113.53 18.2788 113.605 18.1421C113.682 18.0054 113.721 17.8333 113.721 17.626C113.721 17.4186 113.678 17.2489 113.591 17.1167C113.505 16.9823 113.382 16.8831 113.222 16.8193C113.065 16.7533 112.879 16.7202 112.665 16.7202H112.214ZM118.592 17.3252V17.8447H114.996V17.4722L117.224 14.0234H117.741L117.187 15.0215L115.714 17.3252H118.592ZM117.898 14.0234V19H117.265V14.0234H117.898Z" fill="white"/>
<path d="M134.695 17.3252V17.8447H131.1V17.4722L133.328 14.0234H133.844L133.291 15.0215L131.817 17.3252H134.695ZM134.001 14.0234V19H133.369V14.0234H134.001ZM138.407 17.6533C138.407 17.9564 138.337 18.2139 138.195 18.4258C138.056 18.6354 137.867 18.7949 137.628 18.9043C137.391 19.0137 137.123 19.0684 136.825 19.0684C136.526 19.0684 136.257 19.0137 136.018 18.9043C135.779 18.7949 135.59 18.6354 135.451 18.4258C135.312 18.2139 135.242 17.9564 135.242 17.6533C135.242 17.4551 135.28 17.2739 135.355 17.1099C135.432 16.9435 135.541 16.7988 135.68 16.6758C135.821 16.5527 135.987 16.4582 136.179 16.3921C136.372 16.3237 136.585 16.2896 136.818 16.2896C137.123 16.2896 137.396 16.3488 137.635 16.4673C137.874 16.5835 138.062 16.7441 138.199 16.9492C138.338 17.1543 138.407 17.389 138.407 17.6533ZM137.771 17.6396C137.771 17.4551 137.732 17.2922 137.652 17.1509C137.572 17.0073 137.46 16.8957 137.317 16.8159C137.173 16.7362 137.007 16.6963 136.818 16.6963C136.624 16.6963 136.457 16.7362 136.315 16.8159C136.176 16.8957 136.068 17.0073 135.991 17.1509C135.913 17.2922 135.875 17.4551 135.875 17.6396C135.875 17.8311 135.912 17.9951 135.987 18.1318C136.065 18.2663 136.174 18.37 136.315 18.4429C136.459 18.5135 136.629 18.5488 136.825 18.5488C137.021 18.5488 137.189 18.5135 137.331 18.4429C137.472 18.37 137.58 18.2663 137.655 18.1318C137.733 17.9951 137.771 17.8311 137.771 17.6396ZM138.291 15.3188C138.291 15.5604 138.227 15.778 138.1 15.9717C137.972 16.1654 137.798 16.318 137.577 16.4297C137.356 16.5413 137.105 16.5972 136.825 16.5972C136.54 16.5972 136.286 16.5413 136.063 16.4297C135.841 16.318 135.668 16.1654 135.543 15.9717C135.418 15.778 135.355 15.5604 135.355 15.3188C135.355 15.0295 135.418 14.7834 135.543 14.5806C135.671 14.3778 135.845 14.2228 136.066 14.1157C136.287 14.0086 136.539 13.9551 136.821 13.9551C137.106 13.9551 137.359 14.0086 137.58 14.1157C137.801 14.2228 137.974 14.3778 138.1 14.5806C138.227 14.7834 138.291 15.0295 138.291 15.3188ZM137.659 15.3291C137.659 15.1628 137.623 15.0158 137.553 14.8882C137.482 14.7606 137.384 14.6603 137.259 14.5874C137.133 14.5122 136.988 14.4746 136.821 14.4746C136.655 14.4746 136.509 14.5099 136.384 14.5806C136.261 14.6489 136.164 14.7469 136.093 14.8745C136.025 15.0021 135.991 15.1536 135.991 15.3291C135.991 15.5 136.025 15.6493 136.093 15.7769C136.164 15.9045 136.262 16.0036 136.387 16.0742C136.513 16.1449 136.658 16.1802 136.825 16.1802C136.991 16.1802 137.136 16.1449 137.259 16.0742C137.384 16.0036 137.482 15.9045 137.553 15.7769C137.623 15.6493 137.659 15.5 137.659 15.3291Z" fill="white"/>
<path d="M152.759 14.0166H152.813V14.5532H152.759C152.424 14.5532 152.144 14.6079 151.918 14.7173C151.692 14.8244 151.514 14.9691 151.381 15.1514C151.249 15.3314 151.153 15.5342 151.094 15.7598C151.037 15.9854 151.009 16.2144 151.009 16.4468V17.1782C151.009 17.3993 151.035 17.5952 151.087 17.7661C151.14 17.9347 151.212 18.0771 151.303 18.1934C151.394 18.3096 151.496 18.3973 151.61 18.4565C151.727 18.5158 151.847 18.5454 151.973 18.5454C152.118 18.5454 152.248 18.5181 152.362 18.4634C152.476 18.4064 152.572 18.3278 152.649 18.2275C152.729 18.125 152.79 18.0042 152.831 17.8652C152.872 17.7262 152.892 17.5736 152.892 17.4072C152.892 17.2591 152.874 17.1167 152.837 16.98C152.801 16.841 152.745 16.7179 152.67 16.6108C152.595 16.5015 152.5 16.416 152.386 16.3545C152.275 16.2907 152.141 16.2588 151.986 16.2588C151.811 16.2588 151.647 16.3021 151.494 16.3887C151.344 16.473 151.22 16.5846 151.122 16.7236C151.026 16.8604 150.971 17.0096 150.958 17.1714L150.623 17.168C150.654 16.9128 150.714 16.6951 150.8 16.5151C150.889 16.3328 150.999 16.1847 151.128 16.0708C151.261 15.9546 151.408 15.8703 151.569 15.8179C151.733 15.7632 151.907 15.7358 152.089 15.7358C152.337 15.7358 152.551 15.7826 152.731 15.876C152.911 15.9694 153.06 16.0947 153.176 16.252C153.292 16.4069 153.377 16.5824 153.432 16.7783C153.489 16.972 153.518 17.1714 153.518 17.3765C153.518 17.6112 153.485 17.8311 153.418 18.0361C153.352 18.2412 153.253 18.4212 153.121 18.5762C152.991 18.7311 152.831 18.8519 152.639 18.9385C152.448 19.0251 152.226 19.0684 151.973 19.0684C151.704 19.0684 151.469 19.0137 151.269 18.9043C151.068 18.7926 150.902 18.6445 150.77 18.46C150.637 18.2754 150.538 18.0703 150.472 17.8447C150.406 17.6191 150.373 17.3901 150.373 17.1577V16.8604C150.373 16.5094 150.408 16.1654 150.479 15.8281C150.55 15.4909 150.672 15.1855 150.845 14.9121C151.02 14.6387 151.263 14.4211 151.573 14.2593C151.883 14.0975 152.278 14.0166 152.759 14.0166ZM157.633 17.3252V17.8447H154.037V17.4722L156.266 14.0234H156.782L156.228 15.0215L154.755 17.3252H157.633ZM156.939 14.0234V19H156.307V14.0234H156.939Z" fill="white"/>
<path d="M175.959 17.6533C175.959 17.9564 175.889 18.2139 175.748 18.4258C175.609 18.6354 175.419 18.7949 175.18 18.9043C174.943 19.0137 174.675 19.0684 174.377 19.0684C174.078 19.0684 173.81 19.0137 173.57 18.9043C173.331 18.7949 173.142 18.6354 173.003 18.4258C172.864 18.2139 172.794 17.9564 172.794 17.6533C172.794 17.4551 172.832 17.2739 172.907 17.1099C172.985 16.9435 173.093 16.7988 173.232 16.6758C173.373 16.5527 173.54 16.4582 173.731 16.3921C173.925 16.3237 174.138 16.2896 174.37 16.2896C174.675 16.2896 174.948 16.3488 175.187 16.4673C175.426 16.5835 175.614 16.7441 175.751 16.9492C175.89 17.1543 175.959 17.389 175.959 17.6533ZM175.324 17.6396C175.324 17.4551 175.284 17.2922 175.204 17.1509C175.124 17.0073 175.013 16.8957 174.869 16.8159C174.726 16.7362 174.559 16.6963 174.37 16.6963C174.176 16.6963 174.009 16.7362 173.868 16.8159C173.729 16.8957 173.62 17.0073 173.543 17.1509C173.465 17.2922 173.427 17.4551 173.427 17.6396C173.427 17.8311 173.464 17.9951 173.54 18.1318C173.617 18.2663 173.726 18.37 173.868 18.4429C174.011 18.5135 174.181 18.5488 174.377 18.5488C174.573 18.5488 174.742 18.5135 174.883 18.4429C175.024 18.37 175.132 18.2663 175.207 18.1318C175.285 17.9951 175.324 17.8311 175.324 17.6396ZM175.843 15.3188C175.843 15.5604 175.779 15.778 175.652 15.9717C175.524 16.1654 175.35 16.318 175.129 16.4297C174.908 16.5413 174.657 16.5972 174.377 16.5972C174.092 16.5972 173.838 16.5413 173.615 16.4297C173.394 16.318 173.221 16.1654 173.095 15.9717C172.97 15.778 172.907 15.5604 172.907 15.3188C172.907 15.0295 172.97 14.7834 173.095 14.5806C173.223 14.3778 173.397 14.2228 173.618 14.1157C173.839 14.0086 174.091 13.9551 174.374 13.9551C174.658 13.9551 174.911 14.0086 175.132 14.1157C175.353 14.2228 175.527 14.3778 175.652 14.5806C175.779 14.7834 175.843 15.0295 175.843 15.3188ZM175.211 15.3291C175.211 15.1628 175.176 15.0158 175.105 14.8882C175.034 14.7606 174.936 14.6603 174.811 14.5874C174.686 14.5122 174.54 14.4746 174.374 14.4746C174.207 14.4746 174.061 14.5099 173.936 14.5806C173.813 14.6489 173.716 14.7469 173.645 14.8745C173.577 15.0021 173.543 15.1536 173.543 15.3291C173.543 15.5 173.577 15.6493 173.645 15.7769C173.716 15.9045 173.814 16.0036 173.939 16.0742C174.065 16.1449 174.211 16.1802 174.377 16.1802C174.543 16.1802 174.688 16.1449 174.811 16.0742C174.936 16.0036 175.034 15.9045 175.105 15.7769C175.176 15.6493 175.211 15.5 175.211 15.3291ZM179.883 16.1152V16.874C179.883 17.2819 179.847 17.626 179.774 17.9062C179.701 18.1865 179.596 18.4121 179.459 18.583C179.323 18.7539 179.158 18.8781 178.964 18.9556C178.772 19.0308 178.556 19.0684 178.314 19.0684C178.123 19.0684 177.946 19.0444 177.785 18.9966C177.623 18.9487 177.477 18.8724 177.347 18.7676C177.22 18.6605 177.11 18.5215 177.019 18.3506C176.928 18.1797 176.858 17.9723 176.811 17.7285C176.763 17.4847 176.739 17.1999 176.739 16.874V16.1152C176.739 15.7074 176.775 15.3656 176.848 15.0898C176.923 14.8141 177.029 14.5931 177.166 14.4268C177.303 14.2581 177.467 14.1374 177.658 14.0645C177.852 13.9915 178.068 13.9551 178.308 13.9551C178.501 13.9551 178.679 13.979 178.841 14.0269C179.005 14.0724 179.151 14.1465 179.278 14.249C179.406 14.3493 179.514 14.4837 179.603 14.6523C179.694 14.8187 179.764 15.0226 179.811 15.2642C179.859 15.5057 179.883 15.7894 179.883 16.1152ZM179.248 16.9766V16.0093C179.248 15.786 179.234 15.59 179.207 15.4214C179.181 15.2505 179.144 15.1047 179.094 14.9839C179.044 14.8631 178.98 14.7651 178.902 14.6899C178.827 14.6147 178.739 14.5601 178.639 14.5259C178.541 14.4894 178.431 14.4712 178.308 14.4712C178.157 14.4712 178.024 14.4997 177.908 14.5566C177.791 14.6113 177.693 14.6991 177.614 14.8198C177.536 14.9406 177.477 15.099 177.436 15.2949C177.395 15.4909 177.374 15.729 177.374 16.0093V16.9766C177.374 17.1999 177.387 17.397 177.412 17.5679C177.439 17.7388 177.479 17.8869 177.532 18.0122C177.584 18.1353 177.648 18.2367 177.723 18.3164C177.798 18.3962 177.885 18.4554 177.983 18.4941C178.083 18.5306 178.194 18.5488 178.314 18.5488C178.469 18.5488 178.605 18.5192 178.721 18.46C178.837 18.4007 178.934 18.3084 179.012 18.1831C179.091 18.0555 179.151 17.8926 179.189 17.6943C179.228 17.4938 179.248 17.2546 179.248 16.9766Z" fill="white"/>
<path d="M189.085 13.9961V19H188.453V14.7856L187.178 15.2505V14.6797L188.986 13.9961H189.085ZM194.069 16.1152V16.874C194.069 17.2819 194.032 17.626 193.959 17.9062C193.887 18.1865 193.782 18.4121 193.645 18.583C193.508 18.7539 193.343 18.8781 193.149 18.9556C192.958 19.0308 192.742 19.0684 192.5 19.0684C192.309 19.0684 192.132 19.0444 191.97 18.9966C191.808 18.9487 191.663 18.8724 191.533 18.7676C191.405 18.6605 191.296 18.5215 191.205 18.3506C191.113 18.1797 191.044 17.9723 190.996 17.7285C190.948 17.4847 190.924 17.1999 190.924 16.874V16.1152C190.924 15.7074 190.961 15.3656 191.034 15.0898C191.109 14.8141 191.215 14.5931 191.352 14.4268C191.488 14.2581 191.652 14.1374 191.844 14.0645C192.037 13.9915 192.254 13.9551 192.493 13.9551C192.687 13.9551 192.865 13.979 193.026 14.0269C193.19 14.0724 193.336 14.1465 193.464 14.249C193.591 14.3493 193.7 14.4837 193.789 14.6523C193.88 14.8187 193.949 15.0226 193.997 15.2642C194.045 15.5057 194.069 15.7894 194.069 16.1152ZM193.433 16.9766V16.0093C193.433 15.786 193.419 15.59 193.392 15.4214C193.367 15.2505 193.329 15.1047 193.279 14.9839C193.229 14.8631 193.165 14.7651 193.088 14.6899C193.013 14.6147 192.925 14.5601 192.825 14.5259C192.727 14.4894 192.616 14.4712 192.493 14.4712C192.343 14.4712 192.209 14.4997 192.093 14.5566C191.977 14.6113 191.879 14.6991 191.799 14.8198C191.722 14.9406 191.663 15.099 191.622 15.2949C191.581 15.4909 191.56 15.729 191.56 16.0093V16.9766C191.56 17.1999 191.573 17.397 191.598 17.5679C191.625 17.7388 191.665 17.8869 191.717 18.0122C191.77 18.1353 191.833 18.2367 191.909 18.3164C191.984 18.3962 192.07 18.4554 192.168 18.4941C192.269 18.5306 192.379 18.5488 192.5 18.5488C192.655 18.5488 192.791 18.5192 192.907 18.46C193.023 18.4007 193.12 18.3084 193.197 18.1831C193.277 18.0555 193.336 17.8926 193.375 17.6943C193.414 17.4938 193.433 17.2546 193.433 16.9766ZM198.006 16.1152V16.874C198.006 17.2819 197.97 17.626 197.897 17.9062C197.824 18.1865 197.719 18.4121 197.583 18.583C197.446 18.7539 197.281 18.8781 197.087 18.9556C196.896 19.0308 196.679 19.0684 196.438 19.0684C196.246 19.0684 196.069 19.0444 195.908 18.9966C195.746 18.9487 195.6 18.8724 195.47 18.7676C195.343 18.6605 195.233 18.5215 195.142 18.3506C195.051 18.1797 194.981 17.9723 194.934 17.7285C194.886 17.4847 194.862 17.1999 194.862 16.874V16.1152C194.862 15.7074 194.898 15.3656 194.971 15.0898C195.046 14.8141 195.152 14.5931 195.289 14.4268C195.426 14.2581 195.59 14.1374 195.781 14.0645C195.975 13.9915 196.191 13.9551 196.431 13.9551C196.624 13.9551 196.802 13.979 196.964 14.0269C197.128 14.0724 197.274 14.1465 197.401 14.249C197.529 14.3493 197.637 14.4837 197.726 14.6523C197.817 14.8187 197.887 15.0226 197.935 15.2642C197.982 15.5057 198.006 15.7894 198.006 16.1152ZM197.371 16.9766V16.0093C197.371 15.786 197.357 15.59 197.33 15.4214C197.305 15.2505 197.267 15.1047 197.217 14.9839C197.167 14.8631 197.103 14.7651 197.025 14.6899C196.95 14.6147 196.862 14.5601 196.762 14.5259C196.664 14.4894 196.554 14.4712 196.431 14.4712C196.28 14.4712 196.147 14.4997 196.031 14.5566C195.915 14.6113 195.817 14.6991 195.737 14.8198C195.659 14.9406 195.6 15.099 195.559 15.2949C195.518 15.4909 195.498 15.729 195.498 16.0093V16.9766C195.498 17.1999 195.51 17.397 195.535 17.5679C195.562 17.7388 195.602 17.8869 195.655 18.0122C195.707 18.1353 195.771 18.2367 195.846 18.3164C195.921 18.3962 196.008 18.4554 196.106 18.4941C196.206 18.5306 196.317 18.5488 196.438 18.5488C196.592 18.5488 196.728 18.5192 196.844 18.46C196.96 18.4007 197.057 18.3084 197.135 18.1831C197.215 18.0555 197.274 17.8926 197.312 17.6943C197.351 17.4938 197.371 17.2546 197.371 16.9766Z" fill="white"/>
<path d="M210.085 13.9961V19H209.453V14.7856L208.178 15.2505V14.6797L209.986 13.9961H210.085ZM215.206 18.4805V19H211.948V18.5454L213.579 16.7305C213.779 16.5072 213.934 16.318 214.043 16.1631C214.155 16.0059 214.233 15.8657 214.276 15.7427C214.321 15.6174 214.344 15.4897 214.344 15.3599C214.344 15.1958 214.31 15.0477 214.242 14.9155C214.176 14.7811 214.078 14.674 213.948 14.5942C213.818 14.5145 213.661 14.4746 213.476 14.4746C213.255 14.4746 213.07 14.5179 212.922 14.6045C212.777 14.6888 212.667 14.8073 212.594 14.96C212.521 15.1126 212.485 15.2881 212.485 15.4863H211.853C211.853 15.2061 211.914 14.9497 212.037 14.7173C212.16 14.4849 212.342 14.3003 212.584 14.1636C212.826 14.0246 213.123 13.9551 213.476 13.9551C213.791 13.9551 214.059 14.0109 214.283 14.1226C214.506 14.2319 214.677 14.3869 214.795 14.5874C214.916 14.7856 214.977 15.0181 214.977 15.2847C214.977 15.4305 214.951 15.5786 214.901 15.729C214.854 15.8771 214.786 16.0252 214.7 16.1733C214.615 16.3215 214.516 16.4673 214.402 16.6108C214.291 16.7544 214.171 16.8957 214.043 17.0347L212.71 18.4805H215.206ZM219.006 16.1152V16.874C219.006 17.2819 218.97 17.626 218.897 17.9062C218.824 18.1865 218.719 18.4121 218.583 18.583C218.446 18.7539 218.281 18.8781 218.087 18.9556C217.896 19.0308 217.679 19.0684 217.438 19.0684C217.246 19.0684 217.069 19.0444 216.908 18.9966C216.746 18.9487 216.6 18.8724 216.47 18.7676C216.343 18.6605 216.233 18.5215 216.142 18.3506C216.051 18.1797 215.981 17.9723 215.934 17.7285C215.886 17.4847 215.862 17.1999 215.862 16.874V16.1152C215.862 15.7074 215.898 15.3656 215.971 15.0898C216.046 14.8141 216.152 14.5931 216.289 14.4268C216.426 14.2581 216.59 14.1374 216.781 14.0645C216.975 13.9915 217.191 13.9551 217.431 13.9551C217.624 13.9551 217.802 13.979 217.964 14.0269C218.128 14.0724 218.274 14.1465 218.401 14.249C218.529 14.3493 218.637 14.4837 218.726 14.6523C218.817 14.8187 218.887 15.0226 218.935 15.2642C218.982 15.5057 219.006 15.7894 219.006 16.1152ZM218.371 16.9766V16.0093C218.371 15.786 218.357 15.59 218.33 15.4214C218.305 15.2505 218.267 15.1047 218.217 14.9839C218.167 14.8631 218.103 14.7651 218.025 14.6899C217.95 14.6147 217.862 14.5601 217.762 14.5259C217.664 14.4894 217.554 14.4712 217.431 14.4712C217.28 14.4712 217.147 14.4997 217.031 14.5566C216.915 14.6113 216.817 14.6991 216.737 14.8198C216.659 14.9406 216.6 15.099 216.559 15.2949C216.518 15.4909 216.498 15.729 216.498 16.0093V16.9766C216.498 17.1999 216.51 17.397 216.535 17.5679C216.562 17.7388 216.602 17.8869 216.655 18.0122C216.707 18.1353 216.771 18.2367 216.846 18.3164C216.921 18.3962 217.008 18.4554 217.106 18.4941C217.206 18.5306 217.317 18.5488 217.438 18.5488C217.592 18.5488 217.728 18.5192 217.844 18.46C217.96 18.4007 218.057 18.3084 218.135 18.1831C218.215 18.0555 218.274 17.8926 218.312 17.6943C218.351 17.4938 218.371 17.2546 218.371 16.9766Z" fill="white"/>
<path d="M0 3.5C0 1.567 1.567 0 3.5 0H18V7H3.5C1.567 7 0 5.433 0 3.5V3.5Z" fill="#CCF0FD"/>
<path d="M232 3.5C232 5.433 230.433 7 228.5 7L214 7V0L228.5 0C230.433 0 232 1.567 232 3.5V3.5Z" fill="#EA607E"/>
<rect x="18" width="20" height="7" fill="#9DDBFB"/>
<rect x="38" width="18" height="7" fill="#A9F6AC"/>
<rect x="56" width="20" height="7" fill="#7CDF76"/>
<rect x="76" width="20" height="7" fill="#E5E771"/>
<rect x="96" width="19" height="7" fill="#F9C933"/>
<rect x="115" width="20" height="7" fill="#EE7D44"/>
<rect x="135" width="19" height="7" fill="#E53D32"/>
<rect x="154" width="21" height="7" fill="#BE3128"/>
<rect x="175" width="18" height="7" fill="#98261E"/>
<rect x="193" width="21" height="7" fill="#8338A7"/>
</svg>
